<?xml version="1.0" encoding="utf-8"?>
<!-- Uploaded to: SVG Repo, www.svgrepo.com, Generator: SVG Repo Mixer Tools -->
<svg width="800px" height="800px" viewBox="0 -9.36 267.481 267.481" xmlns="http://www.w3.org/2000/svg"><defs><style>.a{fill:#a98a75;}.b{fill:#f8b8b4;}.c{fill:#ffffff;}.d{fill:#211715;}.e{fill:#ffda71;}</style></defs><path class="a" d="M79.594,193.95c-13.848-.336-22.752-10.74-22.68-20.352a116.79,116.79,0,0,1,3.552-24.8c2.748-9.84,4.724-27.156,4.724-51.168C64.015,62.2,73.33,36.509,88.022,22.444c8.855-8.478,28.812-20.029,51.233-20.029A81.4,81.4,0,0,1,171.8,8.649L176.37,10.5l5.444,3.209c4.338,2.556,5.885,4.747,10.349,9.054,11.211,10.816,19,30.276,20.243,47.7.358,5.027,1.181,18.107.389,27.16.4,29.915,5.913,46.659,8.76,54.9a54.762,54.762,0,0,1,3.457,18.741c.1,11.2-13.815,25.7-29.813,19.958Z"/><path class="b" d="M34.254,246.418a202.339,202.339,0,0,1,7.2-21.064c2.8-5.868,6.228-11.676,11.172-15.792a77.146,77.146,0,0,1,17.136-11.124c5.951-2.58,13.374-5.4,20.1-8.166,13.31,8.466,31.682,14.266,50.838,14.266,19.25,0,37.361-5.708,50.578-14.058,6.586,2.693,13.79,5.442,19.594,7.958a77.146,77.146,0,0,1,17.136,11.124c4.944,4.116,8.376,9.924,11.172,15.792,1.368,2.844,4.968,14.1,6.8,20.8Z"/><path class="c" d="M181.362,195.816a99.166,99.166,0,0,1-40.658,8.722,97.945,97.945,0,0,1-48.766-12.982L90.2,190.2c5.193-1.869,15.046-5.5,16.312-6.149a9.469,9.469,0,0,0,6.024-8.659c.211-3.286.308-5.547.638-8.524a52.7,52.7,0,0,1-15.009-12.894,66.987,66.987,0,0,1-12.712-23.984,9.534,9.534,0,0,1-8.1-2.031c-4.684-3.833-6.628-9.178-7.814-12.673-1.675-4.934-1.78-12.908.715-17.236.836-1.45,2.779-3.919,7.344-4.08a8.957,8.957,0,0,1,5.593,1.682l7.439-6.263c4.664-3.816,9.486-8.047,14.316-12.465,8.567-.149,17.927-.208,17.927-.208,16.668-4.761,30.086-14.508,40.651-28.257,2.073,7.963,5,17.878,7.57,22.7,3.776,7.08,15.79,22.958,25.471,25.284a8.691,8.691,0,0,1,6.486-2.473c4.565.161,6.508,2.63,7.344,4.08,2.5,4.328,2.39,12.3.715,17.236-1.187,3.5-3.13,8.84-7.815,12.673a9.7,9.7,0,0,1-7.488,2.161l-.718-.121a57.151,57.151,0,0,1-2.576,6.993c-1.87,5.076-12.056,22.652-25.033,29.971.324,2.932.421,5.179.63,8.429a9.469,9.469,0,0,0,6.024,8.659c1.337.688,12.244,4.694,17.13,6.442A83.211,83.211,0,0,1,181.362,195.816Z"/><path class="d" d="M36.569,247.056c1.409-5.11,3.1-10.153,4.888-15.141.36-1,.727-2,1.108-3,.144-.376.289-.752.439-1.126.079-.2.158-.393.239-.59.179-.437-.178.355.109-.248a72.43,72.43,0,0,1,4.161-7.721C54.251,208.6,66.168,202.374,77.505,197.8c6.857-2.765,13.775-5.4,20.521-8.43a2.419,2.419,0,0,0,.861-3.284,2.46,2.46,0,0,0-3.284-.861c-6.108,2.746-12.371,5.132-18.583,7.628-6.1,2.45-12.06,4.985-17.573,8.611-5.553,3.653-10.813,7.816-14.689,13.267a60.281,60.281,0,0,0-7.205,13.922C35.458,234.278,33.536,240,31.94,245.78c-.823,2.982,3.807,4.254,4.629,1.276Z"/><path class="d" d="M248.3,245.513c-2.78-10.1-5.671-20.566-11.48-29.4-3.667-5.58-8.57-9.749-14.007-13.543a86.288,86.288,0,0,0-17.227-8.916c-6.857-2.783-13.8-5.386-20.549-8.421a2.474,2.474,0,0,0-3.283.861,2.418,2.418,0,0,0,.861,3.284c5.963,2.68,12.063,5.046,18.133,7.472,5.882,2.35,11.662,4.72,17.031,8.126,5.058,3.209,10.169,6.96,13.716,11.849a57.171,57.171,0,0,1,4.7,7.875q.5.992.974,1.994c.067.143.129.289.192.433-.217-.5-.07-.166-.027-.057.363.916.7,1.839,1.035,2.768,1.979,5.576,3.732,11.25,5.3,16.955.819,2.974,5.451,1.712,4.629-1.276Z"/><path class="d" d="M172.44,6.335A86.423,86.423,0,0,0,136.612.068a81.781,81.781,0,0,0-36.238,10.586A63.869,63.869,0,0,0,79.491,28.648C73.635,36.663,69.7,46.033,67.105,55.574,63.4,69.222,62.336,83.531,62.787,97.626c.1,3.081,4.9,3.095,4.8,0C66.9,76,69.583,52.6,81.6,34.035A56.371,56.371,0,0,1,99.5,16.736,78.291,78.291,0,0,1,132.267,5.182a81.548,81.548,0,0,1,38.9,5.781,2.415,2.415,0,0,0,2.952-1.676,2.458,2.458,0,0,0-1.676-2.952Z"/><path class="d" d="M215.2,97.626a146.911,146.911,0,0,0,.091-18.966,130.624,130.624,0,0,0-1.538-16.676c-2.283-13.049-7.486-26.065-15.821-36.441a102.539,102.539,0,0,0-7.349-7.744,38.391,38.391,0,0,0-7.553-6.162c-2.658-1.587-5.075,2.561-2.422,4.145a32.1,32.1,0,0,1,6.327,5.154c2.165,2.181,4.434,4.278,6.443,6.607a64.134,64.134,0,0,1,9.532,15.4,84.245,84.245,0,0,1,5.844,18.334A107.507,107.507,0,0,1,210.4,76.938a153.248,153.248,0,0,1-.008,20.688,2.419,2.419,0,0,0,2.4,2.4,2.449,2.449,0,0,0,2.4-2.4Z"/><path class="d" d="M79.594,191.55c-6.6-.207-13.243-3.074-17.114-8.589a17.231,17.231,0,0,1-3.074-7.554,46.57,46.57,0,0,1,.488-10.169c.427-3.825,1.033-7.635,1.828-11.4.577-2.737,1.383-5.415,1.985-8.145A149.516,149.516,0,0,0,66.4,127.1c.895-9.8,1.193-19.642,1.2-29.475,0-3.089-4.8-3.094-4.8,0,0,9.162-.268,18.333-1.024,27.466a145.62,145.62,0,0,1-2.639,19.085c-.612,2.812-1.443,5.567-2.038,8.384-.856,4.06-1.482,8.172-1.956,12.293a48.427,48.427,0,0,0-.516,10.692,21.224,21.224,0,0,0,3.288,9.206c4.77,7.349,13.055,11.327,21.685,11.6,3.09.1,3.087-4.7,0-4.8Z"/><path class="d" d="M210.4,97.626c.227,15.914,1.84,31.976,6.226,47.321,1.633,5.714,3.939,11.248,5.1,17.089.756,3.8,1.37,8.543.6,12.027a19.4,19.4,0,0,1-4.226,8.315,21.983,21.983,0,0,1-9.392,6.661,19.225,19.225,0,0,1-12.865-.129,2.4,2.4,0,1,0-1.276,4.629,24.387,24.387,0,0,0,23.778-4.649,26.357,26.357,0,0,0,6.916-8.82,22.461,22.461,0,0,0,2.095-11.082,58.274,58.274,0,0,0-2.817-15.111c-.745-2.318-1.574-4.607-2.3-6.931a141.331,141.331,0,0,1-4.26-17.571A197.746,197.746,0,0,1,215.2,97.626c-.044-3.086-4.844-3.095-4.8,0Z"/><path class="d" d="M85.66,94.606a11.938,11.938,0,0,0-13.252-1.792c-3.157,1.56-4.963,4.687-5.775,8.008-1.957,8.007.08,17.138,4.658,23.93,3.277,4.862,8.053,8.551,14.184,7.685a2.417,2.417,0,0,0,1.677-2.953,2.465,2.465,0,0,0-2.953-1.676c-3.587.507-6.675-2.483-8.55-5.167a30.505,30.505,0,0,1-3.9-8.284,24.733,24.733,0,0,1-.9-9.935,14.72,14.72,0,0,1,1.055-4.36,10.044,10.044,0,0,1,.732-1.307c.277-.437-.116.085.166-.233.2-.228.407-.45.63-.659,2.121-2,6.451-2.036,8.831.137,2.277,2.08,5.681-1.305,3.394-3.394Z"/><path class="d" d="M198.375,98a7.023,7.023,0,0,1,8.308-.551,6.393,6.393,0,0,1,1.009.909c.1.1.19.217.278.328-.019-.024-.221-.3-.075-.086.132.2.263.39.382.594a12.25,12.25,0,0,1,1.352,4.091c1.112,6.177-.6,12.8-3.822,18.1-1.9,3.133-5.25,7-9.366,6.42a2.482,2.482,0,0,0-2.952,1.676,2.418,2.418,0,0,0,1.676,2.953c10.012,1.415,15.857-8.759,18.4-16.955a29.186,29.186,0,0,0,.754-13.125c-.562-3.479-2.024-6.843-4.988-8.9a11.859,11.859,0,0,0-14.349,1.15c-2.285,2.088,1.116,5.475,3.4,3.394Z"/><path class="d" d="M193.834,125.226a72.49,72.49,0,0,1-3.863,11.7c.295-.758-.033.067-.1.22q-.153.336-.312.669c-.287.6-.589,1.191-.9,1.779-.693,1.309-1.434,2.594-2.207,3.859a70.327,70.327,0,0,1-15.264,18.09,28.242,28.242,0,0,1-11.342,5.875c-3.01.691-1.736,5.32,1.276,4.629,8.49-1.949,15.546-8.186,21.081-14.626a76.314,76.314,0,0,0,11.813-17.853c.185-.41.363-.826.534-1.242.051-.124.317-.773.178-.448-.184.432.131-.276.134-.283.153-.348.3-.7.447-1.054q.359-.861.684-1.737a55.513,55.513,0,0,0,2.472-8.3,2.46,2.46,0,0,0-1.676-2.952,2.424,2.424,0,0,0-2.953,1.676Z"/><path class="d" d="M82.016,126.3a70.134,70.134,0,0,0,9.964,23.385c5.06,7.579,11.7,14.68,19.741,19.123a38.96,38.96,0,0,0,13.186,4.477,2.48,2.48,0,0,0,2.953-1.676,2.417,2.417,0,0,0-1.677-2.952C109.35,166.188,96.75,151.57,90.359,136.63a67.262,67.262,0,0,1-3.714-11.6c-.681-3.012-5.31-1.738-4.629,1.276Z"/><path class="d" d="M130.1,143.5a22.468,22.468,0,0,0,10.822,2.5c3.83-.024,7.752-.757,10.826-3.153a2.413,2.413,0,0,0,0-3.394,2.462,2.462,0,0,0-3.394,0c.7-.544.053-.056-.125.058-.222.142-.451.274-.684.4-.143.075-.92.416-.364.193q-.466.188-.943.343a16.96,16.96,0,0,1-5.672.757,17.694,17.694,0,0,1-5.413-.729c-.345-.1-.682-.226-1.023-.343-.112-.039-.219-.088-.33-.129.6.22.093.042-.024-.013q-.634-.3-1.253-.626a2.453,2.453,0,0,0-3.284.861,2.427,2.427,0,0,0,.861,3.284Z"/><path class="d" d="M139.912,117.723a51.816,51.816,0,0,1,1.222,5.588l-.086-.638a3.372,3.372,0,0,1,.021.771l.086-.638a1.871,1.871,0,0,1-.085.347l.242-.573a1.462,1.462,0,0,1-.122.223l.375-.486a1.154,1.154,0,0,1-.183.18l.486-.375a3.466,3.466,0,0,1-.443.234l.574-.242a3.255,3.255,0,0,1-.746.218l.638-.086a2.989,2.989,0,0,1-.7,0l.638.086c-.264-.037-.523-.1-.787-.137a2.655,2.655,0,0,0-1.849.242,2.4,2.4,0,0,0-.861,3.284,2.3,2.3,0,0,0,1.434,1.1c.56.075,1.1.219,1.672.244a5.26,5.26,0,0,0,2.411-.566,3.38,3.38,0,0,0,1.9-2.24,5.8,5.8,0,0,0-.027-2.464c-.3-1.8-.72-3.585-1.183-5.35a2.4,2.4,0,1,0-4.629,1.276Z"/><path class="d" d="M110.1,102.114c-.9,2.939-.314,9.7,5.252,10.273,7.358-.044,7.749-8.216,5.273-12.059C118.6,97.182,112.634,95.874,110.1,102.114Z"/><path class="d" d="M170.54,102.114c.905,2.939.316,9.7-5.251,10.273-7.358-.044-7.75-8.216-5.273-12.059C162.044,97.182,168.007,95.874,170.54,102.114Z"/><path class="d" d="M161.382,49.786c1.253,4.746,2.59,9.477,4.177,14.123a53.048,53.048,0,0,0,4.462,10.228A77.49,77.49,0,0,0,184.51,91.871c3.132,2.805,6.633,5.411,10.687,6.69,2.952.933,4.216-3.7,1.276-4.628a24.229,24.229,0,0,1-8.057-5,69.208,69.208,0,0,1-8.078-8.491,55.672,55.672,0,0,1-9.762-16.687c-1.767-5-3.212-10.115-4.566-15.241-.788-2.984-5.419-1.718-4.628,1.276Z"/><path class="d" d="M121.647,57.7c-10.554,10.363-21.272,20.614-32.718,30a2.418,2.418,0,0,0,0,3.394,2.455,2.455,0,0,0,3.394,0c11.447-9.382,22.164-19.633,32.718-30,2.208-2.167-1.187-5.561-3.394-3.394Z"/><path class="d" d="M161.771,46.832a81.884,81.884,0,0,1-17.533,17.079A73.774,73.774,0,0,1,122.231,74.4c-2.963.854-1.7,5.487,1.276,4.628a79.19,79.19,0,0,0,34.027-20.1,90.575,90.575,0,0,0,7.631-8.708,2.481,2.481,0,0,0,0-3.394,2.416,2.416,0,0,0-3.394,0Z"/><path class="d" d="M88.159,193.468c4.283-1.481,8.533-3.069,12.776-4.658,4.539-1.7,9.907-3.125,12.416-7.673,2.089-3.786,1.68-8.408,2.053-12.583a2.417,2.417,0,0,0-2.4-2.4,2.45,2.45,0,0,0-2.4,2.4c-.168,1.88-.278,3.765-.395,5.649a11.629,11.629,0,0,1-.711,3.935,6.6,6.6,0,0,1-2.519,2.98,15.551,15.551,0,0,1-1.766.906c-.076.035-.154.067-.229.1-.415.2.529-.21.031-.012-4.1,1.631-8.246,3.151-12.393,4.663-1.909.7-3.818,1.4-5.739,2.061-2.9,1-1.654,5.642,1.276,4.628Z"/><path class="d" d="M193.758,188.84c-3.978-1.376-7.925-2.849-11.869-4.32-1.93-.72-3.863-1.437-5.775-2.206-.141-.056-.282-.115-.424-.172-.461-.184.048.021.06.027-.313-.146-.631-.278-.943-.425a7.161,7.161,0,0,1-3.04-2.474,8.393,8.393,0,0,1-1.276-4.12c-.149-2.2-.258-4.4-.455-6.6a2.463,2.463,0,0,0-2.4-2.4,2.418,2.418,0,0,0-2.4,2.4c.332,3.7.006,7.787,1.447,11.276a11.947,11.947,0,0,0,6.507,6.423c4.255,1.861,8.679,3.374,13.039,4.967,2.08.759,4.16,1.524,6.253,2.248,2.925,1.012,4.182-3.623,1.276-4.628Z"/><path class="d" d="M90.727,193.628c24.378,14.341,55.03,17.038,81.779,8.211a91.412,91.412,0,0,0,19.96-9.269c2.61-1.639.2-5.794-2.423-4.145-22.725,14.266-51.742,17.231-77.26,9.562a89.394,89.394,0,0,1-19.633-8.5c-2.668-1.57-5.087,2.577-2.423,4.144Z"/><path class="c" d="M105.173,222.056A76.461,76.461,0,0,1,92.1,217.3c1.744-7.139,3.963-18.3,5.757-25.857a22.061,22.061,0,0,1,1.833-5.085c-9.811-8.718-20.116-18.3-23.229-32.091-.759-3.364-2.711-31.515-1.99-37.418a9.636,9.636,0,0,1,1.148-3.422,5.559,5.559,0,0,1,4.1-2.376,3.949,3.949,0,0,1,3.544,1.274c1.017,1,1.842,3.7,2.192,5.088l.762,3.022a6.059,6.059,0,0,1,3.531,1.822c1.414,1.455,1.825,3.39,2.58,5.274,2.155,5.384,4.405,14.058,7.214,20.012a11.593,11.593,0,0,0,2.337,3.342A71.684,71.684,0,0,0,118,163.276c2.719,1.583,6.025,3.681,7.026,5.3,2.648,4.284,2.653,9.067,1.386,14.429-1.151,13.215-1.688,28.374-3.506,42.016A88.725,88.725,0,0,1,105.173,222.056Z"/><path class="d" d="M88.453,218.1a71.522,71.522,0,0,0,16.428,6.362,88.933,88.933,0,0,0,20.394,3.058c3.09.086,3.088-4.714,0-4.8a83.118,83.118,0,0,1-19.118-2.887,66.285,66.285,0,0,1-15.282-5.878c-2.7-1.508-5.123,2.637-2.422,4.145Z"/><path class="d" d="M122.961,224.483c-.785,5.4-1.529,10.808-2.271,16.216a2.483,2.483,0,0,0,1.676,2.952,2.417,2.417,0,0,0,2.952-1.676c.742-5.408,1.487-10.815,2.271-16.216a2.48,2.48,0,0,0-1.676-2.952,2.417,2.417,0,0,0-2.952,1.676Z"/><path class="d" d="M90.565,154.421a109.828,109.828,0,0,1-4.2-14.439c-.98-4.575-1.7-9.2-2.541-13.8-.27-1.471.318-3.656,2.24-3.364,2.111.32,2.905,2.49,3.529,4.221,1.614,4.469,3.1,8.973,4.638,13.469.8,2.333,1.656,4.644,2.636,6.908a18.26,18.26,0,0,0,4.26,6.086,77.8,77.8,0,0,0,10.764,8.814c2.108,1.408,4.311,2.649,6.469,3.974,1.69,1.037,3.886,2.29,4.808,3.859a12.826,12.826,0,0,1,1.665,6.453c.02,2.629-.717,5.118-.933,7.717-1.054,12.626-1.549,25.3-3.039,37.886a2.413,2.413,0,0,0,2.4,2.4,2.458,2.458,0,0,0,2.4-2.4c1.42-12,1.943-24.08,2.895-36.122.225-2.837.932-5.606,1.056-8.453a18.373,18.373,0,0,0-1.319-7.874,12.988,12.988,0,0,0-4.766-5.8c-2.191-1.594-4.588-2.868-6.888-4.294a70.441,70.441,0,0,1-11.506-8.97,19.664,19.664,0,0,1-2.5-2.586,16.376,16.376,0,0,1-1.68-3.24c-1.051-2.479-1.91-5.042-2.758-7.6-1.562-4.7-2.924-9.594-5-14.107-2.386-5.2-9.911-7.381-13.206-1.779a7.562,7.562,0,0,0-1.106,4.169,46.042,46.042,0,0,0,.828,4.817c.484,2.742.946,5.489,1.475,8.223a113.173,113.173,0,0,0,4.74,17.1,2.464,2.464,0,0,0,2.953,1.676,2.421,2.421,0,0,0,1.676-2.952Z"/><path class="d" d="M87.772,116.774c-1-3.876-3.059-8.52-7.861-8.144a8.206,8.206,0,0,0-5.979,3.026,11.26,11.26,0,0,0-1.917,5.769,115.95,115.95,0,0,0,.285,15.323c.3,5.835.679,11.674,1.251,17.49a38.375,38.375,0,0,0,.688,5.059,42.79,42.79,0,0,0,5.089,12.225c5.042,8.33,12.344,14.925,19.56,21.325,2.3,2.044,5.711-1.339,3.395-3.394-5.767-5.114-11.672-10.3-16.257-16.542a43.385,43.385,0,0,1-5.636-9.973,33.972,33.972,0,0,1-1.634-5.406c-.043-.212-.075-.426-.11-.64-.018-.111-.08-.578-.02-.133.063.468-.026-.22-.041-.339-.571-4.754-.873-9.549-1.175-14.325-.348-5.5-.658-11.008-.693-16.517-.015-2.272-.168-4.619.765-6.537.595-1.222,2.514-2.184,3.761-1.313,1.1.767,1.543,2.937,1.9,4.322.771,2.989,5.4,1.722,4.628-1.276Z"/><path class="d" d="M94.71,216.712c1.176-4.974,2.225-9.978,3.305-14.974.533-2.465,1.069-4.93,1.63-7.389a27.723,27.723,0,0,1,2.005-6.577c1.41-2.742-2.73-5.173-4.145-2.422-2.3,4.474-2.977,9.836-4.031,14.706-1.111,5.131-2.184,10.271-3.392,15.38-.711,3,3.916,4.286,4.628,1.276Z"/><path class="e" d="M250.645,86.762a.8.8,0,0,1-1.548.019c-.876-3.375-2.235-7.407-4.3-9.81-2.518-2.932-6.156-4.176-9.529-4.9a.8.8,0,0,1,0-1.557c3.34-.708,7.022-1.955,9.471-4.6,2.331-2.516,3.646-7.578,4.383-11.012a.8.8,0,0,1,1.556-.018c.821,3.434,2.281,8.51,4.616,11.03,2.424,2.615,5.928,3.864,9.166,4.575a.8.8,0,0,1-.012,1.559c-3.458.692-7.248,1.88-9.765,4.81C252.624,79.262,251.438,83.357,250.645,86.762Z"/><path class="e" d="M20.108,184.137a.884.884,0,0,1-1.716.022c-.97-3.74-2.475-8.207-4.762-10.869-2.79-3.249-6.821-4.628-10.559-5.431a.883.883,0,0,1,0-1.726c3.7-.784,7.781-2.166,10.493-5.093,2.583-2.787,4.041-8.395,4.857-12.2a.884.884,0,0,1,1.724-.02c.909,3.806,2.528,9.429,5.115,12.221,2.686,2.9,6.568,4.282,10.155,5.07a.883.883,0,0,1-.013,1.727c-3.831.767-8.031,2.083-10.819,5.329C22.3,175.828,20.987,180.364,20.108,184.137Z"/><path class="d" d="M248.331,86.124l-.1.241.618-1.059q2.977,1.721,2.364.105c-.068-.25-.139-.5-.211-.748-.147-.509-.3-1.017-.468-1.52-.358-1.09-.771-2.158-1.225-3.212a17.4,17.4,0,0,0-3.081-4.954,15.172,15.172,0,0,0-4.836-3.435,24.373,24.373,0,0,0-3.019-1.154c-.889-.272-1.852-.4-2.717-.727l1.059.617,0,2.026-1.059.617c.949-.36,2-.494,2.975-.8a25.454,25.454,0,0,0,3.267-1.273,14.2,14.2,0,0,0,5.312-4.194,19.652,19.652,0,0,0,2.692-5.443c.67-1.925.908-4.031,1.626-5.92l-.617,1.059-2.031-.016-.617-1.059c.718,1.767,1,3.758,1.643,5.567a21.657,21.657,0,0,0,2.814,5.684,14.38,14.38,0,0,0,5.115,4.208,23.792,23.792,0,0,0,3.072,1.272c1.031.348,2.152.5,3.161.892l-1.059-.617-.01-2.024,1.059-.617c-.888.326-1.876.436-2.79.7a24.476,24.476,0,0,0-3.093,1.126,14.7,14.7,0,0,0-4.926,3.4c-2.817,3.05-4,7.313-4.924,11.258-.708,3,3.919,4.286,4.628,1.276.787-3.342,1.644-7.257,4.245-9.7a11.84,11.84,0,0,1,4.437-2.453c1.713-.563,4.261-.577,5.322-2.231a3.241,3.241,0,0,0-2.042-4.882,23.97,23.97,0,0,1-5-1.72,9.368,9.368,0,0,1-3.613-3.119,20.366,20.366,0,0,1-2.074-4.624,38.905,38.905,0,0,0-1.456-4.957,3.2,3.2,0,0,0-5.253-.756c-1.123,1.23-1.221,3.626-1.675,5.188a21.465,21.465,0,0,1-1.863,4.715c-1.711,2.993-5.07,4.3-8.267,5.088a4.984,4.984,0,0,0-2.484,1.035,3.229,3.229,0,0,0-.9,3.057c.558,2.214,2.747,2.374,4.587,2.921A13.218,13.218,0,0,1,242,77.548a12.538,12.538,0,0,1,3.08,4.6,31.5,31.5,0,0,1,1.072,3.031,11.315,11.315,0,0,0,1.163,3.293,3.128,3.128,0,0,0,3,1.253,3.293,3.293,0,0,0,2.65-2.327,2.417,2.417,0,0,0-1.676-2.953A2.458,2.458,0,0,0,248.331,86.124Z"/><path class="d" d="M17.793,183.5l.006-.139.861-.861a1.879,1.879,0,0,1,1.528.2l.617,1.059c-.828-2.022-1.221-4.228-2.062-6.265a20.993,20.993,0,0,0-3.549-6.054,16.313,16.313,0,0,0-5.449-3.936,27.081,27.081,0,0,0-3.2-1.232q-.7-.218-1.421-.4c-.294-.076-.589-.146-.885-.214-.169-.038-.585-.252-.4-.112l.861.861a2.254,2.254,0,0,1,0,1.17l-.861.861c-.247.183.251-.077.412-.113.3-.069.606-.14.908-.217q.83-.21,1.646-.464a27.649,27.649,0,0,0,3.447-1.346,15.485,15.485,0,0,0,5.79-4.518,21.609,21.609,0,0,0,3.052-6.177c.359-1.048.669-2.112.949-3.184q.219-.841.415-1.689.073-.321.145-.642c.034-.154.068-.308.1-.463.034-.195.043-.2.026-.022l-.861.861a1.941,1.941,0,0,1-1.515-.2l-.617-1.059c.774,1.99,1.1,4.184,1.829,6.207A23.47,23.47,0,0,0,22.6,161.54a15.77,15.77,0,0,0,5.5,4.562,25.485,25.485,0,0,0,3.6,1.487q.811.269,1.639.486.361.1.726.183c.179.043.757.288.593.164l-.861-.861a2.285,2.285,0,0,1-.009-1.167l.861-.861c.186-.136-.077.039-.237.063-.242.036-.486.1-.725.158q-.828.188-1.646.417a26.487,26.487,0,0,0-3.289,1.176,16.3,16.3,0,0,0-5.592,3.824c-3.068,3.339-4.347,8.019-5.362,12.328-.707,3,3.921,4.287,4.629,1.276.871-3.7,1.827-8.05,4.682-10.775a13.2,13.2,0,0,1,4.931-2.807c1.836-.622,4.739-.631,5.893-2.377,1.4-2.112.061-4.521-2.231-5.1a23.648,23.648,0,0,1-5.52-1.938,10.531,10.531,0,0,1-4-3.464,22.16,22.16,0,0,1-2.234-4.883c-.6-1.766-.942-3.612-1.532-5.372a3.3,3.3,0,0,0-5.641-1.117,5.52,5.52,0,0,0-.944,2.517c-.227.979-.474,1.953-.752,2.919a24.963,24.963,0,0,1-2.014,5.209c-1.824,3.306-5.3,4.87-8.815,5.8a9.407,9.407,0,0,0-2.832.908,3.234,3.234,0,0,0-1.413,2.925c.138,2.725,2.86,2.97,4.907,3.575a15.319,15.319,0,0,1,5.628,2.8,13.868,13.868,0,0,1,3.661,5.383c.438,1.043.8,2.123,1.135,3.2a21.842,21.842,0,0,0,.962,3.143,3.27,3.27,0,0,0,3.071,1.882,3.371,3.371,0,0,0,3.053-2.431,2.419,2.419,0,0,0-1.676-2.952A2.455,2.455,0,0,0,17.793,183.5Z"/></svg>