<?xml version="1.0" encoding="utf-8"?>
<!-- Uploaded to: SVG Repo, www.svgrepo.com, Generator: SVG Repo Mixer Tools -->
<svg width="800px" height="800px" viewBox="-6.98 0 293.755 293.755" xmlns="http://www.w3.org/2000/svg"><defs><style>.a{fill:#ffffff;}.b{fill:#211715;}.c{fill:#bdbdbd;}.d{fill:#a095c1;}</style></defs><path class="a" d="M207.655,114.148a10.245,10.245,0,0,1,8.2-2.4,9.677,9.677,0,0,1,6.957,4.625,13.671,13.671,0,0,1,1.432,5.5,40.984,40.984,0,0,1-4.18,21.731,26.05,26.05,0,0,1-6.737,8.843,17.265,17.265,0,0,1-8.034,3.621s-.61.094-1.661.261c-.641,2.446-1.357,4.5-1.71,5.6-2.285,6.351-15.078,28.337-31.178,36.345.188,1.316.409,2.657.649,4.047.83,4.77.57,9.03,7.2,11.42.44.16,21.41,9.97,22.69,10.41,0,0-.168,42.276-60.613,42.276s-62.177-42.276-62.177-42.276c1.25-.44,21.81-10.25,22.24-10.41,6.49-2.39,6.24-6.65,7.06-11.42.24-1.433.46-2.805.65-4.165a59.981,59.981,0,0,1-18.933-15.751,70.181,70.181,0,0,1-13.181-26.178,16.716,16.716,0,0,1-9.87-3.781,26.053,26.053,0,0,1-6.738-8.843,40.994,40.994,0,0,1-4.18-21.731,13.671,13.671,0,0,1,1.432-5.5,9.677,9.677,0,0,1,6.957-4.625,10.249,10.249,0,0,1,8.2,2.4S53.41,43.025,138.743,43.025,207.655,114.148,207.655,114.148Z"/><path class="b" d="M79.236,226.857c1.819-.665,3.572-1.586,5.324-2.405q4.381-2.049,8.75-4.122,3.648-1.725,7.3-3.45a11.925,11.925,0,0,0,1.506-.7c-.124.082-1.238.508-.248.12.41-.16.818-.333,1.22-.514a12.952,12.952,0,0,0,1.451-.754,11.226,11.226,0,0,0,2.649-2.195,12.669,12.669,0,0,0,2.734-6.1c.475-2.591.852-5.217,1.223-7.824a2.9,2.9,0,0,0-1.956-3.444c-1.313-.361-3.23.449-3.444,1.956-.332,2.338-.716,4.672-1.085,7a21.213,21.213,0,0,1-.492,2.394,10.344,10.344,0,0,1-.329,1c.185-.469-.028.055-.09.168-.129.232-.258.46-.395.687-.058.1-.409.542-.126.2-.118.144-.249.284-.379.417s-.71.633-.585.54a14.62,14.62,0,0,1-2.955,1.5c-.431.191-.855.4-1.282.6-5.1,2.4-10.181,4.822-15.281,7.214q-1.864.873-3.732,1.737c-.395.182-.789.363-1.186.54-.136.06-.276.115-.409.18-.335.163.847-.333.331-.144a2.874,2.874,0,0,0-1.955,3.444,2.823,2.823,0,0,0,3.444,1.956Z"/><path class="b" d="M168.042,199.021c.346,2.373.733,4.744,1.124,7.11a14.056,14.056,0,0,0,1.779,5.24,11.714,11.714,0,0,0,5.113,4.344,5.567,5.567,0,0,0,1.8.737c-.343.033-.885-.394-.464-.192.261.125.528.241.791.362,5.315,2.443,10.612,4.927,15.927,7.369,2.113.971,4.23,2.083,6.423,2.866a2.828,2.828,0,0,0,3.445-1.956,2.857,2.857,0,0,0-1.956-3.444c-.691-.247.577.263.1.049-.362-.163-.727-.32-1.089-.482q-1.6-.716-3.183-1.448-4.294-1.968-8.578-3.961-3.673-1.7-7.347-3.406c-1.852-.856-4.257-1.656-5.483-2.859-.166-.163-.325-.333-.475-.511q-.189-.227.025.035c-.076-.108-.149-.217-.218-.33-.107-.188-.223-.37-.323-.563-.056-.108-.33-.791-.135-.272a14.729,14.729,0,0,1-.664-2.533c-.463-2.533-.844-5.1-1.216-7.643-.219-1.5-2.116-2.321-3.445-1.956a2.871,2.871,0,0,0-1.955,3.444Z"/><path class="c" d="M156.413,5.457a79.749,79.749,0,0,0-32.662-1.716C105.682,6.967,88.909,16.361,75.3,31.152c-6.739,7.327-15.431,19.2-17.109,40.516-.851,10.87-.3,28.148,3.86,37.926l.969,2.334c.3-.074.6-.133.905-.179a10.249,10.249,0,0,1,8.2,2.4l5.425-9.326c.978-2.4,1.71-4.905,3.224-7.883,3.008-5.917,4.337-9.035,10.215-14.611a81.119,81.119,0,0,0,16.769-4.35c1.775-.722,3.639-1.471,5.491-2.287a74.909,74.909,0,0,0,21.605-.672c18.257-3.511,31.026-13.883,35.831-19.692a23.233,23.233,0,0,1,13.852,5.856c11.961,11.8,18.439,26.267,19.924,42.927l3.19,10.038a10.245,10.245,0,0,1,8.2-2.4,9.819,9.819,0,0,1,1.364.3c4.957-5.5,7.879-30.568,3.566-49.018-3.765-16.1-10.473-26.122-18.473-33.823-4.274-4.114-11-8.5-16.8-9.49l-12.422-5.55C169.345,10.229,163.309,7.339,156.413,5.457Z"/><path class="a" d="M190.3,290.757c-.087-11.912-.173-32.65-.221-49.181-15.711,8.156-30.649,12.489-50.362,12.489-17.653,0-35.536-3.876-50.01-12.1-.05,16.47-.136,36.973-.222,48.791Z"/><path class="b" d="M188.441,239.274a103.033,103.033,0,0,1-35.225,11.243,113.046,113.046,0,0,1-41.39-2.722,86.349,86.349,0,0,1-20.855-8.328c-3.139-1.781-5.964,3.055-2.826,4.835,12.616,7.156,26.914,10.879,41.3,12.122a111.222,111.222,0,0,0,41.356-3.865,120.438,120.438,0,0,0,20.466-8.449c3.2-1.652.375-6.486-2.827-4.836Z"/><path class="d" d="M277.028,290.975c-2.547-5.272-4.715-10.731-7.642-15.816-2.592-4.5-7.367-15.3-17.094-23.924-5.153-4.568-17.815-13.829-37.114-22.815-6.8-3.167-15.276-7.323-22.442-10.083a1.994,1.994,0,0,0-2.707,1.868c0,12.282.136,52.055.27,70.552Z"/><path class="d" d="M2.755,290.975C5.3,285.7,7.47,280.244,10.4,275.159c2.592-4.5,7.367-15.3,17.1-23.924,5.152-4.568,17.814-13.829,37.113-22.815,6.8-3.167,15.276-7.323,22.443-10.083a1.994,1.994,0,0,1,2.706,1.868c0,12.282-.135,52.055-.27,70.552Z"/><path class="b" d="M279.446,289.562c-5.935-12.342-11.394-25.4-20.618-35.749a72.843,72.843,0,0,0-12.056-10.451,168.65,168.65,0,0,0-16.5-10.391c-7.26-4.042-14.8-7.521-22.329-11.035-3.824-1.785-7.668-3.529-11.569-5.142-1.827-.756-3.791-1.842-5.806-1.151a4.948,4.948,0,0,0-3.334,4.8c-.246,10.141.04,20.325.076,30.469q.064,18.194.169,36.388l.024,3.46c.026,3.6,5.626,3.61,5.6,0q-.121-16.8-.17-33.608-.061-16.339-.095-32.678,0-1.337,0-2.674c0-.371.016-.746,0-1.117,0-.038-.007-.474,0-.475.315-.038-.84,1.235-.748.8a11.234,11.234,0,0,0,2.018.87q1.254.51,2.5,1.046,2.754,1.188,5.476,2.444c7.315,3.354,14.661,6.713,21.771,10.487a181.406,181.406,0,0,1,17.33,10.4q1.626,1.112,3.22,2.267.695.5,1.381,1.018l.7.527.289.22c.339.26-.335-.26-.007,0,1.618,1.261,3.2,2.567,4.7,3.973a66.013,66.013,0,0,1,12.072,15.987c3.03,5.39,5.91,10.852,8.467,16.483.861,1.894,1.721,3.789,2.623,5.664a2.825,2.825,0,0,0,3.83,1,2.86,2.86,0,0,0,1.005-3.831Z"/><path class="b" d="M5.173,292.388c1.8-3.75,3.427-7.585,5.263-11.319,1.256-2.555,2.685-5.016,4.026-7.526A81.342,81.342,0,0,1,24.368,258.4a55.728,55.728,0,0,1,6.437-6.325q1.1-.915,2.225-1.79l-.1.079c.1-.074.192-.148.288-.22.231-.175.461-.351.692-.524q.738-.554,1.483-1.1a164.871,164.871,0,0,1,15.68-10c6.953-3.938,14.173-7.317,21.4-10.717,3.619-1.7,7.245-3.39,10.918-4.97A40.318,40.318,0,0,0,87.7,221c.05.227-.7-.589-.676-.568-.265-.21.011-.309-.071-.074a1.48,1.48,0,0,0,0,.319c-.018.4,0,.807,0,1.208q-.013,15.285-.082,30.571-.063,17.484-.164,34.968-.01,1.665-.023,3.33c-.026,3.6,5.574,3.608,5.6,0q.127-17.5.175-35,.061-16.413.093-32.826c0-.829.022-1.661,0-2.489a4.941,4.941,0,0,0-3.334-4.8c-2.02-.678-3.974.392-5.807,1.151q-2.96,1.224-5.88,2.534C69.921,222.734,62.3,226.24,54.9,230.079a184.765,184.765,0,0,0-18.6,10.988,101.175,101.175,0,0,0-11.12,8.483,69.082,69.082,0,0,0-13.376,17.194c-3.152,5.52-6.122,11.156-8.751,16.943-.893,1.964-1.783,3.93-2.718,5.875a2.875,2.875,0,0,0,1.005,3.831,2.825,2.825,0,0,0,3.831-1Z"/><path class="b" d="M184.771,22.422c6.63,1.2,12.49,5.575,17.1,10.3A57.664,57.664,0,0,1,212,46.732c6.614,12.761,8.639,27.358,7.955,41.58-.311,6.485-.984,13.132-3.351,19.268a2.823,2.823,0,0,0,1.956,3.445A2.863,2.863,0,0,0,222,109.069c2.192-5.685,2.939-12,3.386-18.034a103.885,103.885,0,0,0-.835-23.123c-2.1-13.965-7.894-27.5-17.539-37.907-5.455-5.888-12.668-11.515-20.754-12.983a2.878,2.878,0,0,0-3.444,1.955,2.825,2.825,0,0,0,1.955,3.445Z"/><path class="b" d="M182.561,63.163a65.326,65.326,0,0,1,13.372,18.9,67.124,67.124,0,0,1,5.732,22.045,2.875,2.875,0,0,0,2.8,2.8,2.821,2.821,0,0,0,2.8-2.8,75.2,75.2,0,0,0-6.337-24.524A69.651,69.651,0,0,0,186.521,59.2c-2.561-2.541-6.523,1.416-3.96,3.96Z"/><path class="b" d="M169.039,52.947a47.131,47.131,0,0,1-12.209,10.4,66.586,66.586,0,0,1-22.716,8.967,2.829,2.829,0,0,0-1.956,3.445,2.858,2.858,0,0,0,3.445,1.955,69.83,69.83,0,0,0,33.039-16.28A38.389,38.389,0,0,0,173,56.907a2.886,2.886,0,0,0,0-3.96,2.82,2.82,0,0,0-3.96,0Z"/><path class="b" d="M87.315,82.018A41.962,41.962,0,0,0,80.2,91.913c-1,1.922-2.024,3.852-2.879,5.845-.892,2.081-1.621,4.221-2.466,6.32a2.819,2.819,0,0,0,1.956,3.444,2.868,2.868,0,0,0,3.444-1.956c.683-1.7,1.274-3.5,1.972-5.147.822-1.939,1.834-3.813,2.808-5.68a35.514,35.514,0,0,1,6.241-8.761c2.509-2.59-1.446-6.554-3.96-3.96Z"/><path class="b" d="M135.5,47.846A56.228,56.228,0,0,1,121.343,67.62a40.15,40.15,0,0,1-10.807,6.214,78.211,78.211,0,0,1-11.061,3.877,115.788,115.788,0,0,1-15.283,2.773,2.887,2.887,0,0,0-2.8,2.8c0,1.375,1.288,2.98,2.8,2.8,9.3-1.109,18.319-2.911,27-6.5,4.368-1.807,8.7-3.727,12.452-6.645a51.322,51.322,0,0,0,9.281-9.737,62.862,62.862,0,0,0,7.41-12.53,2.889,2.889,0,0,0-1-3.831,2.82,2.82,0,0,0-3.831,1Z"/><path class="b" d="M64.755,108.849c-2.322-5.545-3.206-11.662-3.692-17.615a123.457,123.457,0,0,1-.1-19.1c.889-12.066,4.493-23.528,11.6-33.3q.456-.627.928-1.243c-.278.362.085-.108.18-.228q.3-.386.616-.767.96-1.18,1.971-2.318c2.115-2.386,4.358-4.662,6.7-6.825A87.3,87.3,0,0,1,99.788,15.236a79.511,79.511,0,0,1,18.8-7.508,65.359,65.359,0,0,1,17.433-2.147A76.546,76.546,0,0,1,154.1,7.75c5.35,1.32,10.255,3.065,14.722,6.342.171.125.5.382.942.771.469.41.916.841,1.348,1.289,2.506,2.6,6.463-1.363,3.96-3.96-3.939-4.085-9.258-6.626-14.568-8.417A76.6,76.6,0,0,0,141.32.179a79.1,79.1,0,0,0-38.888,7.439A91.632,91.632,0,0,0,70.321,32.632,66.753,66.753,0,0,0,56.142,65.187a112.405,112.405,0,0,0-.99,20.824,85.718,85.718,0,0,0,2.8,20.3,36.545,36.545,0,0,0,1.4,4.031,2.9,2.9,0,0,0,3.445,1.956c1.314-.362,2.543-2.041,1.955-3.445Z"/><path class="b" d="M202.084,148.444a41.532,41.532,0,0,1-3.237,13.7c.356-.9.017-.053-.08.164-.14.31-.285.618-.432.924-.339.707-.7,1.405-1.062,2.1-.837,1.58-1.733,3.129-2.667,4.653A80.952,80.952,0,0,1,176.715,191.1a33.825,33.825,0,0,1-13.205,6.844c-3.508.82-2.023,6.221,1.489,5.4,9.99-2.335,18.3-9.687,24.805-17.282a88.7,88.7,0,0,0,13.863-21.069,45.023,45.023,0,0,0,4.017-16.547c.107-3.6-5.493-3.6-5.6,0Z"/><path class="b" d="M71.517,147.384a82.843,82.843,0,0,0,10.255,28.909c5.831,9.674,14.293,18.451,24.314,23.8a46.47,46.47,0,0,0,17.168,5.247,2.817,2.817,0,0,0,2.8-2.8,2.863,2.863,0,0,0-2.8-2.8c-9.629-1-18.432-5.953-25.439-12.53a65.962,65.962,0,0,1-17.253-26.757A92.626,92.626,0,0,1,76.917,145.9a2.822,2.822,0,0,0-3.444-1.956,2.865,2.865,0,0,0-1.956,3.444Z"/><path class="b" d="M209.634,116.128a7.39,7.39,0,0,1,8.4-.69c3.172,1.864,3.461,5.538,3.543,8.891.193,7.85-2.012,16.3-6.8,22.623a16.131,16.131,0,0,1-10.227,6.421,2.822,2.822,0,0,0-1.956,3.444,2.865,2.865,0,0,0,3.444,1.956c10.284-1.731,16.384-11.453,19.234-20.692a43.18,43.18,0,0,0,1.867-14.867c-.265-5.061-1.637-9.905-6.275-12.611a13.15,13.15,0,0,0-15.187,1.565,2.825,2.825,0,0,0,0,3.96,2.855,2.855,0,0,0,3.959,0Z"/><path class="b" d="M74.108,112.168a13.079,13.079,0,0,0-13.326-2.441,12.7,12.7,0,0,0-5.636,4.324,14.94,14.94,0,0,0-2.363,7.392c-1.017,9.576,1.566,20.347,7.267,28.169,3.34,4.583,7.991,8.2,13.7,9.161a2.883,2.883,0,0,0,3.444-1.956,2.823,2.823,0,0,0-1.955-3.444c-7.814-1.315-12.382-8.291-14.831-15.287a38.544,38.544,0,0,1-2.2-11.972c-.068-3.382-.182-7.822,2.735-10.137a7.406,7.406,0,0,1,9.214.151,2.87,2.87,0,0,0,3.959,0,2.825,2.825,0,0,0,0-3.96Z"/><path class="b" d="M127.3,168.923A26.813,26.813,0,0,0,140.21,171.9c4.562-.03,9.242-.9,12.9-3.753,1.194-.93.977-2.983,0-3.959a2.87,2.87,0,0,0-3.959,0c.809-.631.042-.052-.165.08-.265.171-.539.328-.818.474-.165.087-1.079.491-.453.238-.371.15-.747.288-1.129.41a20.65,20.65,0,0,1-6.806.91,21.549,21.549,0,0,1-6.5-.875c-.414-.124-.817-.271-1.225-.412-.133-.046-.262-.1-.395-.153.686.254.085.037-.045-.024-.507-.237-1-.487-1.5-.748a2.861,2.861,0,0,0-3.831,1,2.831,2.831,0,0,0,1,3.831Z"/><path class="b" d="M139.078,138.125a62.124,62.124,0,0,1,1.461,6.688l-.1-.745a4.016,4.016,0,0,1,.025.923l.1-.744a2.264,2.264,0,0,1-.1.415l.282-.669a1.685,1.685,0,0,1-.146.267l.437-.567a1.392,1.392,0,0,1-.218.216l.567-.438a4.47,4.47,0,0,1-.53.28l.669-.282a3.824,3.824,0,0,1-.893.26l.744-.1a3.506,3.506,0,0,1-.838,0l.745.1c-.316-.044-.626-.121-.942-.163a3.091,3.091,0,0,0-2.158.282,2.8,2.8,0,0,0-1,3.831,2.68,2.68,0,0,0,1.673,1.287c.663.089,1.307.26,1.981.289a6.224,6.224,0,0,0,2.849-.667,3.978,3.978,0,0,0,2.245-2.637,6.869,6.869,0,0,0-.032-2.911c-.364-2.154-.862-4.289-1.417-6.4a2.8,2.8,0,0,0-5.4,1.489Z"/><path class="b" d="M161.455,162.99l.057.074-.437-.567a26.226,26.226,0,0,1,3.336,5.737,2.8,2.8,0,0,0,1.673,1.287,2.863,2.863,0,0,0,2.158-.283,2.825,2.825,0,0,0,1.287-1.673l.1-.744a2.787,2.787,0,0,0-.383-1.414,28.548,28.548,0,0,0-3.831-6.377,2.794,2.794,0,0,0-1.98-.82,2.85,2.85,0,0,0-1.98.82,2.82,2.82,0,0,0-.82,1.98l.1.745a2.8,2.8,0,0,0,.72,1.235Z"/><path class="b" d="M107.987,128.658c.57-.312,1.152-.6,1.75-.852l-.765.323a19.763,19.763,0,0,1,4.947-1.261l-.851.114c.881-.115,1.765-.2,2.649-.286a3.45,3.45,0,0,0,2.263-.938,3.2,3.2,0,0,0,0-4.525,3.118,3.118,0,0,0-2.263-.937,45.25,45.25,0,0,0-5.647.774,20.483,20.483,0,0,0-5.313,2.062,3.23,3.23,0,0,0-1.148,4.378,3.266,3.266,0,0,0,4.378,1.148Z"/><path class="b" d="M164.96,125.873l.088-.014-.85.114a9.854,9.854,0,0,1,2.509.083l-.85-.114a18.073,18.073,0,0,1,4.6,1.345l-.765-.322c.724.31,1.406.687,2.1,1.049a3.2,3.2,0,0,0,3.23-5.527c-3.62-1.877-7.612-3.448-11.767-2.785a3.2,3.2,0,0,0-1.912,1.47,3.2,3.2,0,0,0,1.148,4.379,3.686,3.686,0,0,0,2.465.322Z"/></svg>