<?xml version="1.0" encoding="utf-8"?>
<!-- Uploaded to: SVG Repo, www.svgrepo.com, Generator: SVG Repo Mixer Tools -->
<svg width="800px" height="800px" viewBox="0 -21.69 348.496 348.496" xmlns="http://www.w3.org/2000/svg"><defs><style>.a{fill:#a0a0a0;}.b{fill:#ffffff;}.c{fill:#211715;}.d{fill:#89705d;}.e{fill:#645d5c;}.f{fill:none;}.g{fill:#79c6e0;}</style></defs><path class="a" d="M264.871,243.081c.319-.056.6-.118.847-.184l.424-.062c-.144-2.985-.285-6.5-.2-8.938l-.727-8.589c.933-12.919-1.5-30.364-6.248-42.463-1.7-4.323-3.713-9.45-3.961-14.088-.427-7.961,1.116-16.844,2.712-25.085l-2.6-.141c-1.855,7.959-5.292,21-3.677,29.014,3.541,17.574,7.1,52.441,3.417,69.984C256.769,243.621,262.089,243.571,264.871,243.081Z"/><path class="a" d="M330.49,130.988c.922,2.678,1.745,5.281,2.262,7.165,5.86,21.28,8.1,33.7,9.01,50.79.92,17.45,1.36,39.88,1.48,64.95-1.2.07-2.53.12-3.96.15-5.79.11-13.12-.13-19.63-.47-1-.049-1.958-.1-2.9-.159-.181-1.917-.363-3.907-.544-5.946l-1.53.318c-.846.184-6.153,1.5-8.194,1.722-6.358.685-17.011,1.364-22.609.92a2.347,2.347,0,0,1-2.009-2.211c-2.6-16.876-14.065-68.024-15.428-78.779-.974-7.681,2.878-19.382,5.15-27.264,2.412-8.367,2.878-14.4,4.544-17.425,6.239-11.344,12.825-19.121,18.733-30.481l8.854,4.335c5.83,3.76,8.92,7.02,13.35,10.39,3.09,2.35,7.04,7.8,8.87,10.79A78.52,78.52,0,0,1,330.49,130.988Z"/><path class="b" d="M341.282,254.043c.06.78.15,1.55.26,2.33a205.783,205.783,0,0,1,4.97,30.73,3.307,3.307,0,0,1-.24,1.92c-.74,1.32-3,1.19-4.1.09a4.624,4.624,0,0,1-1.39-2.51c-.04-.14-.09-.28-.14-.44,0,0-.051,0-.135,0,.282,2.819.4,5.66.407,8.437a8.791,8.791,0,0,1-.374,3.024,3.455,3.455,0,0,1-2.507,1.926,2.253,2.253,0,0,1-2.388-1.264l-.193-.215a9.967,9.967,0,0,1-.095,1.309,4.589,4.589,0,0,1-1.415,2.846,2.826,2.826,0,0,1-3.264.621,4.938,4.938,0,0,1-2-3.582c-.1-.763-.2-1.707-.3-2.765l-.809.947c-.965,1.268-3.405.629-4.418-.6a7.05,7.05,0,0,1-1.267-4.261c-.326-4.325-.5-7.956-.551-11.6l-1.389.734a3.116,3.116,0,0,1-4.32-.2,6.078,6.078,0,0,1-.72-3.91,45.457,45.457,0,0,1,1.19-10.35,46.137,46.137,0,0,1,2.69-6.85q1.335-2.925,2.67-5.87c.06-.32.12-.64.19-.97l20.151.731"/><path class="b" d="M269.961,191.676c-1.744-10.214-3.073-18.707-3.52-22.238-.974-7.681,2.878-19.382,5.15-27.264,2.412-8.367,2.878-14.4,4.544-17.425,2.737-4.976,5.541-9.266,8.324-13.473l-.758.814c-3.809,4.086-11.379,7.06-13.76,5.436-3.877-2.644-4.277-8.633-3.74-12.556-1.145,1.2-2.287,2.354-2.26,3.26-.651,3.121-3.475,12.706-5.757,21.294l2.047.381c-1.561,11.05-5.908,26.128-5.226,38.852.248,4.638,2.262,9.765,3.961,14.088,4.753,12.1,7.181,29.544,6.248,42.463a68.368,68.368,0,0,0,11.586,2.977C274.441,217.014,271.935,203.242,269.961,191.676Z"/><path class="b" d="M282.524,113.168c-4.273,3.4-10.421,5.833-12.583,4.358-4.316-2.943-3.919-9.869-3.595-13.831l3.372-1.909a108.846,108.846,0,0,0-4.1-12.094,1.825,1.825,0,0,0-2.248-.885c-3.6,1.321-9.327,1.277-13.617.126a10.531,10.531,0,0,1-6.24-4.811c-2.2-3.4-3.647-10-4.067-12.951a8.4,8.4,0,0,0-2.222-3.394c-1.6-1.445-4.058-2.462-3.1-5.3a5.117,5.117,0,0,1,2.121-2.545c4.78-3.161,4.317-10.8,3.994-16.3a41.989,41.989,0,0,1-.361-7.772,45.3,45.3,0,0,1,1.312-8.1l.257.267A91.715,91.715,0,0,0,257.715,41.1c3.144,1.856,13.418,7.78,18.938,8.857l2.078.406a7.631,7.631,0,0,1,2.759-2.5,4.884,4.884,0,0,1,4.349-.124c2.024,1.038,2.785,3.565,2.85,5.84A16.323,16.323,0,0,1,280.9,67.732c1.765,4.119,3.6,8.323,3.982,12.734a14.729,14.729,0,0,1-2.391,9.774c-1.171,1.645,4.879,3.254,7.693,3.651a22.83,22.83,0,0,0,4.785.137c-.065.15-.1.24-.1.24a182,182,0,0,1-10.408,17.007l-.759.815A10.762,10.762,0,0,1,282.524,113.168Z"/><path class="c" d="M339.282,254.043a94.311,94.311,0,0,0,2,10.438q1.068,5.351,1.87,10.75c.509,3.428.931,6.87,1.23,10.322a8.811,8.811,0,0,1,.157,2.34c-.058.259.19,0,.139.029a.949.949,0,0,1-.394.066,1.573,1.573,0,0,1-1.115-.746,2.858,2.858,0,0,1-.33-.711c-.068-.182-.2-1.065-.2-.388,0-2.573-4-2.578-4,0a6.809,6.809,0,0,0,2.335,4.579,5.138,5.138,0,0,0,5.028.956c2.346-.88,2.624-3.142,2.447-5.344-.163-2.03-.374-4.056-.617-6.078q-.813-6.751-2.042-13.445-.577-3.15-1.247-6.281a51.565,51.565,0,0,1-1.264-6.487c-.216-2.546-4.218-2.569-4,0Z"/><path class="c" d="M337.373,279.153a64.943,64.943,0,0,1,1.445,11.345,30.153,30.153,0,0,1,.04,5.636,1.434,1.434,0,0,1-.72,1.268c-.39.219-.537.28-.766-.126-1.265-2.242-4.721-.228-3.454,2.019a4.428,4.428,0,0,0,6.239,1.561c2.544-1.441,2.775-4.192,2.754-6.838a75.385,75.385,0,0,0-1.681-15.929c-.565-2.51-4.423-1.448-3.857,1.064Z"/><path class="c" d="M331.515,279.11c.416,3.886.9,7.764,1.306,11.651.219,2.075.537,4.162.623,6.247.053,1.279.163,3.236-1.162,3.981-1.758.989-1.9-4.459-1.986-5.371-.26-2.933-.46-5.87-.662-8.807-.154-2.256-.236-4.534-.511-6.78a2.063,2.063,0,0,0-2-2,2.012,2.012,0,0,0-2,2c.692,5.643.749,11.371,1.307,17.03a15.263,15.263,0,0,0,.939,4.8,4.931,4.931,0,0,0,4.853,3.246,5.77,5.77,0,0,0,4.636-3.682c.861-2.081.638-4.485.4-6.669-.578-5.214-1.181-10.425-1.74-15.641a2.059,2.059,0,0,0-2-2,2.013,2.013,0,0,0-2,2Z"/><path class="c" d="M319.479,269.551c-.213,6.573-.229,13.136.174,19.7.184,2.988-.024,6.608,2.082,9.006,1.732,1.972,5.337,2.709,7.246.6,1.724-1.9-1.1-4.742-2.829-2.829-.221.245-.221.115-.018.092a.935.935,0,0,1-.342,0,2.921,2.921,0,0,1-.98-.422,3.686,3.686,0,0,1-.865-2.341c-.3-2.676-.389-5.4-.5-8.088-.212-5.242-.14-10.486.03-15.728.084-2.575-3.916-2.572-4,0Z"/><path class="c" d="M319.713,253.042c-.066.323-.132.647-.2.97a2.027,2.027,0,0,0,1.929,2.531h.01l-1.727-3.009c-1.436,3.162-2.943,6.3-4.268,9.511a32.855,32.855,0,0,0-2.3,9.821c-.143,1.646-.211,3.3-.264,4.951a8.17,8.17,0,0,0,.785,4.376,5.026,5.026,0,0,0,7.272,1.257,2.059,2.059,0,0,0,.718-2.736,2.016,2.016,0,0,0-2.737-.717c-.42.306-1.164.773-1.684.353-.568-.457-.374-1.915-.354-2.533a54.184,54.184,0,0,1,.611-7.71c.911-5.134,3.538-9.851,5.674-14.554a2.027,2.027,0,0,0-1.727-3.01h-.01l1.928,2.532c.068-.323.134-.646.2-.97.518-2.512-3.337-3.587-3.857-1.063Z"/><path class="b" d="M53.469,100.877c-7.991-3.312-17.825-6.762-23.974-9.766a19.136,19.136,0,0,0-.979-8.577l.542-.209c6.464-2.489,14.856-8.369,17.588-14.4a16.841,16.841,0,0,1-6.5-12.242c-.119-2.341.456-5,2.451-6.23a5.028,5.028,0,0,1,4.476-.227,7.771,7.771,0,0,1,2.884,2.157c5.948.308,11-3.679,14.02-8.557q.532-.859,1-1.754l.248-.141c4.264-2.061,11.514-10.195,18.371-17.051.146-.146,1.172-1.236,2.483-2.634a22.307,22.307,0,0,1,1.82,7.067c1.309,3.858,1.112,9.043,1.2,13.208.118,5.677.264,13.556,5.432,16.413a5.272,5.272,0,0,1,2.386,2.441c1.217,2.838-1.224,4.083-2.75,5.7a8.662,8.662,0,0,0-2,3.667c-.19,3.069-1.133,9.958-3.121,13.632a10.845,10.845,0,0,1-6.016,5.45A26.914,26.914,0,0,1,69.7,89.97a1.879,1.879,0,0,0-2.168,1.072c-1.763,4.184-4.922,10.493-5.645,12.451l-.4,1.073C59.286,103.378,56.511,102.137,53.469,100.877Z"/><path class="b" d="M211.836,208.306c-.632.2-8.391,3.4-8.974,3.71-.849.456-2.146,2.229-3.61,3.187L198,216.02a2.066,2.066,0,0,1-.964,1.911,6.518,6.518,0,0,1-2.623,1.136,13.113,13.113,0,0,1-2.324,5.052c-.939,1.16-2.636,1.478-3.935,1.859-1.514,2.164-5.117,5.29-8.294,5.263-2.756,1.758-7.1,2.636-9.6,1.843A87.223,87.223,0,0,1,161.7,228.3c-3.938-2.8-5.81-5.2-8.33-7.276a11.858,11.858,0,0,0-3.939-2.569c-8.45-3.226-34.654-12.606-38.245-14.162l4.771-26.129c-.348-.11,28.779,14.541,38.411,18.97,3.383,1.556,6.17,1.881,6.878,1.624,1.865-.677,4.468-1.969,6.362-2.272.961-.154,3.257-.5,4.165-.151l1.073.416c1.795-1.786,3.619-3.229,5.155-3.681,3.929-1.4,9.71-1.241,14.3-.706,2.568.3,11.2-2.186,12.951-2.84Z"/><path class="c" d="M110.176,206.019c3.59,1.544,7.306,2.817,10.972,4.164q8.507,3.126,17.024,6.225,3.715,1.361,7.427,2.734a18.546,18.546,0,0,1,6.13,3.1c2.636,2.3,5.052,4.831,7.84,6.959a52.165,52.165,0,0,0,6.459,3.97,25.74,25.74,0,0,0,3.521,1.776,9.964,9.964,0,0,0,4.608.31c3.51-.441,7.515-1.871,9.51-4.985,1.393-2.174-2.068-4.182-3.454-2.018-1.29,2.012-4.7,2.946-6.979,3.1a8.336,8.336,0,0,1-1.718-.02,6.239,6.239,0,0,1-.762-.19c.182.051.273.135-.119-.058-1.045-.514-2.066-1.073-3.081-1.642a46.163,46.163,0,0,1-6.08-3.788c-2.516-1.98-4.732-4.322-7.133-6.436a21.05,21.05,0,0,0-6.955-3.661q-3.391-1.266-6.792-2.507-8.254-3.025-16.515-6.037-3.852-1.412-7.7-2.842c-.947-.355-1.893-.711-2.837-1.075-.334-.129-.669-.259-1-.392-.133-.053-.265-.108-.4-.16-.435-.169.156.068.05.023a2.066,2.066,0,0,0-2.736.717,2.014,2.014,0,0,0,.717,2.737Z"/><path class="c" d="M180.142,233.235a10.609,10.609,0,0,0,5.27-1.917,16.982,16.982,0,0,0,3.814-3.462,2.173,2.173,0,0,0,.586-1.414,2,2,0,0,0-3.414-1.414,14.874,14.874,0,0,1-1.412,1.536c-.27.257-.55.5-.837.742-.077.064-.156.125-.233.189-.19.156.357-.263.07-.054-.164.119-.326.24-.493.355a14.909,14.909,0,0,1-1.984,1.115c.56-.272-.014,0-.17.049-.179.06-.36.115-.543.162-.161.041-.323.076-.487.1-.342.06.047.025.154-.017a1.188,1.188,0,0,1-.321.025,2,2,0,0,0,0,4Z"/><path class="c" d="M177.864,227.942a29.113,29.113,0,0,0,11.413-.205,7.848,7.848,0,0,0,4.4-2.42,14.556,14.556,0,0,0,2.445-4.905c.751-2.468-3.109-3.523-3.857-1.064a9.874,9.874,0,0,1-1.586,3.357c-.68.84-1.95,1.071-3.047,1.314a24.487,24.487,0,0,1-8.7.066,2.067,2.067,0,0,0-2.461,1.4,2.015,2.015,0,0,0,1.4,2.46Z"/><path class="c" d="M179.711,219.636c3.3,1.169,7.143,1.2,10.6,1.358,1.11.05,2.226.112,3.338.109,2.252,0,5.2-1.2,6.058-3.448a5.406,5.406,0,0,0-2.264-6.179,11.7,11.7,0,0,0-3.978-1.5c-2.908-.785-5.791-1.677-8.657-2.6-1.712-.551-3.419-1.117-5.107-1.736q-.546-.2-1.088-.41c-.134-.052-1.068-.442-.59-.232a8.37,8.37,0,0,1-1.2-.6c-2.169-1.4-4.176,2.06-2.019,3.454a28.38,28.38,0,0,0,6.25,2.5c2.836.962,5.7,1.854,8.57,2.7,1.058.311,2.119.619,3.186.9,1,.262,2.224.388,2.892,1.279a2.358,2.358,0,0,1,.31.8c.015.047-.026.136-.028.184-.019.343.148-.111.04-.011a3.714,3.714,0,0,1-2.346.9c-.967,0-1.939-.05-2.905-.09-3.3-.136-6.878-.126-10-1.235-2.431-.861-3.477,3-1.064,3.857Z"/><path class="c" d="M116.488,176.235h0a2.018,2.018,0,0,0-1.945,3.343,5.486,5.486,0,0,0,1.611.94q1.691.861,3.384,1.712,5.561,2.8,11.134,5.573c7.661,3.812,15.288,7.814,23.127,11.254,2.538,1.114,5.882,2.459,8.629,1.384a39.774,39.774,0,0,1,5.059-1.891,8.041,8.041,0,0,1,3.757-.287c2.469.748,3.525-3.112,1.064-3.857-2.616-.792-5.98.182-8.421,1.147-.614.243-1.222.5-1.833.752-.337.137-.689.255-1.019.406-.143.066-.743.181-.166.117a8.774,8.774,0,0,1-3.467-.645c-3.677-1.183-7.194-3.215-10.659-4.9q-11.943-5.818-23.8-11.808-2.12-1.065-4.234-2.138c-.42-.213-.841-.425-1.259-.642s-.576-.508-.076.058l-1.946,3.342h0a2.056,2.056,0,0,0,2.46-1.4,2.016,2.016,0,0,0-1.4-2.46Z"/><path class="c" d="M204.716,187.6a59.811,59.811,0,0,1-9.408,2.493,15.466,15.466,0,0,1-4.58.112,44.432,44.432,0,0,0-7.89-.095,18.886,18.886,0,0,0-6.818,1.631,20.329,20.329,0,0,0-5.232,4.254,47.857,47.857,0,0,0-4.873,5.783,5.585,5.585,0,0,0-.458,6.252,5.66,5.66,0,0,0,6.53,2.377c3-.756,4.867-3.219,7.1-5.151,1.95-1.687-.889-4.5-2.829-2.828-1.524,1.318-2.889,3.272-4.84,3.974-1.067.384-2.564.421-2.754-.948-.186-1.339,1.993-3.3,2.827-4.273a39.9,39.9,0,0,1,4.317-4.452c2.944-2.523,6.823-2.778,10.565-2.748,2.091.017,4.152.336,6.234.41a18.244,18.244,0,0,0,4.046-.5,60.468,60.468,0,0,0,9.126-2.439c2.4-.876,1.363-4.744-1.063-3.857Z"/><path class="c" d="M200.262,216.93a17.354,17.354,0,0,0,2.57-2.226c.31-.313.627-.615.948-.916.173-.142.14-.118-.1.072a2.114,2.114,0,0,1,.188-.117c.035-.014.069-.033.1-.05.316-.161.652-.29.978-.429.168-.073,1.012-.436.381-.163.3-.128.592-.249.888-.373,2.025-.846,4.057-1.821,6.148-2.494a2,2,0,1,0-1.063-3.857c-1.532.493-3.02,1.2-4.506,1.812q-1.659.685-3.314,1.385c-.534.227-1.1.427-1.613.7a8.3,8.3,0,0,0-1.805,1.531c-.313.317-.625.635-.95.94-.168.157-.339.309-.512.459-.006,0-.254.207-.1.087s-.27.185-.261.18a2,2,0,1,0,2.019,3.454Z"/><path class="d" d="M273.891,2.138a40.422,40.422,0,0,1,35.869,16.6,33.952,33.952,0,0,1,6.458,18.9c-.048.926-.082,1.677-.082,1.677-.127,2.831-.234,6.767-.255,10.855-1,15.537,1.259,24.323,2.42,28.585a26.935,26.935,0,0,1,1.082,9.307c-.316,5.5-7.426,12.022-19.457,7.49l-4.144-1.56a20.783,20.783,0,0,1-5.6-.1c-2.814-.4-8.864-2.006-7.693-3.651a14.729,14.729,0,0,0,2.391-9.774c-.381-4.411-2.217-8.615-3.982-12.734a16.323,16.323,0,0,0,7.787-14.158c-.065-2.275-.826-4.8-2.85-5.84a4.884,4.884,0,0,0-4.349.124,7.631,7.631,0,0,0-2.759,2.5l-2.078-.406c-5.52-1.077-15.794-7-18.938-8.857a91.715,91.715,0,0,1-16.269-13.07l-.257-.266a38.827,38.827,0,0,1,1.44-4.508A31.771,31.771,0,0,1,260.347,5.139a46,46,0,0,1,7.209-2.007,62.9,62.9,0,0,1,6.222-1.013Z"/><path class="e" d="M6.627,70.3A19.447,19.447,0,0,0,3.667,81a75.388,75.388,0,0,0,.86,12.28c.58,4.11-.26,9.85-2.5,13.26a34.062,34.062,0,0,0,12.2-.89,31.336,31.336,0,0,0,5.43-2.05l3.274-1.157a44.185,44.185,0,0,1,2.734-4.516c1.641-2.377,1.8-6.329,3.9-7.888a17.356,17.356,0,0,0-1.518-8.581c-1.245-1.9-3.408-4.268-4.649-5.937A62.637,62.637,0,0,1,16.8,64.6l-2.224.113a11.8,11.8,0,0,0-4.97,2.38A13.939,13.939,0,0,0,6.627,70.3Z"/><path class="e" d="M12.326,39.979c1.2-14.27,8.816-23.234,14.944-27.227C37.558,6.046,49.663,2.96,61.75,5.132c7.644,1.374,18.935,5.5,23.837,15.094C81.1,30,70.1,38.57,65.219,40.93L65,41.013q-.474.926-1.023,1.812C60.956,47.7,55.9,51.69,49.955,51.382a7.771,7.771,0,0,0-2.884-2.157,5.028,5.028,0,0,0-4.476.227c-1.995,1.231-2.57,3.889-2.451,6.23a16.841,16.841,0,0,0,6.5,12.242c-2.79,6.162-11.488,12.166-18,14.555-.987-1.992-3.771-4.975-5.249-6.963C16.164,65.79,12.942,56.579,12.318,47.831A48.7,48.7,0,0,1,12.326,39.979Z"/><path class="c" d="M63.814,104.025c.24-.633.617-1.447,1.017-2.313.632-1.37,1.279-2.734,1.918-4.1.625-1.336,1.246-2.675,1.843-4.023.167-.376.408-1.439.716-1.684-.019.016-.748.055.2.066a15.621,15.621,0,0,1,1.6.239,28.452,28.452,0,0,0,9.787-.685,14.265,14.265,0,0,0,7.906-4.3c3.777-4.391,4.737-10.715,5.266-16.3a5.613,5.613,0,0,1,1.249-3.141c.874-1.084,2.061-1.847,2.894-2.977,1.976-2.68.789-6.088-1.7-7.952a11.23,11.23,0,0,1-3.065-2.581,11.687,11.687,0,0,1-1.559-3.859,42,42,0,0,1-.788-8.892c-.053-2.57-4.053-2.579-4,0,.109,5.251.137,11.336,3.551,15.664a10.654,10.654,0,0,0,2.872,2.476c.874.537,2.147,1.522,1.557,2.665-.44.853-1.454,1.452-2.122,2.124a10.452,10.452,0,0,0-2.612,4.391,22.914,22.914,0,0,0-.433,3.5c-.174,1.395-.415,2.783-.709,4.157a18.489,18.489,0,0,1-2.981,7.6c-1.8,2.333-4.407,3.181-7.193,3.748a26.436,26.436,0,0,1-4.818.52c-1.657.027-3.212-.365-4.842-.436a3.993,3.993,0,0,0-3.814,2.7c-.669,1.554-1.38,3.09-2.1,4.623-1.189,2.55-2.5,5.076-3.5,7.709a2.016,2.016,0,0,0,1.4,2.46,2.043,2.043,0,0,0,2.46-1.4Z"/><path class="c" d="M52.312,51.171c-2.328-3.144-6.193-5.554-10.139-3.746-3.161,1.448-4.213,5.188-4.02,8.407A18.814,18.814,0,0,0,48.847,71.579a2.059,2.059,0,0,0,2.736-.717,2.017,2.017,0,0,0-.717-2.737,15.049,15.049,0,0,1-8.514-10.739c-.356-1.79-.539-4.37.8-5.827,1.772-1.92,4.53.049,5.7,1.631a2.061,2.061,0,0,0,2.736.718,2.016,2.016,0,0,0,.718-2.737Z"/><path class="c" d="M90.012,71.492a18.8,18.8,0,0,1-2.685-.1l.531.072a4.748,4.748,0,0,1-1.162-.285l.478.2a2.673,2.673,0,0,1-.55-.313,2.014,2.014,0,0,0-1.541-.2,2,2,0,0,0-1.4,2.461l.2.477a2.008,2.008,0,0,0,.718.718,4.475,4.475,0,0,0,1.056.527,4.347,4.347,0,0,0,.861.232,18.857,18.857,0,0,0,3.489.213,2.073,2.073,0,0,0,1.415-.586,2,2,0,0,0-1.415-3.414Z"/><path class="c" d="M84.146,49.124c.565,1.632.437,5.452-2.522,5.912-3.934.156-4.369-4.435-3.152-6.659C79.469,46.556,82.619,45.673,84.146,49.124Z"/><path class="c" d="M31.5,91.092a20.651,20.651,0,0,0-1.721-10.648,2.011,2.011,0,0,0-2.737-.718,2.054,2.054,0,0,0-.717,2.737c.091.189.174.381.26.572s-.211-.522-.106-.252c.022.058.046.116.069.174.054.137.1.275.155.414a15.656,15.656,0,0,1,.55,1.96c.085.4.151.8.212,1.2.038.252-.053-.451-.012-.072.015.138.03.274.044.412q.033.358.056.719a24.931,24.931,0,0,1-.053,3.5,2.008,2.008,0,0,0,2,2,2.05,2.05,0,0,0,2-2Z"/><path class="c" d="M44.3,68.115a25.228,25.228,0,0,1-6.825,7.194A39.826,39.826,0,0,1,28.526,80.4a2.058,2.058,0,0,0-1.4,2.46,2.013,2.013,0,0,0,2.46,1.4A42.442,42.442,0,0,0,39.714,78.6a29.822,29.822,0,0,0,8.042-8.466c1.3-2.226-2.152-4.241-3.454-2.019Z"/><path class="c" d="M89.889,28.277C87.747,7.308,62.787-.084,44.973,3.333a52.46,52.46,0,0,0-17.6,6.987A33.1,33.1,0,0,0,19.027,17.6c-6.581,8.117-9.337,18.553-8.8,28.906a51,51,0,0,0,4.629,18.67,61.2,61.2,0,0,0,5.381,9.359c1.9,2.741,4.223,5.165,6.08,7.929,1.428,2.125,4.895.126,3.454-2.019-1.5-2.23-3.361-4.174-4.945-6.337a65.939,65.939,0,0,1-4.986-7.868,48.042,48.042,0,0,1-5.192-15.318c-1.47-9.544.064-19.763,5.365-27.936C24.787,15.632,32.352,11.17,40.657,8.553a43.58,43.58,0,0,1,28.58.719c8.423,3.187,15.693,9.611,16.652,19.005a2.058,2.058,0,0,0,2,2,2.013,2.013,0,0,0,2-2Z"/><path class="c" d="M91.093,41.52c-.085-4.246.092-8.589-.967-12.739a2,2,0,1,0-3.857,1.063q.186.726.319,1.463c.043.235.079.471.117.707s.039.273.013.085c.017.139.034.277.049.416.111.988.176,1.981.218,2.975.084,2.009.068,4.02.108,6.03a2,2,0,0,0,4,0Z"/><path class="f" d="M80.447,29.146c-1.761-.361-6.5,1.573-7.967,2.613a19.777,19.777,0,0,0-3.751,3.854l-7.945,9.808"/><path class="c" d="M14.046,62.787C5.651,64.488,1.81,73.241,1.667,81a68.634,68.634,0,0,0,.254,7.1c.187,2.194.608,4.372.745,6.568A18.465,18.465,0,0,1,.3,105.526a2.022,2.022,0,0,0,1.727,3.009,35.327,35.327,0,0,0,18.64-3.213c2.318-1.116.292-4.566-2.019-3.454a31.459,31.459,0,0,1-16.621,2.667l1.727,3.01A21.613,21.613,0,0,0,6.687,96.887a37.332,37.332,0,0,0-.475-5.969c-.264-2.191-.444-4.394-.517-6.6-.123-3.722-.087-7.61,1.544-11.047a11.575,11.575,0,0,1,7.87-6.627c2.521-.511,1.454-4.367-1.063-3.857Z"/><path class="c" d="M81.863,22.869a49.091,49.091,0,0,1-9.217,10.422A39.51,39.51,0,0,1,64.21,39.2a2.02,2.02,0,0,0-.717,2.737,2.041,2.041,0,0,0,2.736.717,43.666,43.666,0,0,0,9.246-6.538,52.755,52.755,0,0,0,9.842-11.231c1.388-2.176-2.072-4.185-3.454-2.019Z"/><path class="a" d="M255.379,141.867c-2.484,8.223-5.95,18.847-10.825,22.582-16.3,9.609-25.031,15.015-41.073,22.871a260.511,260.511,0,0,1,10.479,26.764c14.5-4.8,29.671-12.271,41.211-17.539Z"/><path class="g" d="M50.323,99.6c-7.614-3.035-16.167-6.123-21.5-8.823-1.426,1.843-1.733,5.085-3.155,7.145-10.818,15.677-11.248,37.61-8.434,60.13,1.332,10.661,8.743,23.17,6.989,33.843-1.4,8.539-5.279,18.238-.886,24.448,4.241,7.422,48.087,6.06,65.586,4.771a2.954,2.954,0,0,0,2.136-1.084,7.106,7.106,0,0,0,.68-2.142,41.727,41.727,0,0,0,.841-7.479,45.984,45.984,0,0,0-.854-5.881l-.224-3.446c1.569.8,3.125,1.527,4.691,2.177a132.089,132.089,0,0,0,13.329,6.274,55.908,55.908,0,0,0,5.406-30.154,7.391,7.391,0,0,0-1.319-4.057,7.866,7.866,0,0,0-2.577-1.782,108.085,108.085,0,0,1-11.346-6.616c-9.246-9.851-16.412-25.057-24.05-35.645l-.519-4.75-4.507-9.419c-1.839-3.844-3.038-4.239-4.086-7.689C67.021,106.707,59.329,103.19,50.323,99.6Z"/><path class="c" d="M280.044,52c.991-1.589,3.31-3.794,5.265-2.248,1.536,1.214,1.49,3.9,1.321,5.634A14.359,14.359,0,0,1,279.37,66.3c-2.247,1.255-.233,4.712,2.019,3.454a18.335,18.335,0,0,0,9.3-16.183c-.105-3.291-1.476-6.953-4.911-8.014-3.789-1.17-7.264,1.337-9.188,4.419-1.367,2.19,2.092,4.2,3.454,2.019Z"/><path class="c" d="M240.942,76.9a12.812,12.812,0,0,0,4.959-.707,7.754,7.754,0,0,0,2.905-1.744,2,2,0,0,0-2.828-2.828,3.789,3.789,0,0,1-.385.343l.4-.313a6.213,6.213,0,0,1-1.356.773l.478-.2a9.834,9.834,0,0,1-2.408.64l.532-.072a13.311,13.311,0,0,1-2.3.109,2.015,2.015,0,0,0-2,2,2.043,2.043,0,0,0,2,2Z"/><path class="c" d="M246.081,51.478c-.421,1.623,0,5.309,2.9,5.527,3.818-.152,3.887-4.627,2.538-6.686C250.41,48.634,247.293,48.022,246.081,51.478Z"/><path class="c" d="M237.957,34.7c-.3,3.8.243,7.5.407,11.285a24.64,24.64,0,0,1-.75,8.808,6.809,6.809,0,0,1-2.048,3.167c-1.39,1.144-2.656,2.036-3.3,3.809a5.03,5.03,0,0,0,.468,4.571,17.742,17.742,0,0,0,3.076,2.851c2.239,2.048,2.179,5.525,2.928,8.3a24.673,24.673,0,0,0,4.144,9.146,13.372,13.372,0,0,0,8.784,4.74,27.4,27.4,0,0,0,10.963-.249c.431-.109.853-.242,1.272-.39.2-.07.039-.049,0-.012l.052.114c.015,0-.133-.322-.086-.2.071.181.145.362.216.544.431,1.1.839,2.219,1.24,3.335a57.091,57.091,0,0,1,2.47,7.8c.512,2.521,4.369,1.454,3.857-1.063a51.153,51.153,0,0,0-2.08-6.708,44.39,44.39,0,0,0-2.163-5.728,3.877,3.877,0,0,0-3.71-2.1,16.369,16.369,0,0,0-2.471.63,16.587,16.587,0,0,1-2.418.366c-3.129.248-6.927.182-9.828-1.174-2.949-1.378-4.527-4.4-5.538-7.336a46.637,46.637,0,0,1-1.316-4.652c-.3-1.285-.41-2.647-.751-3.915a9.619,9.619,0,0,0-3.06-4.554c-.67-.561-2.194-1.337-2.39-2.251-.29-1.359,1.528-2.254,2.355-2.949a9.94,9.94,0,0,0,2.606-3.537c3.2-7.11.491-15.216,1.074-22.648.2-2.567-3.8-2.554-4,0Z"/><path class="f" d="M305.676,72.085c6.253-9.967,8.642-19.573,8.574-28.085-.037-18.384-9.357-28.325-16.667-32.3a44.019,44.019,0,0,0-33.19-3.983c-9.927,2.61-23.008,10.087-24.436,26.987"/><path class="c" d="M33.616,134.892c-2.273,15.225,7.052,29.362,17.3,39.705a140.992,140.992,0,0,0,16.8,14.388,167.171,167.171,0,0,0,19.791,12.269c3.429,1.844,6.977,3.428,10.445,5.19,3.6,1.83,7.275,3.543,11.038,5.017a2,2,0,0,0,2.258-.919,60.218,60.218,0,0,0,5.961-24.16,53.561,53.561,0,0,0-.215-6.321c-.179-1.931-.385-3.965-1.541-5.592a10.309,10.309,0,0,0-4.227-3.036c-1.37-.669-2.7-1.43-4.011-2.2-1.575-.924-3.13-1.882-4.675-2.857A8.929,8.929,0,0,1,100.623,165c-.559-.608-1.1-1.231-1.633-1.863a90.107,90.107,0,0,1-6.054-8.226C89.048,149.057,85.58,142.943,81.844,137c-3.539-5.633-7.348-11.583-12.624-15.761a2.062,2.062,0,0,0-2.828,0,2.012,2.012,0,0,0,0,2.828c4.377,3.467,7.629,8.173,10.636,12.816,3.656,5.643,6.975,11.5,10.583,17.168,1.82,2.861,3.709,5.682,5.753,8.389,1.012,1.339,2.052,2.66,3.144,3.935.5.579.989,1.169,1.523,1.713a11.708,11.708,0,0,0,2.168,1.543c2.77,1.755,5.567,3.508,8.489,5,1.216.622,2.922,1.1,3.632,2.345.843,1.48.752,3.712.835,5.354a54.988,54.988,0,0,1-5.363,26.2l2.259-.919c-3.1-1.215-6.124-2.637-9.1-4.122-2.832-1.411-5.7-2.739-8.522-4.165a164.042,164.042,0,0,1-19.666-11.628A141.622,141.622,0,0,1,56.685,174.6,80.869,80.869,0,0,1,43.55,159.018c-4.271-6.738-7.284-14.976-6.076-23.062a2.067,2.067,0,0,0-1.4-2.461,2.016,2.016,0,0,0-2.461,1.4Z"/><path class="c" d="M69.455,121.235a23,23,0,0,0-19.989-5.967c-6.105,1.135-11.781,5.08-13.823,11.1-.828,2.443,3.034,3.492,3.857,1.064,1.6-4.712,6.369-7.442,11.03-8.308a18.779,18.779,0,0,1,16.1,4.938c1.88,1.756,4.715-1.066,2.829-2.828Z"/><path class="c" d="M316.752,255.413a225.819,225.819,0,0,0,26.49.48,2.037,2.037,0,0,0,2-2c-.065-13.278-.212-26.558-.546-39.833-.274-10.848-.522-21.739-1.443-32.556a205.834,205.834,0,0,0-5.282-31.29c-2.432-9.976-5.042-20.092-9.3-29.475a31.814,31.814,0,0,0-3.283-5.374,45.071,45.071,0,0,0-5.735-6.8c-2.118-1.963-4.512-3.693-6.73-5.55a84.616,84.616,0,0,0-8.188-6.14c-2.164-1.408-4.171,2.054-2.019,3.453,4.676,3.04,8.834,6.77,13.173,10.255a30.908,30.908,0,0,1,4.946,5.318,41.988,41.988,0,0,1,3.63,5.32,70.4,70.4,0,0,1,4.508,11.495c1.7,5.072,3.053,10.253,4.368,15.438A208.073,208.073,0,0,1,339.024,179c1.031,10.526,1.289,21.142,1.583,31.709.4,14.391.565,28.789.635,43.185l2-2a225.819,225.819,0,0,1-26.49-.48c-2.571-.159-2.562,3.842,0,4Z"/><path class="c" d="M302.334,147.665l0-.007a1.987,1.987,0,0,0-1.727-.99h0a2.025,2.025,0,0,0-2,2,19.791,19.791,0,0,0,.875,4.128q1.035,4.489,2.093,8.974,2.719,11.58,5.5,23.144c.591,2.449,1.33,4.851,2,7.279.325,1.18.625,2.37.842,3.575.038.21.221,1.542.109.608.016.128.033.257.046.386.2,1.926.364,3.857.523,5.787.59,7.192,1.127,14.388,1.692,21.582.767,9.766,1.551,19.532,2.471,29.284a2.055,2.055,0,0,0,2,2,2.014,2.014,0,0,0,2-2c-1.534-16.254-2.692-32.541-4-48.814-.182-2.269-.36-4.539-.581-6.8a53.8,53.8,0,0,0-2.146-9.777c-2.284-7.866-3.929-15.96-5.808-23.932q-1.31-5.55-2.6-11.1-.391-1.692-.777-3.385c-.078-.344-.148-.689-.23-1.031s-.014-.743-.014.1l-2,2h0l-1.727-.991,0,.007a2.018,2.018,0,0,0,2.737.718,2.045,2.045,0,0,0,.717-2.737Z"/><path class="c" d="M313.012,116.553c-8.784,1.319-16.04,9.1-17.394,17.8a2.065,2.065,0,0,0,1.4,2.461,2.016,2.016,0,0,0,2.46-1.4,17.987,17.987,0,0,1,.548-2.415,16.3,16.3,0,0,1,.813-2.193,20.7,20.7,0,0,1,2.943-4.655,16.411,16.411,0,0,1,10.3-5.745,2.014,2.014,0,0,0,1.4-2.46,2.052,2.052,0,0,0-2.461-1.4Z"/><path class="c" d="M156.591,153.259c3.169,5.885,6.7,11.568,9.981,17.393,1.262,2.244,4.719.23,3.454-2.018-3.277-5.826-6.812-11.508-9.981-17.394-1.221-2.267-4.676-.25-3.454,2.019Z"/><path class="c" d="M203.153,158.591l-14.529,12.366a2.016,2.016,0,0,0,0,2.828,2.041,2.041,0,0,0,2.828,0l14.53-12.365a2.018,2.018,0,0,0,0-2.829,2.043,2.043,0,0,0-2.829,0Z"/><path class="c" d="M184.287,143.775c-2.187,8.318-4.109,16.719-6,25.109-.564,2.507,3.292,3.578,3.857,1.064,1.886-8.391,3.808-16.791,6-25.109.655-2.492-3.2-3.555-3.857-1.064Z"/><path class="c" d="M149.726,168.335c1.86,1.858,3.687,3.75,5.5,5.65a2.018,2.018,0,0,0,2.828,0,2.039,2.039,0,0,0,0-2.828c-1.816-1.9-3.642-3.792-5.5-5.65a2,2,0,1,0-2.829,2.828Z"/><path class="c" d="M76.841,125.52c-1.633-3.413-3.175-6.891-4.92-10.249-1.129-2.172-2.726-4.022-3.472-6.381v1.063c.314-2.078-.856-3.615-2.418-4.846a33.9,33.9,0,0,0-6.861-3.917c-6.427-2.97-13.111-5.361-19.691-7.964-3.258-1.289-6.518-2.6-9.65-4.176a2.067,2.067,0,0,0-2.736.718c-1.151,1.593-1.59,3.565-2.266,5.38-.688,1.85-2.037,3.436-3.01,5.147a55.475,55.475,0,0,0-4.881,11.611c-2.533,8.525-3.272,17.547-3.166,26.406.057,4.793.373,9.581.852,14.349a73.024,73.024,0,0,0,2.24,13.049c1.231,4.279,2.773,8.462,3.969,12.752,1.114,3.991,2.007,8.171,1.537,12.335-.917,8.141-5.5,17.194-1.567,25.195,1.849,3.759,5.632,5.05,9.491,5.918a99.742,99.742,0,0,0,17.071,1.936c6.675.321,13.363.341,20.043.217q8.94-.165,17.868-.7c2.97-.182,6.732.052,7.952-3.307a27.31,27.31,0,0,0,1.123-6.086,21.907,21.907,0,0,0,.067-5.385c-.2-1.539-.482-3.06-.765-4.584-.469-2.528-4.324-1.457-3.857,1.063.248,1.334.527,2.666.682,4.014a21.8,21.8,0,0,1-.174,5.279c-.109.85-.246,1.7-.406,2.542-.08.427-.163.854-.274,1.274-.086.323-.212.707-.22.714-.585.547-2.232.355-3,.405q-8.268.534-16.553.722c-6.435.157-12.878.182-19.313-.035a124.155,124.155,0,0,1-16.591-1.413,35.474,35.474,0,0,1-6.057-1.487c-.207-.074-.412-.154-.617-.234-.344-.136.284.143-.165-.075-.341-.165-.681-.328-1.007-.523-.129-.078-.253-.167-.383-.243-.438-.257.105.122-.079-.049-.216-.2-.419-.395-.615-.614.2.218.2.29.058.038-.213-.371-.468-.712-.671-1.091a9.307,9.307,0,0,1-.858-2.477,18.026,18.026,0,0,1-.1-5.622c.442-4.172,1.662-8.234,2.441-12.348,1.6-8.429-1.1-16.38-3.67-24.327a67.54,67.54,0,0,1-3-11.458c-.633-4.582-1.021-9.22-1.266-13.837a101.259,101.259,0,0,1,1.485-25.882,57.892,57.892,0,0,1,3.518-11.419,48.706,48.706,0,0,1,2.588-5.094,39.215,39.215,0,0,0,2.929-5.093c.663-1.659,1-3.472,2.062-4.941L27.81,92.5c7.592,3.82,15.747,6.489,23.61,9.68a80.477,80.477,0,0,1,9.9,4.577c.584.335,1.159.686,1.712,1.069a5.543,5.543,0,0,1,1.111.92c.115.117.517.684.2.188.1.16.194.317.289.481-.254-.44-.12-.325-.078-.149.062.259-.067.141-.013-.209-.051.328.05,0,.027,0q.075-.531-.046.355a2.714,2.714,0,0,0,.193.917c.746,2.448,2.353,4.366,3.554,6.578,1.87,3.443,3.428,7.089,5.119,10.623,1.11,2.321,4.561.294,3.454-2.019Z"/><path class="c" d="M21.683,225.637a93.861,93.861,0,0,0-4.258,16.54,53.512,53.512,0,0,0-.814,10.525,221.465,221.465,0,0,0,2.5,24.265A106.1,106.1,0,0,1,20.576,291.4c.012,2.573,4.012,2.578,4,0a99.341,99.341,0,0,0-1.248-12.955c-.5-3.672-1.059-7.157-1.457-10.6-.885-7.627-1.922-15.84-.8-23.265A94,94,0,0,1,25.54,226.7c.875-2.426-2.989-3.471-3.857-1.064Z"/><path class="c" d="M85.173,222.328a74.166,74.166,0,0,1,2.587,17.316c.511,9.287.344,18.611.17,27.9-.145,7.723-.351,15.444-.556,23.165-.068,2.575,3.932,2.573,4,0,.331-12.492.722-24.991.706-37.489a170.836,170.836,0,0,0-1.189-22.906,64.065,64.065,0,0,0-1.86-9.055c-.71-2.469-4.571-1.419-3.858,1.064Z"/><path class="c" d="M313.8,51.534a88.967,88.967,0,0,0,1.8,24.742c.862,3.7,1.944,7.219,1.811,11.075a6.393,6.393,0,0,1-.963,3.394,8.392,8.392,0,0,1-2.83,2.764c-4.027,2.431-8.97,1.654-13.164.113-2.42-.889-3.464,2.975-1.063,3.857,4.44,1.632,9.542,2.318,14.053.539a12.585,12.585,0,0,0,7.421-7.316c1.495-4.154.228-9.2-.857-13.287A66.959,66.959,0,0,1,318.3,68.8a96.537,96.537,0,0,1-.5-17.268c.132-2.572-3.868-2.565-4,0Z"/><path class="c" d="M273.778.119c-8.122.9-16.144,2.911-22.618,8.1A35.266,35.266,0,0,0,239.63,25.88a45.029,45.029,0,0,0-1.823,13.761c.072,2.568,4.073,2.579,4,0-.37-13.2,5.918-27.21,18.709-32.431a50.136,50.136,0,0,1,13.262-3.091,2.06,2.06,0,0,0,2-2,2.013,2.013,0,0,0-2-2Z"/><path class="c" d="M273.891,4.138c18.448-1.548,38.227,11.647,40.178,30.919a55.158,55.158,0,0,1-.047,7.295q-.153,4.92-.144,9.842c0,2.574,4,2.578,4,0q-.006-4.607.125-9.211c.066-2.273.3-4.583.155-6.853a35.858,35.858,0,0,0-5.027-15.869A42.049,42.049,0,0,0,290.3,2.144a41.1,41.1,0,0,0-16.4-2.006c-2.547.214-2.569,4.216,0,4Z"/><path class="c" d="M279.319,69.082c1.762,4.108,3.669,8.471,3.629,13.024a12.575,12.575,0,0,1-1.422,5.906c-.813,1.49-1.765,2.708-.581,4.338a7.3,7.3,0,0,0,3.506,2.163,25.443,25.443,0,0,0,4.351,1.166c3.687.673,8.152.841,11.452-1.231,3.962-2.487,5.195-7.346,4.427-11.73a2.016,2.016,0,0,0-2.46-1.4,2.045,2.045,0,0,0-1.4,2.46c.5,2.847-.45,6.253-3.232,7.572-2.585,1.225-5.98.87-8.693.274a21.207,21.207,0,0,1-3.656-1.075c-.424-.179-.792-.435-1.2-.648.124.065.038-.163.117.1.029.094.075,1.12.094,1.138q-.1.253.079-.061c.079-.112.155-.226.226-.343a16.775,16.775,0,0,0,2.3-10.5c-.453-4.651-2.265-8.922-4.089-13.174a2.012,2.012,0,0,0-2.736-.717,2.052,2.052,0,0,0-.718,2.736Z"/><path class="c" d="M264.346,103.7c-.346,4.264-.511,9.252,2,12.953a6.625,6.625,0,0,0,5.332,3.328,15.6,15.6,0,0,0,6.581-1.708,21.892,21.892,0,0,0,6.855-4.764c1.77-1.868-1.053-4.7-2.828-2.829a17.836,17.836,0,0,1-4.861,3.562,16.37,16.37,0,0,1-2.623,1.131c-.435.145-.875.275-1.321.382q-.29.07-.581.127c-.094.018-.189.033-.283.051-.576.108.218-.013-.1.013-.359.029-.713.012-1.071.026s.276.106-.044,0c-.082-.028-.565-.153-.263-.048s-.108-.068-.188-.118c-.242-.151-.071-.033-.281-.221-.158-.142-.312-.29-.458-.446a2.128,2.128,0,0,1-.351-.415,10.25,10.25,0,0,1-1.592-4.826,35.23,35.23,0,0,1,.078-6.2,2.016,2.016,0,0,0-2-2,2.04,2.04,0,0,0-2,2Z"/><path class="c" d="M294.287,95.571c2.833,2.222,6.375,4.957,7.184,8.662l.514-1.946a119.94,119.94,0,0,1-10.906,9.385,2.016,2.016,0,0,0-.313,2.424c.8,1.442,2.36,2.537,2.98,4.066l.2-1.541c-.125.169-.1.08.014-.014a2.273,2.273,0,0,0-.237.287c-.186.212-.369.426-.559.635-.494.547-1.006,1.077-1.52,1.605-1.3,1.337-2.627,2.651-3.937,3.98a126.936,126.936,0,0,0-9.352,10.375,2.064,2.064,0,0,0,0,2.829,2.014,2.014,0,0,0,2.828,0,163.11,163.11,0,0,1,12.327-13.376,26.1,26.1,0,0,0,3.8-4.177c1.45-2.337-2.073-4.853-3.089-6.688l-.312,2.424c3.332-2.655,6.628-5.4,9.761-8.287,1-.917,1.944-1.68,1.624-3.2a11.115,11.115,0,0,0-1.9-4.028,30.832,30.832,0,0,0-6.282-6.24,2.064,2.064,0,0,0-2.828,0,2.014,2.014,0,0,0,0,2.829Z"/><path class="c" d="M314.15,245.857c-2.55.567-5.086,1.291-7.676,1.654-.259.036-.037,0,.013,0-.2.025-.4.043-.6.063q-.55.057-1.1.11-1.367.132-2.733.243-2.806.23-5.618.387c-3.62.2-7.26.352-10.885.212-.4-.015-1.233.11-1.571-.124.076.053-.144-.525-.181-.714-.043-.218-.069-.44-.1-.659-.145-.919-.3-1.836-.459-2.752-1.906-10.994-4.233-21.919-6.49-32.844-2.327-11.262-4.727-22.511-6.879-33.807-.354-1.86-.7-3.721-1.017-5.588-.123-.722-.241-1.446-.348-2.171-.02-.138-.039-.277-.059-.415-.053-.359.052.472,0,.041-.089-.834-.153-1.664-.16-2.5-.058-7.689,2.611-15.34,4.752-22.634,1.15-3.915,2.077-7.867,2.925-11.857a27.414,27.414,0,0,1,2.729-8.224c4.457-7.852,9.843-15.116,14.47-22.862q1.8-3.018,3.432-6.133c1.191-2.279-2.26-4.3-3.454-2.019-4.338,8.3-9.845,15.848-14.788,23.776-1.985,3.184-4.217,6.423-5.238,10.072-.984,3.518-1.558,7.148-2.43,10.694-2,8.12-4.963,15.976-6.054,24.307a31.8,31.8,0,0,0,.022,8.882c.241,1.632.532,3.257.829,4.879,2.041,11.159,4.433,22.257,6.731,33.365,2.389,11.54,4.844,23.076,6.914,34.678q.272,1.518.525,3.038a9.369,9.369,0,0,0,.941,3.523c1.129,1.826,3.016,1.977,4.957,2.051,1.734.067,3.47.056,5.2.017,7.045-.156,14.227-.483,21.114-2.047,1.116-.253,2.228-.53,3.345-.779,2.512-.558,1.449-4.415-1.063-3.857Z"/><path class="c" d="M266.457,101.476c-.5,1.375-2.24,2.573-3.188,3.754a5.916,5.916,0,0,0-1.211,2.1,7.208,7.208,0,0,0-.108.717c.078-.471.038-.236.015-.131-.046.212-.1.423-.146.634-.568,2.389-1.245,4.754-1.9,7.12-1.818,6.553-3.7,13.093-5.291,19.707a47.921,47.921,0,0,0-1.508,8.151c-.158,2.571,3.843,2.562,4,0,.011-.195.032-.389.048-.584.007-.1.021-.192.032-.288.033-.287-.053.367-.009.066.077-.539.171-1.076.271-1.611.247-1.312.539-2.616.844-3.915.753-3.208,1.6-6.4,2.461-9.576,1.573-5.808,3.315-11.578,4.767-17.418.1-.424.218-.85.3-1.279.049-.253.271-.941.029-.44a4.149,4.149,0,0,1,.6-.867c1.393-1.647,3.086-2.994,3.849-5.079.885-2.422-2.979-3.466-3.857-1.064Z"/><path class="c" d="M263.61,100.053q-.772,2.555-1.736,5.045-.241.623-.494,1.239c-.007.016-.241.582-.092.226-.1.235-.2.468-.3.7q-.534,1.222-1.116,2.423l2.259-.919a1.184,1.184,0,0,1,.387.243q.4.87.263.378a2.017,2.017,0,0,0-2.461-1.4,2.044,2.044,0,0,0-1.4,2.46,2.984,2.984,0,0,0,2.145,2.173,2.024,2.024,0,0,0,2.258-.919,72.988,72.988,0,0,0,4.143-10.59,2,2,0,1,0-3.857-1.063Z"/><path class="c" d="M258.3,129.373c-1.819,12.7-5.723,25.234-5.347,38.172.2,6.757,3.09,12.652,5.211,18.932a101.073,101.073,0,0,1,4.157,18.029,98.837,98.837,0,0,1,.891,20.8,2.033,2.033,0,0,0,1.469,1.928,71.03,71.03,0,0,0,11.582,2.978,2.058,2.058,0,0,0,2.46-1.4,2.016,2.016,0,0,0-1.4-2.46,71.132,71.132,0,0,1-11.582-2.978l1.468,1.929a106.147,106.147,0,0,0-4.27-36.981c-1.784-6.025-4.909-11.761-5.793-18.028a44.225,44.225,0,0,1-.014-9.408c.247-3.264.7-6.507,1.237-9.735,1.159-6.924,2.789-13.768,3.785-20.719a2.067,2.067,0,0,0-1.4-2.46,2.014,2.014,0,0,0-2.46,1.4Z"/><path class="c" d="M72.511,225.034l2.218,6.732a2,2,0,0,0,3.857-1.063l-2.218-6.733a2,2,0,0,0-3.857,1.064Z"/><path class="c" d="M253.19,143c-1.619,6.932-3.387,13.874-4,20.987a34.557,34.557,0,0,0,.444,9.722c.531,2.7.993,5.408,1.413,8.124a272.327,272.327,0,0,1,3.363,40.563A95.108,95.108,0,0,1,252.93,242a2.053,2.053,0,0,0,.919,2.259,13.738,13.738,0,0,0,6.185,1.154,23.688,23.688,0,0,0,6.216-.585c2.491-.642,1.435-4.5-1.063-3.857a19.082,19.082,0,0,1-4.821.445,21.267,21.267,0,0,1-2.61-.137,9.771,9.771,0,0,1-1.112-.211,3.726,3.726,0,0,1-.776-.263l.919,2.259a92.907,92.907,0,0,0,1.611-17.514c.1-6.936-.21-13.877-.737-20.792q-.781-10.266-2.231-20.465c-.411-2.907-.864-5.809-1.382-8.7a43.478,43.478,0,0,1-1.023-8.3c.1-7.869,2.243-15.61,4.022-23.224.585-2.5-3.271-3.573-3.857-1.063Z"/><path class="c" d="M253.45,141.335a114.432,114.432,0,0,1-4.466,12.846c-1.536,3.506-3.319,7.288-6.711,9.291-8.285,4.889-16.528,9.859-24.974,14.469-4.882,2.666-9.833,5.2-14.828,7.652a2.045,2.045,0,0,0-.717,2.737,260.362,260.362,0,0,1,10.278,26.286,2.028,2.028,0,0,0,2.46,1.4c13.9-4.62,27.037-11.073,40.33-17.148a2.016,2.016,0,0,0,.717-2.736,2.046,2.046,0,0,0-2.736-.718c-12.981,5.933-25.8,12.234-39.374,16.744l2.46,1.4a269.956,269.956,0,0,0-10.681-27.241l-.718,2.736q13.214-6.478,25.9-13.923c4.509-2.629,8.992-5.3,13.486-7.952a15.373,15.373,0,0,0,4.76-4.153,30.725,30.725,0,0,0,3.183-5.452,109.9,109.9,0,0,0,5.49-15.169c.748-2.469-3.112-3.524-3.857-1.063Z"/><path class="c" d="M67.242,28.54c-2.243,8.269-5.46,19.183-15.337,20.8a2.015,2.015,0,0,0-1.4,2.46,2.047,2.047,0,0,0,2.46,1.4c4.948-.808,9.036-4.114,11.893-8.1C68.133,40.532,69.649,34.948,71.1,29.6c.675-2.488-3.182-3.549-3.857-1.063Z"/><path class="c" d="M240.032,29.439A94.676,94.676,0,0,0,267.9,48.82a37.548,37.548,0,0,0,8.222,3.061c2.512.514,3.587-3.341,1.063-3.858a36.922,36.922,0,0,1-8.657-3.324c-2.858-1.4-5.655-2.926-8.411-4.518a80.646,80.646,0,0,1-17.257-13.57c-1.8-1.848-4.626.982-2.828,2.828Z"/><path class="c" d="M263.941,233.9c-.11,3.63.115,7.271.3,10.9.138,2.72.186,5.443.341,8.162.439,7.712,1.189,15.405,1.77,23.107.305,4.051.589,8.107.7,12.168.071,2.569,4.071,2.579,4,0-.211-7.633-.937-15.251-1.558-22.858-.528-6.481-.876-12.949-1.2-19.441-.2-4-.479-8.024-.357-12.034.078-2.575-3.923-2.573-4,0Z"/></svg>