<?xml version="1.0" encoding="utf-8"?>
<!-- Uploaded to: SVG Repo, www.svgrepo.com, Generator: SVG Repo Mixer Tools -->
<svg width="800px" height="800px" viewBox="0 -34.19 378.383 378.383" xmlns="http://www.w3.org/2000/svg"><defs><style>.a{fill:#ffffff;}.b{fill:#211715;}.c{fill:#bdbdbd;}.d{fill:#febe69;}.e{fill:#7abee6;}.f{fill:#85807f;}.g{fill:none;}</style></defs><path class="a" d="M219.742,227.932a9.529,9.529,0,0,0-4.86,3.047,14.507,14.507,0,0,0-3.069,9.057,45.408,45.408,0,0,0,1.164,9.659,4,4,0,0,1-.271,3.139l3.109,1.275c1.085-3.834,2.5-7.617,3.92-11.3,1.4-3.636,3.427-8.532,5.776-13.974A7.12,7.12,0,0,0,219.742,227.932Z"/><path class="a" d="M84.422,91.339a43.046,43.046,0,0,1-9.978-7.156,44.6,44.6,0,0,1-4.957-6.207s-1.427-2.2-2.029-3.464c0,0-.158-.331-.406-.847a10.138,10.138,0,0,1-5.487-1.134A13.946,13.946,0,0,1,56.3,66.323c-1.294-2.614-1.872-7.008-.708-9.571a4.81,4.81,0,0,1,4-2.751,5.505,5.505,0,0,1,3.216.471c10.884-3.815,16.438-5.461,26.1-10.234,10.709-5.293,15.3-9.115,21.77-16.5,7.556,2.238,17.566,20.172,18.69,29.13-.447,3.861-.807,7.673-1.206,11.246-.93,8.39-3.49,15.97-9.37,20.78a26.97,26.97,0,0,1-20.6,6.4,35.452,35.452,0,0,1-3.68-.51,49.383,49.383,0,0,1-10.08-3.44"/><path class="b" d="M254.23,274.949c0,11.006-.135,21.891-3.05,32.583-.678,2.487,3.179,3.548,3.857,1.063,3.007-11.029,3.193-22.293,3.193-33.646,0-2.574-4-2.578-4,0Z"/><path class="b" d="M155.744,294.968c5.142-1.473,10.231-3.154,15.334-4.755q14.475-4.543,28.941-9.115l17.942-5.663c2.446-.772,1.4-4.635-1.063-3.857-18.66,5.889-37.308,11.814-55.992,17.626-2.072.645-4.14,1.309-6.226,1.907-2.47.707-1.42,4.568,1.064,3.857Z"/><path class="a" d="M253.812,83.464a46.189,46.189,0,0,0-1.555,9.965c-.792,6.167-1.867,14.724-7.825,17.232a5.789,5.789,0,0,0-2.885,2.38c-1.657,2.945.86,4.587,2.329,6.522a9.52,9.52,0,0,1,1.757,4.224,59.037,59.037,0,0,0,.381,9.035A25.038,25.038,0,0,0,247.442,139a11.865,11.865,0,0,0,5.912,6.635c4.514,2.173,10.862,3.413,15.12,2.7a2.067,2.067,0,0,1,2.31,1.451,54.983,54.983,0,0,1,2.695,6.968l.358,1.2a43.08,43.08,0,0,1,14.618-7.415,80.727,80.727,0,0,1,22.348-3.373,5.415,5.415,0,0,1,1.089.1c2.44-4.06,7.672-7.636,10.875-10.5,6.112-5.476,15.3-16.426,16.447-32.8A48.158,48.158,0,0,0,333.636,78.7c-9.477-17.387-21.7-21.423-29.31-23.138a48.551,48.551,0,0,0-22.146.481c-14.568,3.529-22.016,12.866-23.338,14.977a33.557,33.557,0,0,0-5.532,14.548"/><path class="c" d="M281.144,56.308c-13.886,3.709-21.011,12.653-22.3,14.713a35.21,35.21,0,0,0-4.37,9.158,37.5,37.5,0,0,0,14.194,20.255s4.977.117,8.188.2a36.649,36.649,0,0,0,10.382,9.363,6.682,6.682,0,0,1,2.784-.917,5.919,5.919,0,0,1,4.845,1.486c1.808,1.767,2.288,4.984,1.794,7.5a14.921,14.921,0,0,1-6.425,10.041c-.03,1.03-.049,1.847-.049,1.847a25.921,25.921,0,0,0,5.018,11.1c2.494,2.827,9.26,5.367,13.427,6.3l2.866.624c2.217-4.358,7.881-8.186,11.271-11.223,6.112-5.476,15.3-16.426,16.447-32.8A48.158,48.158,0,0,0,333.636,78.7c-9.477-17.387-21.7-21.423-29.31-23.138a48.551,48.551,0,0,0-22.146.481Q281.657,56.171,281.144,56.308Z"/><path class="b" d="M275.407,156.216a51.975,51.975,0,0,0-1.81-4.972q-.38-.9-.781-1.795c-.067-.147-.13-.3-.2-.444-.19-.38.277.669-.026-.075-1.5-3.68-5.6-2.229-8.67-2.479a27.221,27.221,0,0,1-9.554-2.548,10.615,10.615,0,0,1-5.382-6.509,37.956,37.956,0,0,1-1.386-11.259,11.156,11.156,0,0,0-3.313-9.172c-.669-.757-1.57-1.6-1.138-2.68.559-1.4,2.212-1.741,3.373-2.444a13.341,13.341,0,0,0,5.174-6.54c2.816-6.783,2.146-14.305,4.048-21.3.676-2.487-3.181-3.549-3.857-1.063-1.739,6.4-1.331,13.156-3.375,19.489-.752,2.328-1.945,4.765-4.138,6.038-1.451.843-2.878,1.372-3.966,2.742a5.773,5.773,0,0,0-1.272,4.8c.688,3.1,4.118,4.63,4.493,7.907.184,1.607-.031,3.341.052,4.966a54.432,54.432,0,0,0,.635,6.055,18.273,18.273,0,0,0,4.36,9.732c2.2,2.34,5.276,3.579,8.295,4.484a27.549,27.549,0,0,0,11.192,1.233c.794-.1.6-.276.923.475.151.343.312.683.464,1.025a46.8,46.8,0,0,1,2,5.4c.748,2.456,4.61,1.409,3.857-1.063Z"/><path class="b" d="M255.239,86.1a33.309,33.309,0,0,1,2.792-9.6,46.888,46.888,0,0,1,2.337-4.146c.159-.256.319-.51.491-.758.108-.154.6-.8.267-.373a36.039,36.039,0,0,1,10.024-8.583,46.22,46.22,0,0,1,39.1-3.254c11.41,4.3,20.247,14.854,24.293,26.257a44.762,44.762,0,0,1,2,23.42,46.326,46.326,0,0,1-7.717,17.929,56.517,56.517,0,0,1-10.62,10.986,41.2,41.2,0,0,0-7.185,7,12.151,12.151,0,0,0-2.428,8.072,44.636,44.636,0,0,0,.394,4.705,2.011,2.011,0,0,0,2.46,1.4,2.053,2.053,0,0,0,1.4-2.46,34.621,34.621,0,0,1-.267-4.631,5.467,5.467,0,0,1,.737-3.262c1.567-2.907,4.253-5.12,6.755-7.2a67.1,67.1,0,0,0,11.573-11.708A48.788,48.788,0,0,0,339.193,87c-3.827-12.838-13.017-25.031-25.481-30.492a50.307,50.307,0,0,0-40.84.7c-9.554,4.446-17.253,12.126-20.305,22.355a41.671,41.671,0,0,0-1.186,5.47,2.065,2.065,0,0,0,1.4,2.46,2.017,2.017,0,0,0,2.461-1.4Z"/><path class="b" d="M287.306,112.36c1.924-1.554,5.283-2.1,6.73.375,1.345,2.3.8,5.145-.044,7.5-1.714,4.791-5.954,7.435-10.694,8.64-2.494.634-1.437,4.493,1.063,3.858,5.079-1.292,9.8-4.072,12.337-8.8s3.7-12.66-1.827-15.859c-3.459-2-7.472-.9-10.394,1.458a2.012,2.012,0,0,0,0,2.828,2.048,2.048,0,0,0,2.829,0Z"/><path class="b" d="M254.861,101.952c-.876,1.713-1.33,5.947,1.863,6.915,4.315.784,5.51-4.213,4.513-6.856C260.421,99.847,257.083,98.383,254.861,101.952Z"/><path class="b" d="M252.507,80.582a39.957,39.957,0,0,0,15.149,21.579,2.016,2.016,0,0,0,2.737-.717,2.044,2.044,0,0,0-.718-2.736,35.593,35.593,0,0,1-13.31-19.189c-.693-2.475-4.554-1.424-3.858,1.063Z"/><path class="b" d="M267.642,90.442c4.594,7.517,9.429,15.147,16.844,20.192a2.019,2.019,0,0,0,2.736-.717,2.04,2.04,0,0,0-.717-2.737c-6.807-4.632-11.2-11.869-15.409-18.757-1.341-2.193-4.8-.186-3.454,2.019Z"/><path class="b" d="M288.256,130.483a26.953,26.953,0,0,0,2.512,7.319,16.519,16.519,0,0,0,4.057,5.639,25.585,25.585,0,0,0,6.44,3.617,42.153,42.153,0,0,0,6.834,2.225c2.506.572,3.576-3.283,1.063-3.857a41.491,41.491,0,0,1-6.194-1.962,29.614,29.614,0,0,1-2.862-1.334,20.249,20.249,0,0,1-2.453-1.518,13.375,13.375,0,0,1-3.432-4.829,23.337,23.337,0,0,1-2.108-6.363,2.015,2.015,0,0,0-2.46-1.4,2.047,2.047,0,0,0-1.4,2.46Z"/><path class="b" d="M246.026,129.6a24.759,24.759,0,0,0,7.517.62,2,2,0,0,0,0-4,24.026,24.026,0,0,1-4.978-.179l.531.072c-.674-.094-1.345-.211-2.007-.37a2,2,0,0,0-1.063,3.857Z"/><path class="d" d="M244.844,188.518c5.28-9.907,11.609-16.606,20.8-20.832A134.034,134.034,0,0,1,297.7,157.3c3.4-.669,6.826-1.244,10.257-1.752a41.756,41.756,0,0,1,12.311-.085,24.5,24.5,0,0,1,4.935,1.837,63.539,63.539,0,0,1,21.351,22.087c-21.762,6.334-48.471,14.119-67.779,19.689-7.744,2.234-12.675,9.317-13.112,17.364-.9,16.464-1.572,33.292-2.291,49.076l-1.083,1.113s-12.282,12.626-12.885,12.582c-5.937,3.915-12.42,7.352-19.264,6.759-2.2-.191-6.731-1.454-8.689-2.794a17.356,17.356,0,0,1-7.144-11.331c-1.718-9.806,1.842-19.731,5.426-29.036,5.017-13.025,18.067-42.228,25.219-54.719"/><path class="a" d="M31.3,144.653c.569-2.637,1.129-4.95,1.742-7.076-16.35-1.065-27.221,11.429-25.1,25.537,1.72,11.378,4.319,29.194,6.159,41.8,5.387-1.03,12.1-2.314,19.825-3.786a31.62,31.62,0,0,1-5.454-10.887c-2.7-9.3-2.15-19.82-.33-29.4C29.409,154.167,30.37,148.974,31.3,144.653Z"/><path class="a" d="M84.424,91.344a49.383,49.383,0,0,0,10.08,3.44,35.452,35.452,0,0,0,3.68.51,28.308,28.308,0,0,0,9.953-.756l.407,1.166a4.135,4.135,0,0,0,.27,1.14,3.03,3.03,0,0,0,.73.89,20.092,20.092,0,0,0,4.413,3.076c-.073,1.181-.185,2.448-.332,3.784-4.322,3.561-9.752,5.011-15.461,5.36a51.8,51.8,0,0,1-23.356-3.8c-1.3-2.64-2.532-5.708-2.678-8.184A6.606,6.606,0,0,0,73.7,95.44a58.041,58.041,0,0,0,2.184-9.926,44.311,44.311,0,0,0,8.535,5.825"/><path class="c" d="M78.679,215.745l-6.2,2.179c-15.13-.04-27.8-4.81-35.85-13.6a33.118,33.118,0,0,1-8.15-14.08c-2.7-9.3-2.15-19.82-.33-29.4,3.5-18.47,4.67-25.59,9.4-34.3,7.69-14.19,16.27-17.41,30.87-26.04l3.71-2.56c.22,3.76,2.95,8.88,4.59,11.81,2.24,3.98,3.48,6.14,6.16,11.39,5.92,11.61,9.98,19.29,15.42,29.97l1.56,2.81.622,1.12c4.638-7.078,12.831-39.669,13.538-55.264l1.293.424,2.855.931c16.7,5.946,24.466,15.7,27.319,34.02,2.528,16.225,2.379,33.99,2.251,51.1-.189,2.98-.3,4.5-3.286,6.4Z"/><path class="e" d="M99.854,153.924l-1.56-2.81c-5.44-10.68-9.5-18.36-15.42-29.97-2.68-5.25-3.92-7.41-6.16-11.39-.557-1-1.24-2.244-1.908-3.606a51.773,51.773,0,0,0,23.358,3.806c5.709-.349,11.141-1.8,15.463-5.361-1.8,16.443-8.746,43.26-12.971,50.164"/><path class="f" d="M135.788,58.9c-1.289-7.323-2.926-16.143-4.571-23.4-2.538-11.094-4.785-16.985-10.275-22.9C116.021,7.844,105.712,2.068,93.21,2A45.37,45.37,0,0,0,75.042,5.383l-.936.523-.615.342a31.741,31.741,0,0,0-8.247,4.857c-.535.474-1.087.931-1.618,1.41-.226.2-.448.412-.663.627a34.737,34.737,0,0,0-6.476,9.134c-2.855,5.756-3.616,14.3-5.074,20.955C49.68,51.136,47.881,56.543,46.626,63.2a21.268,21.268,0,0,0,2.713,14.628c3.935,6.595,10.84,10.433,20.44,10.071l5.937-.226c.029-.194.059-.382.088-.582l.282-1.408c-1.057-.908-1.642-1.5-1.642-1.5a44.6,44.6,0,0,1-4.957-6.207s-1.427-2.2-2.029-3.464c0,0-.158-.331-.406-.847a10.138,10.138,0,0,1-5.487-1.134A13.946,13.946,0,0,1,56.3,66.323c-1.294-2.614-1.872-7.009-.708-9.571a4.81,4.81,0,0,1,4-2.751,5.322,5.322,0,0,1,3.846.85l7.152-3.079A143.107,143.107,0,0,0,88.9,44.237c10.564-5.22,15.171-9.01,21.508-16.2l4.879,2.618c7.047,6.473,14.279,21.37,13.9,27.726-.371,3.342-.686,6.623-1.03,9.731-.754,6.823-2.592,13.116-6.418,17.814l.157-.006c5.487-1.665,9.426-4.463,11.916-8.813C136.975,71.539,136.888,65.208,135.788,58.9Z"/><path class="b" d="M122.427,87.848a22.926,22.926,0,0,0,11.043-6.8,22.605,22.605,0,0,0,4.98-13.631c.236-5.194-.947-10.362-1.881-15.441-.971-5.281-1.99-10.554-3.15-15.8-1.8-8.117-3.956-16.252-9.22-22.869C119.181,7.009,111.057,3.1,103.361,1.251a47.726,47.726,0,0,0-17.3-.823C81.686,1,76.977,2.011,73.1,4.179c-2.247,1.255-.233,4.712,2.019,3.454A32.989,32.989,0,0,1,84.85,4.622a43.705,43.705,0,0,1,14.162-.171,42.089,42.089,0,0,1,12.221,3.9,31.419,31.419,0,0,1,8.3,5.658c5.091,5.146,7.358,12.188,9.054,19.042,1.163,4.7,2.119,9.453,3.039,14.206.915,4.731,1.963,9.5,2.562,14.282.657,5.239.361,10.739-2.549,15.3-2.356,3.695-6.169,5.879-10.27,7.151-2.451.76-1.405,4.623,1.063,3.857Z"/><path class="b" d="M73.25,4.216A33.325,33.325,0,0,0,56.666,17.877C52.571,24.34,51.532,31.719,50.192,39.1c-1.357,7.478-3.7,14.72-5.217,22.159a25.145,25.145,0,0,0-.03,11.021,23.678,23.678,0,0,0,4.95,9.737c4.906,5.836,12.46,8.115,19.884,7.881,2.567-.081,2.579-4.082,0-4-5.8.183-11.649-1.212-15.865-5.413a19.515,19.515,0,0,1-5.2-17.563c1.362-6.882,3.52-13.578,4.9-20.457,1.288-6.412,1.727-13.449,4.7-19.376,3.31-6.6,8.917-12.5,16-15.02,2.409-.856,1.371-4.722-1.063-3.857Z"/><path class="a" d="M267.525,165.236c3.8-7.128,12.886-12.386,20.93-14.7a80.727,80.727,0,0,1,22.348-3.373h0a4.7,4.7,0,0,1,4.842,3.414l.792,3.883"/><path class="b" d="M269.252,166.245c3.483-6.386,10.454-10.551,17.121-12.937a74.871,74.871,0,0,1,12.952-3.2q3.354-.555,6.748-.786,1.772-.12,3.546-.15a6.933,6.933,0,0,1,2.446.19c2.114.751,2.063,3.763,2.444,5.63.514,2.52,4.371,1.453,3.857-1.064-.482-2.358-.646-5.046-2.476-6.811a7.727,7.727,0,0,0-5.56-1.953,69.223,69.223,0,0,0-8.025.513c-9.212,1.1-18.73,3.344-26.594,8.465a29.037,29.037,0,0,0-9.913,10.086c-1.233,2.26,2.22,4.281,3.454,2.018Z"/><path class="b" d="M154.84,177.884q24.045-4.587,48.09-9.17h-1.063q19.1,5.28,38.21,10.56c2.483.691,3.543-3.167,1.063-3.858q-15.852-4.41-31.719-8.767l-3.694-1.02c-1.294-.357-2.705-.968-4.048-.737-2.665.46-5.318,1.013-7.974,1.519q-8.936,1.7-17.87,3.408l-22.058,4.207c-2.526.482-1.457,4.338,1.063,3.858Z"/><path class="b" d="M353.06,222.968a72.052,72.052,0,0,0,.277-30.552,47.667,47.667,0,0,0-4.645-13.3,61.87,61.87,0,0,0-8.967-12.358,61.015,61.015,0,0,0-13.51-11.191c-2.216-1.323-4.229,2.134-2.019,3.454a59.12,59.12,0,0,1,20.2,20.61c4.673,7.968,6.249,17.376,6.39,26.511a63.68,63.68,0,0,1-1.579,15.759c-.6,2.5,3.259,3.57,3.857,1.063Z"/><path class="b" d="M326.215,155.571c-4.573-2.838-10.668-2.808-15.811-2.321a142.788,142.788,0,0,0-21.147,3.88,132.31,132.31,0,0,0-18.729,6.249c-5.59,2.334-10.945,4.832-15.592,8.786a52.3,52.3,0,0,0-11.819,15.344c-1.217,2.268,2.235,4.291,3.454,2.019A50.916,50.916,0,0,1,256.2,176.4c4.024-3.81,8.768-6.295,13.812-8.487a150.319,150.319,0,0,1,37.745-10.328,43.269,43.269,0,0,1,10.282-.4,14.62,14.62,0,0,1,6.158,1.844c2.193,1.361,4.2-2.1,2.019-3.454Z"/><path class="a" d="M262.52,283.041c1.087-20.419,1.909-43.859,3.145-66.6.437-8.047,5.368-15.13,13.112-17.364,22.993-6.633,56.481-16.407,79.613-23.131,9.024-2.623,18.264,4.2,17.972,13.59-.477,15.369-3.422,35.314-4.882,50.4"/><path class="b" d="M264.52,283.041c.989-18.634,1.679-37.282,2.594-55.92.364-7.417-.362-15.808,5.059-21.678a17.214,17.214,0,0,1,8.294-4.775q5.282-1.524,10.562-3.055,23.4-6.78,46.8-13.6c7.184-2.091,14.348-4.449,21.6-6.275a12.183,12.183,0,0,1,14.384,7.828c1.071,3.377.443,7.221.213,10.693-.281,4.242-.671,8.476-1.105,12.705-.862,8.395-1.919,16.769-2.837,25.158q-.318,2.907-.6,5.817a2.015,2.015,0,0,0,2,2,2.043,2.043,0,0,0,2-2c.837-8.6,1.934-17.166,2.882-25.751.484-4.379.937-8.763,1.3-13.154a108.431,108.431,0,0,0,.695-12.37A15.989,15.989,0,0,0,365.9,173.777c-3.75-.824-7.124-.028-10.725,1.019l-11.138,3.241q-24.312,7.075-48.625,14.142-5.691,1.65-11.384,3.3c-3.5,1.012-7.219,1.77-10.378,3.657a20.14,20.14,0,0,0-7.249,7.557,24.965,24.965,0,0,0-2.8,10.959c-1.05,19.586-1.773,39.187-2.74,58.777q-.163,3.307-.339,6.615c-.136,2.573,3.864,2.565,4,0Z"/><path class="b" d="M243.227,187.079c-3.7,6.484-6.926,13.253-10.1,20.007q-5.5,11.7-10.572,23.6c-3.4,8-6.959,16.114-9.117,24.548-2.585,10.1-2.755,22.336,6.389,29.217a18.531,18.531,0,0,0,6.371,2.77,20.418,20.418,0,0,0,7.335.72c6.205-.606,11.757-3.645,16.883-7.009l-1.01.273c1.383-.145,2.378-1.3,3.342-2.211,1.519-1.431,3-2.906,4.473-4.382q3.266-3.264,6.484-6.574c1.8-1.847-1.03-4.678-2.829-2.829-3.915,4.025-7.775,8.2-11.994,11.911-.141.124-.29.24-.428.366-.16.147.459-.231.022-.034,1.287-.58,1.014-.344.4-.175a4.6,4.6,0,0,0-1.223.688q-1.216.786-2.46,1.528a34.308,34.308,0,0,1-8.865,3.923,16.907,16.907,0,0,1-8.23.162,15.64,15.64,0,0,1-6.44-2.741c-4.978-4.113-6.123-10.441-5.714-16.593.472-7.086,3.029-13.9,5.553-20.473,3.319-8.64,7.067-17.121,10.881-25.551,4.45-9.835,8.946-19.745,14.3-29.127,1.278-2.239-2.177-4.256-3.454-2.018Z"/><path class="b" d="M224.129,226.022c-5.894-1.5-11.166,2.567-13.2,7.9a20.323,20.323,0,0,0-1.036,8.789c.135,1.717.4,3.425.705,5.119.185,1.034.977,3.031.381,4-1.355,2.2,2.1,4.209,3.454,2.019,1.445-2.344.32-5.31-.1-7.8a24.345,24.345,0,0,1-.3-8.316c.763-4.233,4.1-9.1,9.037-7.848,2.5.634,3.561-3.223,1.063-3.857Z"/><path class="b" d="M2.506,209.167q14.7-2.809,29.4-5.619c2.526-.482,1.457-4.338-1.063-3.858q-14.7,2.8-29.4,5.62c-2.525.483-1.456,4.339,1.064,3.857Z"/><path class="b" d="M22.732,136.745A24.14,24.14,0,0,0,5.811,157.188c-.517,4.786.694,9.7,1.4,14.412q1.188,7.99,2.357,15.982,1.311,8.937,2.613,17.873a2.013,2.013,0,0,0,2.46,1.4,2.052,2.052,0,0,0,1.4-2.46Q13.828,189.28,11.6,174.17q-.524-3.543-1.053-7.085a62.858,62.858,0,0,1-.846-6.447A19.738,19.738,0,0,1,23.8,140.6c2.442-.782,1.4-4.645-1.064-3.857Z"/><path class="g" d="M75.8,86.094a57.441,57.441,0,0,1-2.1,9.346A7.194,7.194,0,0,1,71.05,98.9c-1.48,1.054-4.02,2.615-10.354,6.441"/><path class="b" d="M74.282,108.082a53.373,53.373,0,0,0,21.6,3.964c6.933-.148,13.72-1.625,19.2-6.078a2.012,2.012,0,0,0,0-2.828,2.045,2.045,0,0,0-2.828,0c-4.811,3.906-11.137,4.871-17.155,4.917a50.29,50.29,0,0,1-19.759-3.832,2.011,2.011,0,0,0-2.46,1.4,2.05,2.05,0,0,0,1.4,2.46Z"/><path class="g" d="M108.544,95.7a4.135,4.135,0,0,0,.27,1.14,3.03,3.03,0,0,0,.73.89,20.094,20.094,0,0,0,4.42,3.08"/><path class="b" d="M57.818,158.2c-1.57,5.892-2.841,11.871-2.253,17.984a15.015,15.015,0,0,0,2.682,8.025c2.251,3,5.322,4.592,8.7,6.033a48.261,48.261,0,0,0,9.326,2.86c2.512.515,3.587-3.339,1.063-3.857a44.89,44.89,0,0,1-9.3-2.861c-3.489-1.55-7.041-3.545-8.069-7.54-1.652-6.419.05-13.365,1.708-19.58.663-2.49-3.194-3.553-3.858-1.064Z"/><path class="b" d="M72.474,215.924c-11.364-.064-23.36-2.828-32.012-10.613a33.59,33.59,0,0,1-9.437-13.645,51.035,51.035,0,0,1-2.267-20.1c.427-6.687,1.874-13.259,3.145-19.823.9-4.661,1.816-9.34,3.152-13.9,2.437-8.318,6.844-16.369,13.4-22.258,3.921-3.526,8.524-6.184,13.077-8.8,3.958-2.272,7.851-4.524,11.607-7.115,2.105-1.453.107-4.921-2.019-3.454-3.367,2.323-6.822,4.379-10.377,6.411a102.2,102.2,0,0,0-13.067,8.4c-7.476,5.939-12.734,14.457-15.751,23.45a110.036,110.036,0,0,0-3.336,13.471c-1.354,6.77-2.843,13.58-3.56,20.452a59.685,59.685,0,0,0,1.285,21.53,37.462,37.462,0,0,0,9.016,15.936c9.437,10.18,23.659,13.985,37.149,14.061,2.574.014,2.577-3.986,0-4Z"/><path class="a" d="M80.139,214.45c1.444,3.066,5.256,3.9,8.576,4.585,2.5.514,6.215-.1,8.617.558,1.309.357,2.71,2.031,3.99,2.481a2.885,2.885,0,0,0,3.568-1.083,3.581,3.581,0,0,0,.469-3.1,8.328,8.328,0,0,0-.729-1.224c2.007-.114,4.311-.25,4.311-.25a17.228,17.228,0,0,0,11.1,3.419c2.455-.2,5.659-.358,7.265-2.63A135.981,135.981,0,0,0,138.853,203c1.354-1.536,2.268-4.966,1.3-6.923-1.579-3.227-6.118-7.237-10.558-9.48a4.959,4.959,0,0,0-4.15-.131c-3.768,1.589-8.558,2.174-12.231,3.838-.293.138-.575.267-.85.416a18.743,18.743,0,0,1-1.97,1.087,18.613,18.613,0,0,0-7.137-2.1c-2.229-.185-12.309.75-15.934,1.406a13.872,13.872,0,0,0-6.7,3.385c-2.183,2.062-3.117,5.1-3.857,8.009-.749,2.978-1.387,6.1-.7,9.1l1.792,1.25Z"/><path class="b" d="M107.932,218.145a19.838,19.838,0,0,0,15.927,3.237,9.22,9.22,0,0,0,3.263-1.284,19.84,19.84,0,0,0,3.386-3.435c1.674-1.857,3.294-3.759,4.837-5.726,1.691-2.155,3.3-4.373,4.956-6.553a10.074,10.074,0,0,0,2.2-7.17c-.3-2.64-2.284-4.889-4.1-6.692a30.6,30.6,0,0,0-7.426-5.466,7.415,7.415,0,0,0-5.234-.784c-1.593.387-3.121,1.12-4.711,1.56-3.283.907-6.813,1.529-9.8,3.24-2.234,1.277-.222,4.735,2.019,3.454a29.194,29.194,0,0,1,7.208-2.4c1.22-.318,2.441-.639,3.639-1.031,1.147-.376,2.374-1.139,3.61-1a8.355,8.355,0,0,1,3.226,1.567,27.553,27.553,0,0,1,3.149,2.318c1.552,1.33,3.649,3.111,4.359,5.112.58,1.63-.336,3.631-1.3,4.9-1.417,1.862-2.783,3.762-4.215,5.613q-1.894,2.448-3.937,4.775-1.209,1.382-2.455,2.731a6.567,6.567,0,0,1-2.417,2.064,14.7,14.7,0,0,1-6.618.611,15.847,15.847,0,0,1-7.533-3.094,2.013,2.013,0,0,0-2.737.718,2.048,2.048,0,0,0,.718,2.736Z"/><path class="b" d="M118.7,199.393a10.292,10.292,0,0,0,1.6-.5,11.032,11.032,0,0,0,1.813-.88,2.1,2.1,0,0,0,.919-1.2,1.522,1.522,0,0,0,.036-.8,1.492,1.492,0,0,0-.237-.744,2,2,0,0,0-2.737-.717,8.285,8.285,0,0,1-1.216.63l.478-.2a10.456,10.456,0,0,1-1.72.547,2.039,2.039,0,0,0-1.2.919,2.244,2.244,0,0,0-.2,1.541,2.022,2.022,0,0,0,.919,1.2,2.163,2.163,0,0,0,1.541.2Z"/><path class="b" d="M100.566,215.849a5.624,5.624,0,0,1,2.58,2.19c.438.668.609,1.92-.406,2.218s-2.238-1.1-2.97-1.62a7.572,7.572,0,0,0-3.8-1.284c-2.718-.279-5.384.073-8.074-.532-2.281-.513-4.889-1.13-6.033-3.38-1.167-2.3-4.619-.273-3.454,2.019,1.69,3.323,5.355,4.551,8.763,5.293a25.89,25.89,0,0,0,5.685.509c1.7,0,3.453-.19,4.891.828,1.572,1.115,2.947,2.32,5.025,2.184a4.974,4.974,0,0,0,4.4-3.481c1.462-3.907-2.153-7.513-5.544-8.8a2.017,2.017,0,0,0-2.46,1.4,2.045,2.045,0,0,0,1.4,2.461Z"/><path class="b" d="M121.029,203.53c.168-5.418-4.264-10.234-8.623-12.885a20.657,20.657,0,0,0-12-2.9c-3.664.2-7.33.557-10.968,1.038-4.471.592-8.777,2.081-11.573,5.856a21.473,21.473,0,0,0-3.139,7.776,21.841,21.841,0,0,0-.591,9.715c.52,2.52,4.376,1.454,3.857-1.063a16.512,16.512,0,0,1,.483-7.139,23.3,23.3,0,0,1,2.006-5.97c1.839-3.326,5.407-4.677,8.983-5.177,3-.419,6.2-.714,9.288-.932,3.161-.223,6-.245,9.029.937,4.141,1.618,9.4,5.843,9.249,10.739-.08,2.575,3.92,2.572,4,0Z"/><path class="b" d="M103.193,201.067a21.907,21.907,0,0,1,3.726.93c.246.087.491.178.734.275.172.069.327.142.067.025l.374.169c.471.219.932.46,1.379.723q.584.344,1.132.741c.039.028.341.3.118.085s.048.043.1.088q.238.2.467.41a12.017,12.017,0,0,1,1.021,1.095c.08.095.157.191.236.287.376.461-.11-.161.089.113s.38.518.56.784a2,2,0,0,0,3.454-2.018,16.162,16.162,0,0,0-5.033-4.963,20.832,20.832,0,0,0-7.362-2.6,2.051,2.051,0,0,0-2.46,1.4,2.025,2.025,0,0,0,1.4,2.461Z"/><path class="b" d="M103.419,208.936c.075,0,.15.013.225.019.365.027-.176-.047-.209-.03.085-.043.373.068.471.09a8.522,8.522,0,0,1,1.016.3c.083.029.164.062.246.092.317.116-.359-.16-.135-.059.164.073.328.147.489.227.346.171.682.36,1.009.564q.236.149.464.307c.076.053.152.107.227.162.257.189.006.021-.095-.077.262.255.568.469.832.725s.516.546.762.833c.149.173-.305-.426-.088-.113.049.071.1.14.149.211.105.155.2.314.3.476a2,2,0,0,0,3.454-2.019,11.734,11.734,0,0,0-3.982-3.958,11.2,11.2,0,0,0-5.131-1.751,2.01,2.01,0,0,0-2,2,2.048,2.048,0,0,0,2,2Z"/><path class="b" d="M96.014,61.1c.464-1.712-.009-5.6-3.23-5.822-4.243.17-4.309,4.891-2.805,7.059C91.21,64.113,94.675,64.751,96.014,61.1Z"/><path class="b" d="M121.235,61.036c.424-1.718-.01-5.617-2.96-5.841-3.885.169-3.944,4.906-2.567,7.08C116.836,64.056,120.009,64.7,121.235,61.036Z"/><path class="b" d="M104.958,66.842a29.085,29.085,0,0,1,1.656,3.076l-.2-.478a1.9,1.9,0,0,1,.132.448l-.071-.531a1.267,1.267,0,0,1,0,.185l.071-.532a.767.767,0,0,1-.044.171l.2-.478a.508.508,0,0,1-.061.1l.313-.405a2.126,2.126,0,0,1-.291.27l.405-.313a1.94,1.94,0,0,1-.349.206l.478-.2a1.845,1.845,0,0,1-.418.112l.531-.071c-.328.042-.652.071-.981.119a1.993,1.993,0,0,0-1.195.919,2,2,0,0,0,.717,2.736l.478.2a2.018,2.018,0,0,0,1.063,0l.042-.006-.532.071a8.727,8.727,0,0,0,1.142-.152,3.8,3.8,0,0,0,1.571-.894,2.6,2.6,0,0,0,.86-1.979,4.119,4.119,0,0,0-.524-1.76c-.466-.969-.993-1.911-1.542-2.836a2.075,2.075,0,0,0-1.2-.919,2,2,0,0,0-2.259,2.938Z"/><path class="b" d="M64.443,53.124A7.723,7.723,0,0,0,55.7,53.5c-2.028,1.571-2.7,4.095-2.733,6.572-.066,5.431,2.83,11.48,7.658,14.22a10.541,10.541,0,0,0,9.284.588,2.016,2.016,0,0,0,.717-2.737,2.047,2.047,0,0,0-2.736-.717,5.475,5.475,0,0,1-3.4.065,6.124,6.124,0,0,1-2.818-1.3,12.64,12.64,0,0,1-3.975-5.713c-.7-2.048-1.215-5.035-.261-6.946a4.162,4.162,0,0,1,.308-.508c-.245.353.088-.091.137-.139a2.745,2.745,0,0,1,1.062-.676,3.74,3.74,0,0,1,3.49.365,2,2,0,1,0,2.019-3.453Z"/><path class="g" d="M106.669,79.677a10.512,10.512,0,0,1-7.444.332c-.643-.25-1.35-.68-2.065-1.015"/><path class="b" d="M85.431,89.612a38.667,38.667,0,0,1-9.417-6.688A35.367,35.367,0,0,1,69.185,73.5a2.019,2.019,0,0,0-2.737-.717,2.041,2.041,0,0,0-.717,2.736,33.942,33.942,0,0,0,2.885,4.7,41.318,41.318,0,0,0,4.57,5.53,43.131,43.131,0,0,0,10.226,7.314c2.28,1.19,4.3-2.261,2.019-3.454Z"/><path class="b" d="M83.415,93.071c8.844,4.044,19.042,6.152,28.361,2.342a28.758,28.758,0,0,0,11.476-8.195,30.878,30.878,0,0,0,5.756-12.273c1.419-5.9,1.666-12.083,2.346-18.1a2.012,2.012,0,0,0-2-2,2.047,2.047,0,0,0-2,2c-.993,8.791-.945,18.532-5.974,26.2-4.568,6.964-13.2,10.652-21.352,10.366a38.45,38.45,0,0,1-14.594-3.792,2.06,2.06,0,0,0-2.737.717,2.017,2.017,0,0,0,.718,2.737Z"/><path class="b" d="M108.993,26.623A60.55,60.55,0,0,1,93.276,39.681,141.939,141.939,0,0,1,70.053,49.843c-2.415.843-1.376,4.709,1.064,3.857A147.951,147.951,0,0,0,95.294,43.135a63.885,63.885,0,0,0,16.528-13.684c1.7-1.922-1.12-4.762-2.829-2.828Z"/><path class="b" d="M113.873,32.07c4.083,3.8,7.11,8.74,9.573,13.7,1.968,3.96,4.267,8.878,4,13.247-.16,2.571,3.841,2.562,4,0,.315-5.081-2.208-10.513-4.385-14.948-2.63-5.359-5.955-10.734-10.356-14.827-1.883-1.751-4.718,1.071-2.828,2.829Z"/><path class="a" d="M65.908,73.715a3.408,3.408,0,0,1,3.443,3.477,3.35,3.35,0,0,1-3.814,3.132,3.314,3.314,0,0,1-3.44-3.539A3.406,3.406,0,0,1,65.908,73.715Z"/><path class="b" d="M65.908,75.715c.173.012.5.108-.1-.026.068.015.139.023.208.038a3.823,3.823,0,0,1,.493.135c.175.06.385.23-.111-.054.055.032.117.056.173.086.085.045.167.093.247.144.147.094.325.311-.1-.095.11.105.231.2.337.308.052.054.1.116.15.169.172.17-.3-.447-.124-.155.078.127.152.252.224.382.166.3-.142-.428-.079-.194.027.1.068.195.095.294.015.058.026.116.041.173.093.35-.036-.543-.02-.179a4.242,4.242,0,0,1,.007.451c0,.066-.013.131-.016.2.027-.619.05-.334.011-.156s-.1.32-.144.482c-.066.235.245-.491.077-.192-.036.064-.068.13-.106.193s-.078.122-.117.184c-.181.286.3-.328.127-.164-.094.089-.174.193-.271.28-.146.134-.34.178.135-.092-.075.043-.146.1-.22.146-.128.079-.266.135-.4.208.583-.322.155-.072-.044-.018-.156.043-.312.068-.47.1.717-.137.029-.024-.171-.026-.176,0-.351-.031-.527-.035.644.016.151.016-.065-.04-.155-.04-.3-.106-.456-.146.485.126.366.167.222.091-.106-.056-.213-.108-.316-.171-.051-.031-.1-.065-.149-.1-.3-.186.385.341.129.1-.1-.1-.2-.2-.3-.3s-.147-.275.153.207c-.037-.059-.082-.114-.12-.174-.084-.132-.146-.273-.22-.411.318.592.086.2.033-.012-.022-.086-.031-.176-.056-.26.148.506.046.433.036.262-.009-.156-.018-.311-.013-.467,0-.093.017-.186.02-.279-.014.581-.056.37-.01.176.017-.073.037-.145.059-.216.064-.2.241-.385-.059.105.092-.15.168-.311.262-.461.083-.133.216-.174-.153.191.073-.072.136-.158.209-.231.053-.054.109-.1.163-.155.251-.243-.4.267-.119.088.158-.1.316-.193.48-.283.315-.171-.411.15-.171.07.108-.036.214-.075.324-.106.064-.017.128-.033.193-.048.519-.115-.383.011-.027-.007.216-.01.428-.02.644-.01a2.014,2.014,0,0,0,2-2,2.042,2.042,0,0,0-2-2,5.889,5.889,0,0,0-3.269.8,5.423,5.423,0,0,0-2.227,2.688,5.214,5.214,0,0,0,1.41,5.712,6.3,6.3,0,0,0,6.586.829,5.166,5.166,0,0,0,2.921-5.141,5.224,5.224,0,0,0-1.64-3.374,6.142,6.142,0,0,0-3.781-1.518,2.01,2.01,0,0,0-2,2A2.049,2.049,0,0,0,65.908,75.715Z"/><path class="b" d="M107.6,78.453a13.056,13.056,0,0,0-5.455-1.258,14.514,14.514,0,0,0-5.314.959A2,2,0,1,0,97.9,82.011a18.261,18.261,0,0,1,2.272-.695c.162-.034.333-.046.493-.087-.093.024-.425.047-.147.022.11-.01.22-.021.33-.029.387-.029.775-.038,1.163-.03s.747.031,1.118.069c.07.007.479.058.15.014-.3-.04.017,0,.078.015q.27.043.538.1a10.575,10.575,0,0,1,1.077.279c.175.056.345.129.519.184.235.074-.361-.186-.155-.065.078.046.17.081.251.121a2,2,0,1,0,2.019-3.454Z"/><path class="b" d="M87.2,51.088l-2.089,1.923a1.934,1.934,0,0,0-.414,2.185,1.5,1.5,0,0,0,.414.644,2.016,2.016,0,0,0,1.414.586l.532-.072a1.99,1.99,0,0,0,.882-.514l2.089-1.924a1.933,1.933,0,0,0,.414-2.184,1.5,1.5,0,0,0-.414-.644,2.01,2.01,0,0,0-1.414-.586l-.532.072a2,2,0,0,0-.882.514Z"/><path class="b" d="M114.776,102.132A54.433,54.433,0,0,1,128.5,108.4,31.447,31.447,0,0,1,139,120.306c2.949,5.8,4.2,12.311,5.026,18.707a238.952,238.952,0,0,1,1.7,26.872c.082,5.12.071,10.241.04,15.361a50.811,50.811,0,0,1-.157,6.589,4.087,4.087,0,0,1-2.174,3.093c-2.144,1.405-.142,4.87,2.019,3.453a8.806,8.806,0,0,0,3.409-3.513,12.358,12.358,0,0,0,.869-4.853c.126-4.862.073-9.741.05-14.6a283.9,283.9,0,0,0-1.322-28.72c-.8-7.533-1.909-15.1-4.928-22.1a35.215,35.215,0,0,0-10.582-13.867c-5.1-3.99-11-6.455-17.113-8.449-2.453-.8-3.5,3.061-1.063,3.857Z"/><path class="b" d="M70.124,97.944c.324,4.231,2.337,8.209,4.342,11.877,1.812,3.318,3.7,6.587,5.45,9.942,4.405,8.462,8.743,16.962,13.109,25.445,1.677,3.257,3.324,6.523,5.1,9.725,1.25,2.251,4.706.236,3.454-2.019-7.832-14.107-14.508-28.841-22.427-42.9-2.06-3.658-4.7-7.778-5.03-12.066-.195-2.551-4.2-2.572-4,0Z"/><path class="b" d="M112.016,99.745a138.928,138.928,0,0,1-3.459,22.708,209.212,209.212,0,0,1-6.338,23.522,37.447,37.447,0,0,1-3.29,7.773c-1.335,2.209,2.123,4.222,3.454,2.019a40.366,40.366,0,0,0,3.184-7.277c1.27-3.533,2.35-7.135,3.353-10.752a239.68,239.68,0,0,0,5.651-25.51,110,110,0,0,0,1.445-12.483c.12-2.573-3.88-2.567-4,0Z"/><path class="b" d="M129.977,145.287c0,5,.139,10,.032,15-.061,2.874-.182,5.752-.39,8.619a55.409,55.409,0,0,1-1.577,8.9c-.6,2.5,3.255,3.569,3.857,1.063a85.527,85.527,0,0,0,2.1-18.21c.121-5.122-.021-10.245-.024-15.368,0-2.574-4-2.578-4,0Z"/><path class="b" d="M60.881,115.972q1.648.825,3.29,1.662.891.457,1.779.92.523.273,1.044.55c.175.093.728.587.566.22l-.273-1.009v.257l.274-1.01c-1.526,3.3-7.431,6.862-4.535,10.968a83.093,83.093,0,0,0,6.252,7.115q8.86,9.9,17.838,19.693c1.738,1.906,4.561-.929,2.829-2.828q-8.3-9.109-16.557-18.264-3.088-3.44-6.145-6.907c-.194-.222-.929-.841-.981-1.1-.091-.453,1.024-1.6,1.318-2.008a37.363,37.363,0,0,0,3.434-4.649c1.237-2.456-1.492-3.672-3.222-4.574-1.622-.845-3.255-1.67-4.891-2.489-2.3-1.148-4.324,2.3-2.019,3.454Z"/><path class="b" d="M124,111.817c-1.019.962-2.788,2.149-3.174,3.537-.465,1.676.7,2.79,1.788,3.863q.825.811,1.64,1.634c.325.329,1.32,1.059,1.4,1.482v-1.064a15.654,15.654,0,0,1-1.169,2.954q-.813,1.9-1.649,3.78-1.792,4.041-3.7,8.031-3.5,7.338-7.256,14.545c-1.186,2.281,2.265,4.306,3.454,2.019,3.392-6.523,6.665-13.111,9.708-19.8q2.144-4.713,4.136-9.492c1.479-3.548-3.042-5.749-4.924-8.138l.514.883c.2.494-.392.706.11.439a4.755,4.755,0,0,0,.776-.733l1.173-1.107c1.875-1.771-.957-4.6-2.829-2.829Z"/><path class="b" d="M74.233,98.862c.648-1.376,1.251-2.775,1.78-4.2a2.018,2.018,0,0,0-.2-1.541,2,2,0,0,0-2.737-.717l-.4.312a2,2,0,0,0-.515.883q-.329.886-.7,1.757l.2-.477q-.42.992-.881,1.965a1.486,1.486,0,0,0-.237.743,1.515,1.515,0,0,0,.035.8,2.038,2.038,0,0,0,.92,1.195,2.017,2.017,0,0,0,1.541.2,1.964,1.964,0,0,0,1.2-.919Z"/></svg>