<?xml version="1.0" standalone="no"?>
<!DOCTYPE svg PUBLIC "-//W3C//DTD SVG 20010904//EN"
 "http://www.w3.org/TR/2001/REC-SVG-20010904/DTD/svg10.dtd">
<svg version="1.0" xmlns="http://www.w3.org/2000/svg"
 width="700.000000pt" height="700.000000pt" viewBox="0 0 700.000000 700.000000"
 preserveAspectRatio="xMidYMid meet">
<metadata>
Created by potrace 1.14, written by Peter Selinger 2001-2017
</metadata>
<g transform="translate(0.000000,700.000000) scale(0.100000,-0.100000)"
fill="#000000" stroke="none">
<path d="M3303 6594 c-46 -16 -80 -49 -94 -92 -6 -19 -12 -90 -13 -157 l-1
-122 -51 -55 c-28 -31 -66 -86 -85 -122 l-34 -66 -928 0 -928 1 -38 -22 c-47
-26 -50 -31 -154 -264 -91 -204 -123 -274 -168 -373 -16 -35 -29 -65 -29 -67
0 -2 -15 -36 -34 -77 -37 -80 -275 -611 -337 -750 -21 -48 -52 -116 -67 -150
-16 -35 -46 -101 -67 -148 -21 -47 -49 -110 -62 -140 -14 -30 -54 -120 -90
-200 -36 -80 -79 -174 -95 -209 -29 -61 -30 -69 -24 -160 25 -431 277 -815
664 -1010 68 -34 244 -96 302 -105 286 -48 536 -13 775 106 392 196 653 600
664 1029 l2 80 -102 227 c-56 125 -124 277 -151 337 -27 61 -55 124 -63 140
-55 124 -377 840 -393 875 -11 25 -48 108 -82 185 -34 77 -70 158 -80 180 -10
22 -34 75 -54 119 -20 43 -36 80 -36 82 0 2 357 4 793 4 l792 0 27 -58 c15
-32 51 -84 80 -116 l53 -59 1 -1948 0 -1949 -20 -1 c-12 0 -325 -1 -696 -1
-458 0 -687 -3 -714 -11 -63 -18 -44 13 -378 -637 -72 -140 -136 -261 -142
-269 -5 -7 -10 -36 -10 -65 0 -65 30 -117 82 -142 35 -17 130 -18 2167 -19
1224 -1 2145 3 2165 8 67 17 120 91 114 160 -2 22 -32 92 -73 170 -37 73 -108
209 -156 302 -185 358 -218 421 -236 447 -41 57 -39 57 -802 55 l-697 -2 0
1948 0 1949 59 64 c32 35 69 89 82 119 l24 55 792 0 793 0 -24 -52 c-205 -459
-315 -704 -362 -806 -19 -40 -34 -75 -34 -77 0 -2 -18 -43 -40 -90 -22 -47
-40 -88 -40 -90 0 -2 -20 -46 -45 -99 -25 -53 -45 -98 -45 -100 0 -3 -15 -37
-34 -78 -19 -40 -73 -161 -121 -268 -48 -107 -95 -214 -106 -237 -118 -264
-110 -239 -108 -334 5 -220 87 -461 222 -651 23 -33 79 -98 125 -144 266 -270
634 -396 1022 -350 304 36 623 230 813 494 81 113 174 312 192 410 2 15 9 52
15 82 6 30 13 94 16 142 6 88 6 88 -39 185 -59 129 -150 332 -287 638 -62 138
-123 275 -137 305 -14 30 -51 114 -83 185 -32 72 -70 157 -85 190 -15 33 -39
87 -54 120 -15 33 -106 236 -201 450 -95 215 -184 405 -198 424 -48 65 0 62
-1016 62 l-922 -1 -29 62 c-16 34 -56 90 -87 124 l-58 62 0 126 c0 147 -14
188 -77 226 -35 22 -50 23 -211 24 -113 1 -186 -2 -209 -10z m293 -612 c53
-39 64 -53 78 -109 45 -174 -168 -295 -300 -171 -62 58 -70 170 -17 236 63 77
166 96 239 44z m-2286 -767 c51 -115 109 -244 128 -285 19 -41 50 -111 69
-155 20 -44 45 -102 58 -130 180 -400 253 -563 280 -625 33 -76 68 -154 131
-289 19 -40 32 -76 29 -79 -6 -6 -1584 -11 -1597 -5 -5 3 148 354 262 599 16
36 30 67 30 69 0 3 15 37 34 77 18 40 52 116 76 168 23 52 49 111 58 130 32
73 215 481 274 613 34 75 65 134 68 130 4 -5 49 -102 100 -218z m4591 -15 c55
-124 107 -238 114 -255 45 -98 206 -459 251 -562 29 -67 66 -150 83 -185 39
-83 63 -138 161 -358 45 -102 83 -187 85 -190 2 -3 -359 -5 -801 -5 -442 0
-804 3 -804 7 0 9 189 434 286 646 19 41 34 75 34 77 0 2 18 43 41 92 23 48
67 147 99 218 64 145 82 185 134 298 20 44 36 80 36 83 0 2 19 45 43 96 24 51
61 134 83 185 21 50 42 88 46 84 4 -3 53 -108 109 -231z"/>
</g>
</svg>
