<?xml version="1.0" encoding="utf-8"?>
<!-- Uploaded to: SVG Repo, www.svgrepo.com, Generator: SVG Repo Mixer Tools -->
<svg width="800px" height="800px" viewBox="0 -2.72 253.649 253.649" xmlns="http://www.w3.org/2000/svg"><defs><style>.a{fill:#ffffff;}.b{fill:#85807f;}.c{fill:#211715;}.d{fill:#ffda71;}</style></defs><path class="a" d="M5.722,245.908c1.824-5.528,5.291-13.84,6.364-16.137A48.941,48.941,0,0,1,24.541,213.1c6.231-5.28,11.61-8.424,19.512-12.012,9.972-4.1,23.892-9.492,33.305-12.39,9.792,10.17,28.377,18.107,48.031,18.107,19.908,0,38.24-7.937,48.035-18.1,9.832,3.5,23.329,8.293,33.3,12.388,7.9,3.588,13.28,6.732,19.511,12.012a48.958,48.958,0,0,1,12.456,16.668c1.073,2.3,4.54,10.609,6.363,16.137Z"/><path class="a" d="M183.155,94.48a9.031,9.031,0,0,1,6.528-2.389c4.68.164,6.671,2.7,7.528,4.182,2.558,4.436,2.449,12.61.733,17.667-1.216,3.582-3.208,9.061-8.01,12.99a9.952,9.952,0,0,1-7.675,2.215l-.726-.123a59.915,59.915,0,0,1-2.651,7.166c-1.872,5.083-11.878,22.391-24.739,30.183.367,3.16.463,5.466.682,8.877a9.47,9.47,0,0,0,6.024,8.66c1.563.8,9.714,3.826,12.581,4.813-9.814,10.155-28.14,18.087-48.041,18.087-19.655,0-38.241-7.938-48.039-18.1,2.913-1,10.975-4,12.528-4.8a9.468,9.468,0,0,0,6.024-8.66c.222-3.449.318-5.768.694-8.98A55.166,55.166,0,0,1,82.179,153.6a68.67,68.67,0,0,1-13.032-24.589,9.749,9.749,0,0,1-8.3-2.076c-4.8-3.929-6.794-9.408-8.01-12.99-1.717-5.057-1.825-13.231.733-17.667.857-1.487,2.848-4.018,7.527-4.182a9.031,9.031,0,0,1,6.529,2.389s-1.334-51.805,59.866-51.805C189.489,42.675,183.155,94.48,183.155,94.48Z"/><path class="b" d="M89.463,74.165A172.621,172.621,0,0,0,76.856,86.728L67.623,94.48a9.031,9.031,0,0,0-6.529-2.389,10.938,10.938,0,0,0-2.816.446A76.194,76.194,0,0,1,55.449,69.7C56.613,42.14,71.17,25.111,84.025,15.552,95.1,7.318,108.93,2.406,125.223,2.406A68.417,68.417,0,0,1,166.771,15.8C180.077,25.4,193.848,42.377,195,69.7c.331,7.833-.59,14.221-2.753,22.761a11.2,11.2,0,0,0-2.566-.373,9.031,9.031,0,0,0-6.528,2.389l-9.163-7.259c-2.958-7.444-9.638-15.669-16.6-21.664a37.085,37.085,0,0,0-10.572-6.649L135.337,57.5C127.6,60.76,116.68,67.61,110.554,71.013a2.1,2.1,0,0,1-2.988-2.251,11.055,11.055,0,0,0-.264-4.026c-.408-1.681-1.7-2.4-2.707-1.868C100.12,65.216,94.653,69.5,89.463,74.165Z"/><path class="c" d="M69.32,92.783a12.192,12.192,0,0,0-13.649-1.761c-3.23,1.638-5.032,4.952-5.815,8.365-1.866,8.136.179,17.275,4.8,24.175,3.334,4.98,8.231,8.784,14.5,7.9a2.415,2.415,0,0,0,1.676-2.952,2.464,2.464,0,0,0-2.952-1.676c-3.732.527-6.928-2.578-8.869-5.379a31.439,31.439,0,0,1-3.961-8.445,25.459,25.459,0,0,1-.948-9.983,15.305,15.305,0,0,1,1.113-4.736,11.222,11.222,0,0,1,.7-1.247c.067-.108.145-.215.219-.317-.023.032-.236.289-.056.072a8.518,8.518,0,0,1,.627-.675c2.25-2.157,6.725-2.227,9.225.056,2.277,2.08,5.681-1.305,3.394-3.394Z"/><path class="c" d="M172.8,191.023c6.288,2.238,12.576,4.477,18.834,6.8a180.592,180.592,0,0,1,18.486,7.537,69.3,69.3,0,0,1,15.418,10.321,47.421,47.421,0,0,1,11.077,15.305,147.369,147.369,0,0,1,6.122,15.564c.969,2.918,5.607,1.667,4.629-1.276-1.776-5.345-3.9-10.605-6.175-15.755A52.106,52.106,0,0,0,230.829,214.1a66.686,66.686,0,0,0-15.821-11.606,152.023,152.023,0,0,0-19.054-8.168c-7.26-2.728-14.567-5.329-21.874-7.93a2.423,2.423,0,0,0-2.952,1.676,2.449,2.449,0,0,0,1.676,2.953Z"/><path class="c" d="M8.036,246.546c1.67-5.027,3.665-10.061,5.773-14.795a48.1,48.1,0,0,1,10.148-14.872c9.385-9.185,21.62-13.979,33.651-18.614,6.721-2.59,13.483-5.113,20.366-7.242,2.941-.911,1.686-5.546-1.276-4.629-6.281,1.943-12.458,4.222-18.6,6.565-6.433,2.454-12.956,4.845-19.137,7.889a76.364,76.364,0,0,0-16.623,10.994,50.644,50.644,0,0,0-12.175,16.4A150.457,150.457,0,0,0,3.408,245.27c-.976,2.938,3.658,4.2,4.628,1.276Z"/><path class="c" d="M77.974,191.023c3.628-1.256,7.239-2.592,10.8-4.04a20.223,20.223,0,0,0,5.363-2.868,11.508,11.508,0,0,0,3.767-6.126c.758-3.08.59-6.43.873-9.581a2.419,2.419,0,0,0-2.4-2.4,2.451,2.451,0,0,0-2.4,2.4c-.149,1.655-.252,3.312-.353,4.97a14.171,14.171,0,0,1-.563,4.091c-.691,2.122-2.332,3.448-4.65,4.493-.156.07-.314.137-.469.209-.442.207.441-.176-.018.009-.5.2-.988.4-1.485.6-1.145.452-2.294.89-3.446,1.324-2.089.786-4.182,1.562-6.29,2.292a2.459,2.459,0,0,0-1.677,2.952,2.424,2.424,0,0,0,2.953,1.677Z"/><path class="c" d="M174.03,186.394c-2.109-.73-4.2-1.506-6.29-2.292-1.152-.434-2.3-.872-3.447-1.324-.468-.185-.935-.375-1.4-.564-.588-.239.3.143-.1-.043-.155-.072-.313-.139-.469-.209-2.316-1.045-3.961-2.381-4.649-4.493a14.2,14.2,0,0,1-.563-4.091c-.1-1.658-.205-3.315-.354-4.97a2.463,2.463,0,0,0-2.4-2.4,2.419,2.419,0,0,0-2.4,2.4c.471,5.232-.1,11.034,3.927,15.065a16.247,16.247,0,0,0,5.492,3.269c1.761.735,3.547,1.409,5.333,2.08,2.008.754,4.02,1.5,6.047,2.2a2.4,2.4,0,0,0,1.276-4.629Z"/><path class="c" d="M184.852,96.177a7.248,7.248,0,0,1,8.7-.5,5.011,5.011,0,0,1,1.583,1.8,12.9,12.9,0,0,1,1.393,4.383,27.539,27.539,0,0,1-3.952,18.33c-1.968,3.25-5.419,7.236-9.682,6.634a2.48,2.48,0,0,0-2.952,1.676,2.416,2.416,0,0,0,1.676,2.952c10.216,1.444,16.194-8.964,18.781-17.327a29.894,29.894,0,0,0,.814-13.188c-.55-3.59-1.983-7.088-5.015-9.251a12.081,12.081,0,0,0-14.743,1.09c-2.286,2.088,1.116,5.475,3.394,3.394Z"/><path class="c" d="M180.3,124.142a75.359,75.359,0,0,1-3.953,11.978c.292-.758-.031.064-.1.218-.112.249-.228.5-.346.742-.273.57-.559,1.133-.853,1.692-.726,1.376-1.5,2.726-2.313,4.054a72.116,72.116,0,0,1-15.684,18.585,28.994,28.994,0,0,1-11.632,6.02c-3.01.69-1.736,5.319,1.276,4.629,8.707-2,15.941-8.4,21.612-15.011a77.948,77.948,0,0,0,12.085-18.289q.278-.615.533-1.24c.07-.17.4-.948.12-.307.46-1.052.908-2.107,1.313-3.182a56.871,56.871,0,0,0,2.572-8.613,2.459,2.459,0,0,0-1.676-2.952,2.424,2.424,0,0,0-2.953,1.676Z"/><path class="c" d="M65.685,125.213a71.847,71.847,0,0,0,10.3,24.093c5.16,7.69,11.91,14.89,20.074,19.416a39.908,39.908,0,0,0,13.549,4.609,2.48,2.48,0,0,0,2.953-1.676,2.417,2.417,0,0,0-1.677-2.952c-17.261-2.532-30.175-17.515-36.742-32.826a68.782,68.782,0,0,1-3.826-11.94c-.681-3.012-5.31-1.737-4.629,1.276Z"/><path class="c" d="M164.967,11.655A71.549,71.549,0,0,0,131.811.278,74.774,74.774,0,0,0,95.264,6.2,72.305,72.305,0,0,0,56.68,49.074a76.646,76.646,0,0,0-.994,43.062c.769,2.989,5.4,1.722,4.629-1.276a72.168,72.168,0,0,1-.135-36.711A65.263,65.263,0,0,1,73.385,28.784,65.9,65.9,0,0,1,127.24,4.831a67.337,67.337,0,0,1,35.3,10.969c2.6,1.689,5.005-2.465,2.422-4.145Z"/><path class="c" d="M194.8,92.136a83.012,83.012,0,0,0,2.651-18.047A79.776,79.776,0,0,0,195.78,56.4a69.154,69.154,0,0,0-11.7-26.72,70.95,70.95,0,0,0-9.643-10.755c-2.283-2.072-5.687,1.313-3.394,3.394a65.07,65.07,0,0,1,14.89,19.76,70.407,70.407,0,0,1,6.728,29.843,75.412,75.412,0,0,1-2.489,18.934c-.736,3,3.892,4.279,4.629,1.276Z"/><path class="c" d="M114.938,142.8A22.969,22.969,0,0,0,126,145.35c3.908-.026,7.917-.77,11.055-3.215a2.414,2.414,0,0,0,0-3.394,2.463,2.463,0,0,0-3.4,0c.694-.54.037-.045-.14.069-.227.146-.462.281-.7.406-.141.074-.924.421-.387.2-.318.128-.641.246-.967.351a17.7,17.7,0,0,1-5.829.779,18.426,18.426,0,0,1-5.565-.75c-.354-.105-.7-.231-1.048-.352-.115-.04-.225-.09-.339-.132.589.218.073.033-.038-.019-.434-.2-.861-.418-1.285-.642a2.453,2.453,0,0,0-3.284.861,2.427,2.427,0,0,0,.861,3.284Z"/><path class="c" d="M125.029,116.419a53.45,53.45,0,0,1,1.252,5.728l-.086-.638a3.489,3.489,0,0,1,.021.791l.086-.638a1.958,1.958,0,0,1-.087.355l.242-.573a1.415,1.415,0,0,1-.126.229l.376-.486a1.211,1.211,0,0,1-.187.185l.485-.376a3.7,3.7,0,0,1-.453.24l.573-.242a3.293,3.293,0,0,1-.765.224l.638-.086a3.071,3.071,0,0,1-.717,0l.638.085c-.271-.037-.537-.1-.807-.14a2.657,2.657,0,0,0-1.85.242,2.4,2.4,0,0,0-.861,3.284,2.3,2.3,0,0,0,1.435,1.1c.568.076,1.12.223,1.7.248a5.322,5.322,0,0,0,2.441-.572,3.4,3.4,0,0,0,1.923-2.259,5.876,5.876,0,0,0-.027-2.494c-.312-1.846-.738-3.675-1.213-5.485a2.4,2.4,0,0,0-4.628,1.276Z"/><path class="c" d="M94.388,100.424c-.931,3.025-.324,9.983,5.406,10.575,7.574-.045,7.977-8.458,5.428-12.413C103.134,95.347,97,94,94.388,100.424Z"/><path class="c" d="M156.39,100.424c.931,3.025.324,9.983-5.406,10.575-7.574-.046-7.978-8.458-5.428-12.414C147.643,95.347,153.781,94,156.39,100.424Z"/><path class="c" d="M145.6,60.981a46.782,46.782,0,0,1,14.974,10.9c4.457,4.626,8.672,9.972,11.1,15.976a2.475,2.475,0,0,0,2.952,1.676,2.417,2.417,0,0,0,1.677-2.952,57.576,57.576,0,0,0-12.029-17.775,50.71,50.71,0,0,0-16.252-11.972,2.477,2.477,0,0,0-3.283.861,2.417,2.417,0,0,0,.861,3.284Z"/><path class="c" d="M78.553,88.425c6.867-7.634,14.47-15.089,22.981-20.882.889-.606,1.795-1.189,2.722-1.736a14.177,14.177,0,0,0,1.256-.728c-.015-.056-1.013.28-.667-.1,0,0,.047.012.034.027-.075.088.335,1.623.349,1.916a14.762,14.762,0,0,1-.046,1.683,4.7,4.7,0,0,0,1.931,4.235c2.428,1.714,4.757.208,6.952-1.056,2.153-1.241,4.293-2.5,6.442-3.752a146.381,146.381,0,0,1,16.041-8.458,2.413,2.413,0,0,0,.861-3.284,2.463,2.463,0,0,0-3.283-.861,134.792,134.792,0,0,0-14.363,7.487c-2.289,1.319-4.566,2.66-6.85,3.987-.945.549-1.891,1.1-2.843,1.633a4.382,4.382,0,0,0-.489.275c-.419.32-.173.039.144.062.436.032.207.594.273-.428.17-2.645-.171-6.146-2.73-7.61-2.483-1.421-5,.5-7.05,1.831a101.1,101.1,0,0,0-12.542,9.886A167.316,167.316,0,0,0,75.159,85.031c-2.062,2.291,1.322,5.7,3.394,3.394Z"/><path class="c" d="M75.638,190.381c9.588,9.883,23.509,15.546,36.907,17.738a79.023,79.023,0,0,0,44.776-5.695,56.92,56.92,0,0,0,17.818-12.043c2.152-2.218-1.238-5.616-3.394-3.394-8.788,9.062-21.36,14.141-33.605,16.319a73.516,73.516,0,0,1-42.221-5.046,53.422,53.422,0,0,1-16.886-11.273c-2.155-2.221-5.548,1.175-3.395,3.394Z"/><path class="a" d="M89.624,222.405a77.026,77.026,0,0,1-13.176-4.795c1.758-7.2,4-18.441,5.8-26.063a22.178,22.178,0,0,1,1.847-5.126c-9.89-8.787-20.277-18.443-23.415-32.347-.765-3.39-2.733-31.766-2.006-37.717a9.709,9.709,0,0,1,1.158-3.449,5.6,5.6,0,0,1,4.135-2.4,3.983,3.983,0,0,1,3.572,1.285c1.025,1.013,1.856,3.731,2.209,5.129l.769,3.046a6.115,6.115,0,0,1,3.559,1.836c1.425,1.467,1.839,3.417,2.6,5.316,2.172,5.428,4.44,14.17,7.271,20.172a11.677,11.677,0,0,0,2.357,3.369,72.223,72.223,0,0,0,16.246,12.491c2.741,1.6,6.073,3.71,7.082,5.343,2.669,4.318,2.674,9.139,1.4,14.545-1.16,13.32-1.7,28.6-3.534,42.351A89.463,89.463,0,0,1,89.624,222.405Z"/><path class="c" d="M74.881,154.235a110.64,110.64,0,0,1-4.233-14.559c-.988-4.614-1.711-9.28-2.562-13.92-.272-1.479.3-3.61,2.2-3.406,2.176.233,3.023,2.521,3.653,4.271,1.593,4.428,3.074,8.883,4.593,13.338.812,2.381,1.68,4.739,2.674,7.051a18.58,18.58,0,0,0,4.336,6.26,78.469,78.469,0,0,0,10.949,8.955c2.039,1.359,4.166,2.565,6.257,3.84,1.748,1.066,4.062,2.359,5.026,4a12.814,12.814,0,0,1,1.684,6.291c.051,2.727-.712,5.3-.937,8-1.063,12.732-1.561,25.511-3.064,38.2a2.413,2.413,0,0,0,2.4,2.4,2.458,2.458,0,0,0,2.4-2.4c1.433-12.109,1.958-24.3,2.921-36.447.228-2.869.948-5.668,1.066-8.547a18.6,18.6,0,0,0-1.442-8.13c-2.139-4.966-7.224-7.173-11.583-9.87a71.088,71.088,0,0,1-11.677-9.1,19.726,19.726,0,0,1-2.49-2.583,16.918,16.918,0,0,1-1.751-3.409c-1-2.4-1.841-4.868-2.662-7.334-.827-2.484-1.613-4.982-2.47-7.456a66.473,66.473,0,0,0-2.706-7.121c-2.458-5.092-9.724-7.114-13.108-1.769a7.568,7.568,0,0,0-1.2,4.346,45.426,45.426,0,0,0,.825,4.8c.483,2.731.943,5.466,1.467,8.19a114.311,114.311,0,0,0,4.807,17.386,2.462,2.462,0,0,0,2.952,1.676,2.42,2.42,0,0,0,1.676-2.952Z"/><path class="c" d="M72.066,116.288c-1.027-3.98-3.169-8.684-8.1-8.176a8.169,8.169,0,0,0-6.028,3.293,11.685,11.685,0,0,0-1.717,5.468c-.434,5.079.013,10.312.276,15.389.306,5.9.685,11.808,1.261,17.691a39.133,39.133,0,0,0,.7,5.152,43.2,43.2,0,0,0,5.166,12.383c5.077,8.367,12.422,15,19.676,21.43,2.3,2.043,5.711-1.34,3.395-3.394-5.806-5.149-11.754-10.371-16.372-16.655a43.646,43.646,0,0,1-5.718-10.128,34.171,34.171,0,0,1-1.63-5.4c-.043-.212-.074-.427-.11-.64-.032-.194-.087-.743.006.065-.02-.179-.045-.358-.067-.537-.578-4.8-.882-9.641-1.187-14.464-.352-5.549-.665-11.114-.7-16.676-.007-1.08,0-2.161.045-3.24.017-.386.034-.773.075-1.157a8.063,8.063,0,0,1,.677-2.211c.592-1.184,2.516-2.151,3.748-1.317,1.165.788,1.6,2.978,1.971,4.4.771,2.988,5.4,1.721,4.628-1.276Z"/><path class="c" d="M79.06,217.014C80.245,212,81.3,206.956,82.391,201.92c.537-2.485,1.078-4.969,1.643-7.448a27.945,27.945,0,0,1,2.023-6.634c1.41-2.742-2.73-5.174-4.145-2.423-2.318,4.509-3,9.913-4.061,14.82-1.12,5.172-2.2,10.353-3.42,15.5-.71,3,3.917,4.286,4.629,1.276Z"/><path class="c" d="M72.78,218.4a72.1,72.1,0,0,0,16.555,6.411,89.588,89.588,0,0,0,20.552,3.082c3.09.086,3.088-4.714,0-4.8a83.927,83.927,0,0,1-19.276-2.91A66.775,66.775,0,0,1,75.2,214.257c-2.7-1.508-5.123,2.637-2.423,4.145Z"/><path class="c" d="M107.573,224.857c-.924,6.348-1.878,12.691-2.752,19.047a2.483,2.483,0,0,0,1.677,2.952,2.417,2.417,0,0,0,2.952-1.676c.873-6.356,1.828-12.7,2.751-19.047a2.479,2.479,0,0,0-1.676-2.952,2.417,2.417,0,0,0-2.952,1.676Z"/><path class="d" d="M236.813,86.752a.8.8,0,0,1-1.549.02c-.875-3.376-2.234-7.407-4.3-9.81-2.518-2.932-6.157-4.177-9.529-4.9a.8.8,0,0,1,0-1.558c3.34-.708,7.022-1.955,9.47-4.6,2.331-2.515,3.647-7.577,4.384-11.012a.8.8,0,0,1,1.556-.018c.821,3.435,2.281,8.51,4.616,11.03,2.424,2.616,5.928,3.864,9.165,4.576a.8.8,0,0,1-.012,1.558c-3.457.693-7.247,1.88-9.764,4.811C238.792,79.253,237.606,83.347,236.813,86.752Z"/><path class="d" d="M20.108,184.128a.883.883,0,0,1-1.716.021c-.97-3.739-2.475-8.206-4.762-10.869-2.79-3.248-6.821-4.628-10.559-5.43a.883.883,0,0,1,0-1.726c3.7-.784,7.781-2.166,10.493-5.093,2.583-2.787,4.041-8.4,4.857-12.2a.884.884,0,0,1,1.724-.02c.909,3.805,2.528,9.429,5.115,12.221,2.686,2.9,6.568,4.281,10.155,5.069a.883.883,0,0,1-.013,1.727c-3.831.768-8.031,2.083-10.819,5.33C22.3,175.818,20.987,180.355,20.108,184.128Z"/><path class="c" d="M234.5,86.114l-.1.241.617-1.059q2.979,1.72,2.365.1-.1-.375-.211-.747-.22-.765-.468-1.521c-.359-1.09-.771-2.158-1.226-3.211a17.385,17.385,0,0,0-3.08-4.955,15.146,15.146,0,0,0-4.837-3.434,24.3,24.3,0,0,0-3.018-1.155c-.89-.272-1.853-.395-2.717-.727l1.059.618,0,2.025-1.059.618c.949-.361,2-.494,2.975-.8a25.1,25.1,0,0,0,3.266-1.273,14.184,14.184,0,0,0,5.313-4.194,19.639,19.639,0,0,0,2.692-5.443c.67-1.925.908-4.031,1.626-5.92l-.617,1.059-2.031-.015-.618-1.059c.719,1.767,1,3.757,1.644,5.567a21.679,21.679,0,0,0,2.813,5.683,14.389,14.389,0,0,0,5.115,4.209A23.994,23.994,0,0,0,247.08,72c1.032.348,2.153.5,3.162.892l-1.059-.618-.01-2.023,1.059-.618c-.888.326-1.876.437-2.79.7a24.628,24.628,0,0,0-3.093,1.125,14.712,14.712,0,0,0-4.926,3.4c-2.818,3.05-4,7.313-4.925,11.257-.707,3,3.92,4.286,4.629,1.276.787-3.342,1.644-7.257,4.245-9.7a11.842,11.842,0,0,1,4.437-2.454c1.712-.563,4.261-.577,5.321-2.231a3.239,3.239,0,0,0-2.041-4.881,23.953,23.953,0,0,1-5-1.721,9.369,9.369,0,0,1-3.614-3.118,20.417,20.417,0,0,1-2.074-4.625,38.773,38.773,0,0,0-1.455-4.956,3.2,3.2,0,0,0-5.253-.757c-1.123,1.23-1.221,3.627-1.675,5.189a21.515,21.515,0,0,1-1.863,4.715c-1.711,2.992-5.07,4.3-8.268,5.088a4.983,4.983,0,0,0-2.484,1.035,3.233,3.233,0,0,0-.9,3.057c.559,2.214,2.748,2.373,4.588,2.92a13.213,13.213,0,0,1,5.076,2.585,12.526,12.526,0,0,1,3.08,4.6,31.52,31.52,0,0,1,1.072,3.032,11.325,11.325,0,0,0,1.163,3.293,3.13,3.13,0,0,0,3,1.253,3.294,3.294,0,0,0,2.65-2.328,2.417,2.417,0,0,0-1.676-2.952A2.457,2.457,0,0,0,234.5,86.114Z"/><path class="c" d="M17.793,183.49l.006-.14.861-.861a1.883,1.883,0,0,1,1.528.2l.617,1.059c-.828-2.022-1.221-4.227-2.062-6.264a21.011,21.011,0,0,0-3.549-6.055A16.327,16.327,0,0,0,9.745,167.5a27.075,27.075,0,0,0-3.2-1.231c-.47-.146-.944-.278-1.421-.4q-.441-.113-.885-.213c-.169-.039-.585-.252-.4-.113l.861.861a2.254,2.254,0,0,1,0,1.17l-.861.861c-.247.184.251-.076.412-.112.3-.069.606-.141.908-.217q.83-.21,1.646-.465a27.494,27.494,0,0,0,3.447-1.346,15.485,15.485,0,0,0,5.79-4.518A21.591,21.591,0,0,0,19.1,155.6c.359-1.048.669-2.113.949-3.184q.219-.843.415-1.69.073-.32.145-.641c.034-.154.068-.309.1-.463q.051-.292.026-.023l-.861.861a1.936,1.936,0,0,1-1.515-.2l-.617-1.059c.774,1.989,1.1,4.184,1.829,6.207A23.48,23.48,0,0,0,22.6,161.53a15.748,15.748,0,0,0,5.5,4.562,25.372,25.372,0,0,0,3.6,1.488q.811.267,1.639.485.361.1.726.184c.179.043.757.288.593.164l-.861-.861a2.289,2.289,0,0,1-.009-1.168l.861-.861c.186-.136-.077.04-.237.064-.242.036-.486.1-.725.157q-.828.189-1.646.417a26.493,26.493,0,0,0-3.289,1.177,16.306,16.306,0,0,0-5.592,3.823c-3.068,3.34-4.347,8.019-5.362,12.329-.707,3,3.921,4.286,4.629,1.276.871-3.7,1.827-8.051,4.682-10.775a13.22,13.22,0,0,1,4.931-2.808c1.836-.622,4.739-.63,5.893-2.376,1.4-2.112.061-4.521-2.231-5.1a23.6,23.6,0,0,1-5.52-1.937,10.534,10.534,0,0,1-4-3.465,22.139,22.139,0,0,1-2.234-4.883c-.6-1.765-.942-3.611-1.532-5.372a3.3,3.3,0,0,0-5.641-1.116,5.517,5.517,0,0,0-.944,2.516c-.227.979-.474,1.954-.752,2.92a24.985,24.985,0,0,1-2.014,5.209c-1.824,3.305-5.3,4.87-8.815,5.8a9.4,9.4,0,0,0-2.832.907,3.237,3.237,0,0,0-1.413,2.926c.138,2.724,2.86,2.969,4.907,3.574a15.35,15.35,0,0,1,5.628,2.8A13.879,13.879,0,0,1,14.2,178.97c.438,1.042.8,2.122,1.135,3.2a21.881,21.881,0,0,0,.962,3.143,3.272,3.272,0,0,0,3.071,1.882,3.371,3.371,0,0,0,3.053-2.431,2.42,2.42,0,0,0-1.676-2.953A2.455,2.455,0,0,0,17.793,183.49Z"/></svg>