<svg id="visual" viewBox="0 0 1920 1080" width="1920" height="1080" xmlns="http://www.w3.org/2000/svg" xmlns:xlink="http://www.w3.org/1999/xlink" version="1.1"><g transform="translate(1004.5083199507766 548.5709084379394)"><path d="M222.4 -272.2C289.7 -208.6 346.7 -139.9 358.2 -64.7C369.6 10.5 335.5 92.3 295 177.7C254.5 263.2 207.6 352.4 142 365.7C76.4 379 -8 316.4 -92.9 276.3C-177.9 236.3 -263.5 218.9 -336.7 161C-409.9 103.1 -470.9 4.7 -442.2 -64C-413.5 -132.7 -295.1 -171.7 -206.5 -231.6C-117.8 -291.4 -58.9 -372.2 9.3 -383.3C77.6 -394.4 155.1 -335.9 222.4 -272.2" fill="#c7ceda"></path></g></svg>