<?xml version="1.0" encoding="utf-8"?>
<!-- Uploaded to: SVG Repo, www.svgrepo.com, Generator: SVG Repo Mixer Tools -->
<svg width="800px" height="800px" viewBox="-60.48 0 326.262 326.262" xmlns="http://www.w3.org/2000/svg"><defs><style>.a{fill:#ffffff;}.b{fill:#957f6e;}.c{fill:#bdbdbd;}.d{fill:#211715;}.e{fill:#7a7473;}</style></defs><path class="a" d="M109.865,234.054c-1.814,4.985-3.669,10.1-5.758,15.935-4.493-12.429-9.469-25.5-13.9-37.838-3.838-10.7-7.838-22.328-11.708-33.74l.429.11.421.1a101.589,101.589,0,0,0,23.181,3.331c7.392.018,17.91-1.15,25.13-4.022a18.922,18.922,0,0,0,2.327-.722c-3.916,12.161-8.442,24.488-12.478,35.738-2.543,7.09-4.749,13.141-6.982,19.277Q110.2,233.137,109.865,234.054Z"/><path class="b" d="M161.13,168.3c8.58-1.87,14.56-10.47,14.5-18a53.434,53.434,0,0,0-2.94-17.09c-2.4-7.472-7.076-22.783-7.445-49.8.708-7.683,0-18.962-.308-23.269-1.052-14.775-7.658-31.275-17.164-40.445-4.11-3.965-5.3-5.816-9.777-8.244L127.26,6.211c-6.608-2.546-12.752-3.77-24.347-3.77-19.011,0-35.932,9.794-43.44,16.982C47.113,31.256,39.238,52.793,40.09,82.469c.04,22.116-1.624,38.315-3.98,47.345-.328,1.269-.648,2.718-.954,4.272a56.221,56.221,0,0,0-2.727,16.3c-.087,4.745.732,10.076,4.526,12.926,2.669,2.327,7.261,5.141,12.15,4.993Z"/><path class="a" d="M152.216,81.218a7.254,7.254,0,0,1,5.8-1.7,6.849,6.849,0,0,1,4.922,3.273,9.662,9.662,0,0,1,1.014,3.894A29.01,29.01,0,0,1,161,102.065a18.42,18.42,0,0,1-4.768,6.257,12.215,12.215,0,0,1-5.684,2.562l-.974.151c-.466,1.746-.99,3.217-1.247,4-1.705,4.627-11.481,20.983-23.633,26.2-.021,3.276-.092,7.052,1.059,9.886.87,2.15,4.95,5.34,9.24,8.24,0,0-2.359,31.914-32.581,31.914S72.34,159.144,72.34,159.144c4.58-2.84,8.83-5.93,9.68-8.03,1.121-2.782,1.07-6.446,1.05-9.677a41.579,41.579,0,0,1-15.241-11.915,49.422,49.422,0,0,1-9.452-18.53,11.654,11.654,0,0,1-7.488-2.67,18.42,18.42,0,0,1-4.768-6.257,29.01,29.01,0,0,1-2.958-15.378,9.662,9.662,0,0,1,1.014-3.894A6.848,6.848,0,0,1,49.1,79.52a7.253,7.253,0,0,1,5.8,1.7A100.165,100.165,0,0,1,84.224,67.9c16.166-4.029,32.416-13.968,38.5-22.078,4.055,11.151,20.219,33.511,29.494,35.394"/><path class="c" d="M202.888,323.861c-2.963-58.963-5.731-110.22-11.331-128.889-1.611-5.369-3.64-10.116-6.325-12.263s-7.148-3.574-10.25-5.073c-11.37-5.492-27.263-12.532-33.431-17.654q-.5-.395-1.009-.788l-4.5-3.048c-4.466,18.328-12.117,38.924-18.531,56.8-4.853,13.529-8.477,23.276-13.4,37.041-4.493-12.428-9.469-25.5-13.9-37.838-6.393-17.821-13.238-38.231-19.18-55.908-.038.028-.079.056-.079.056l-4.593,3.111a57.978,57.978,0,0,0-5.866,5.121l-27.385,5.481c-3.86,1.55-8,3.33-9.92,5.58-2.41,2.81-3.62,6.31-4.73,9.72a417.956,417.956,0,0,0-14.35,57.94c-1.63,9.46-2.91,19.3.1,28.5s11.36,17.65,21.95,18.55a24.5,24.5,0,0,0,14.085-3.316c-.756,10.131-2.4,26.116-3.195,36.876Z"/><path class="d" d="M37.71,83.164c0,12.807-.349,25.954-2.378,38.5-.333,2.061-.718,4.115-1.2,6.148-.319,1.35-.675,2.69-.966,4.047-.412,1.922-1.024,3.781-1.486,5.692a59.655,59.655,0,0,0-1.628,11.888,26.27,26.27,0,0,0,1.084,9.436c2.415,7,10.712,11.922,17.967,11.83,3.086-.039,3.1-4.839,0-4.8a15.323,15.323,0,0,1-8.756-2.987,10.833,10.833,0,0,1-4.694-5.656,24.51,24.51,0,0,1-.759-8.77,53.121,53.121,0,0,1,1.766-11.042A145.082,145.082,0,0,0,39.983,122.8c.853-5.313,1.4-10.675,1.776-16.041.555-7.852.75-15.727.751-23.6,0-3.089-4.8-3.094-4.8,0Z"/><path class="d" d="M162.87,83.164a184.115,184.115,0,0,0,4.279,39.148c.825,3.558,1.809,7.074,2.912,10.555a74.929,74.929,0,0,1,2.453,9.246,31.935,31.935,0,0,1,.582,10.215,16.965,16.965,0,0,1-12.6,13.662c-3.009.691-1.736,5.32,1.276,4.628a21.592,21.592,0,0,0,14.69-12.811c2.841-6.772,1.467-14.874-.409-21.737-1.1-4.022-2.489-7.951-3.528-11.992a143.15,143.15,0,0,1-3.037-15.412,198.655,198.655,0,0,1-1.814-25.5c-.04-3.086-4.84-3.095-4.8,0Z"/><path class="d" d="M153.914,82.915a4.753,4.753,0,0,1,6.778.793A8.148,8.148,0,0,1,161.638,88a25.538,25.538,0,0,1-.3,5.263c-1.074,6.345-4.371,14.076-11.434,15.306a2.421,2.421,0,0,0-1.677,2.952,2.456,2.456,0,0,0,2.953,1.677c9.71-1.692,14.351-12.708,15.156-21.474.39-4.242.281-9.548-3.3-12.474a9.712,9.712,0,0,0-12.518.27,2.421,2.421,0,0,0,0,3.394,2.451,2.451,0,0,0,3.395,0Z"/><path class="d" d="M148.07,105.486a24.137,24.137,0,0,1-1.127,6.024c-.229.771-.481,1.535-.737,2.3-.078.233-.158.464-.237.7-.161.469-.1.235-.033.1a50.881,50.881,0,0,1-3.237,5.924,57.483,57.483,0,0,1-12.837,14.8,24.358,24.358,0,0,1-9.466,4.786c-3.009.694-1.735,5.323,1.276,4.628,7.307-1.685,13.426-6.942,18.242-12.459a62.623,62.623,0,0,0,10.014-14.913,32.126,32.126,0,0,0,2.942-11.878c.106-3.089-4.694-3.085-4.8,0Z"/><path class="d" d="M56.6,79.521a9.712,9.712,0,0,0-12.518-.27c-3.583,2.926-3.692,8.232-3.3,12.474.8,8.766,5.446,19.782,15.156,21.474a2.47,2.47,0,0,0,2.953-1.677,2.421,2.421,0,0,0-1.677-2.952c-7.063-1.23-10.36-8.961-11.434-15.306A25.612,25.612,0,0,1,45.48,88a8.277,8.277,0,0,1,.947-4.293,4.747,4.747,0,0,1,6.778-.793,2.464,2.464,0,0,0,3.394,0,2.421,2.421,0,0,0,0-3.394Z"/><path class="d" d="M55.044,107.443c3.071,14.516,11.639,28.664,25.318,35.38a34.291,34.291,0,0,0,11.66,3.341,2.416,2.416,0,0,0,2.4-2.4,2.454,2.454,0,0,0-2.4-2.4c-13.461-1.4-24.471-13.04-29.313-25.052a60.583,60.583,0,0,1-3.036-10.145c-.639-3.02-5.268-1.742-4.629,1.276Z"/><path class="d" d="M127.9,3.9C119.149.547,109.59-.331,100.275.1A69.9,69.9,0,0,0,69.552,9.229a54.417,54.417,0,0,0-17.619,15.26,69.616,69.616,0,0,0-10.49,22.72c-3.2,11.664-4.114,23.907-3.732,35.96.1,3.081,4.9,3.094,4.8,0-.577-18.2,1.657-37.864,11.7-53.526a47.16,47.16,0,0,1,14.8-14.5A66.156,66.156,0,0,1,96.378,5.219a78.613,78.613,0,0,1,17.938.183,51.125,51.125,0,0,1,12.306,3.123,2.419,2.419,0,0,0,2.953-1.676A2.454,2.454,0,0,0,127.9,3.9Z"/><path class="d" d="M167.667,83.169a126.342,126.342,0,0,0,.059-16.465,106.533,106.533,0,0,0-1.439-14.626c-2.077-11.125-6.633-22.252-13.939-30.981-1.921-2.3-4.129-4.346-6.245-6.459a30.6,30.6,0,0,0-6.9-5.259c-2.707-1.491-5.132,2.653-2.422,4.144a24.539,24.539,0,0,1,5.455,4.044c1.866,1.829,3.779,3.648,5.539,5.579a52.277,52.277,0,0,1,8.458,13.134,70.868,70.868,0,0,1,5.109,15.5,88.423,88.423,0,0,1,1.521,13.732,130.736,130.736,0,0,1,0,17.659,2.419,2.419,0,0,0,2.4,2.4,2.45,2.45,0,0,0,2.4-2.4Z"/><path class="d" d="M122.29,141.234a50.57,50.57,0,0,0,.21,6.337,12.522,12.522,0,0,0,1.69,5.667c2.372,3.425,6.2,5.888,9.589,8.188a2.4,2.4,0,1,0,2.423-4.144c-1.615-1.095-3.219-2.214-4.729-3.45-.661-.541-1.308-1.1-1.921-1.7-.268-.26-.53-.526-.781-.8-.127-.14-.25-.283-.371-.428-.245-.294.265.432-.065-.091-.145-.23-.291-.45-.414-.693-.131-.26.131.388-.005-.038-.072-.226-.153-.448-.218-.676a13.981,13.981,0,0,1-.45-2.294,53.905,53.905,0,0,1-.158-5.88c.02-3.089-4.78-3.093-4.8,0Z"/><path class="d" d="M80.67,141.444a51.44,51.44,0,0,1-.164,5.757,14.206,14.206,0,0,1-.482,2.362c-.067.222-.142.439-.219.658.053-.152.135-.232.016-.045-.084.133-.548.819-.212.393-2.189,2.771-5.51,4.655-8.48,6.5a2.4,2.4,0,1,0,2.423,4.144c1.938-1.206,3.852-2.459,5.667-3.846a20.659,20.659,0,0,0,4.278-4.045,11.2,11.2,0,0,0,1.7-5.211,48.078,48.078,0,0,0,.277-6.67c-.019-3.088-4.819-3.094-4.8,0Z"/><path class="a" d="M110.53,232.225c2.233-6.136,4.439-12.187,6.982-19.277,4.036-11.25,8.562-23.577,12.478-35.738a18.922,18.922,0,0,1-2.327.722c-7.22,2.872-17.738,4.04-25.13,4.022a101.589,101.589,0,0,1-23.181-3.331l-.421-.1c3.756,11.751,8.021,23.626,11.9,34.427q6.641,18.514,13.283,37.028C106.454,243.431,108.5,237.793,110.53,232.225Z"/><path class="d" d="M78.714,180.937a93.625,93.625,0,0,0,25.2,3.407c8.145-.133,16.763-1.112,24.391-4.1a2.471,2.471,0,0,0,1.677-2.952,2.418,2.418,0,0,0-2.953-1.676c-7.265,2.844-15.358,3.8-23.115,3.926a88.641,88.641,0,0,1-23.92-3.235c-2.989-.792-4.264,3.837-1.276,4.628Z"/><path class="d" d="M92.452,260.817a6.165,6.165,0,0,1,.738.786l-.375-.486a5.189,5.189,0,0,1,.6,1.013l-.242-.573a4.968,4.968,0,0,1,.338,1.22l-.085-.638a5.445,5.445,0,0,1,0,1.362l.086-.638a5.955,5.955,0,0,1-.393,1.437l.242-.573a4.952,4.952,0,0,1-.576,1.017l.375-.486a4.3,4.3,0,0,1-.758.749l.486-.375a5.173,5.173,0,0,1-1.077.615l.574-.242a6.061,6.061,0,0,1-1.4.375l.638-.085a6.437,6.437,0,0,1-1.635,0l.638.086a5.651,5.651,0,0,1-1.341-.357l.573.242a4.477,4.477,0,0,1-.914-.523l.486.375a5.457,5.457,0,0,1-.89-.888l.375.486a4.707,4.707,0,0,1-.594-1.017l.242.573a4.383,4.383,0,0,1-.258-.962l.086.638a4.7,4.7,0,0,1,0-1.167l-.086.638A5.757,5.757,0,0,1,88.7,262l-.242.573a7.384,7.384,0,0,1,.925-1.549l-.376.486a4.486,4.486,0,0,1,.716-.735l-.486.375a4.844,4.844,0,0,1,.984-.575l-.574.242a5.722,5.722,0,0,1,1.442-.389l-.638.086a5.759,5.759,0,0,1,1.419,0l-.638-.086a5.138,5.138,0,0,1,1.169.313l-.573-.242a4.368,4.368,0,0,1,.955.557l-.486-.375c.053.042.1.085.156.13a2.554,2.554,0,0,0,1.7.7,2.4,2.4,0,0,0,1.7-4.1,7.129,7.129,0,0,0-4.585-1.75,7.539,7.539,0,0,0-4.182,1.145,8,8,0,0,0-3.357,8.064,6.944,6.944,0,0,0,2.863,4.062,7.775,7.775,0,0,0,10.757-2.454,7.775,7.775,0,0,0,.9-4.164,7.406,7.406,0,0,0-2.4-4.9,2.4,2.4,0,0,0-3.394,3.394Z"/><path class="d" d="M104.992,323.861c1.995-18.366,4.228-36.676,5.051-55.144a44.981,44.981,0,0,0-.272-8.373,40.7,40.7,0,0,0-2.512-8.677,2.467,2.467,0,0,0-2.952-1.676,2.418,2.418,0,0,0-1.676,2.952,42.883,42.883,0,0,1,2.345,7.612,33.667,33.667,0,0,1,.309,7.158c-.189,4.968-.541,9.932-.884,14.891-.617,8.911-1.6,17.783-2.583,26.66-.541,4.866-1.1,9.73-1.626,14.6a2.415,2.415,0,0,0,2.4,2.4,2.456,2.456,0,0,0,2.4-2.4Z"/><path class="d" d="M142.783,163.859a135.092,135.092,0,0,0,16.305,8.845c6.06,2.941,12.119,5.985,18.329,8.6,2.558,1.076,5.559,2.14,7.374,4.347a24.48,24.48,0,0,1,3.775,7.825,79.609,79.609,0,0,1,2.671,10.729c1.738,9.34,2.673,18.539,3.558,28.12,1.2,12.964,2.07,25.958,2.86,38.952,1.065,17.523,1.952,35.055,2.833,52.588.155,3.074,4.956,3.092,4.8,0-.8-15.921-1.607-31.842-2.544-47.756-.8-13.552-1.673-27.1-2.864-40.625-.894-10.149-1.905-20.323-3.625-30.37a95.754,95.754,0,0,0-2.2-10.135c-1.69-5.915-3.94-12.444-9.582-15.643-2.805-1.59-5.891-2.616-8.792-4.013-3.079-1.483-6.174-2.935-9.261-4.4-6.026-2.865-12.088-5.727-17.851-9.1-1.142-.668-2.268-1.364-3.368-2.1-2.575-1.722-4.98,2.434-2.422,4.145Z"/><path class="d" d="M121.725,244.566q9.054-12.936,17.488-26.293,4.265-6.762,8.363-13.627c2.667-4.469,5.447-8.93,7.86-13.543a4.475,4.475,0,0,0,.182-4.324,14.031,14.031,0,0,0-2.825-3.164c-2.123-2.092-4.33-4.1-6.547-6.088l-.486,3.77c1.914-1.136,3.8-2.322,5.749-3.4,1.679-.928,4.224-1.629,4.336-3.926.087-1.8-1.4-3.782-2.375-5.219a37.435,37.435,0,0,0-3.436-4.331c-3.753-4.087-8.217-7.258-12.78-10.349a2.416,2.416,0,0,0-3.525,1.434c-3.026,12.361-7.049,24.459-11.256,36.46-4.219,12.038-8.583,24.027-12.945,36.013q-3.66,10.06-7.293,20.131a2.422,2.422,0,0,0,1.676,2.952,2.45,2.45,0,0,0,2.953-1.676c8.618-24.017,17.857-47.863,25.641-72.169,2.161-6.749,4.167-13.55,5.852-20.435l-3.525,1.434,3.347,2.268c.379.257.764.507,1.137.771-.352-.249.332.258.4.308q.426.335.849.674.747.6,1.481,1.22a48.053,48.053,0,0,1,5.26,5.1,27.141,27.141,0,0,1,2.024,2.621q.494.73.944,1.491c.185.314.775,1.229.776,1.305l.327-1.211-.163.258.861-.861a41.756,41.756,0,0,1-4.2,2.285c-1.523.882-3.02,1.81-4.533,2.708a2.421,2.421,0,0,0-.486,3.769c1.808,1.625,3.609,3.259,5.365,4.941.847.811,1.685,1.634,2.5,2.473.055.055.512.628.649.668-.083-.024.012-.49,0-.474-.266.526-.578,1.033-.87,1.546q-3.705,6.526-7.563,12.967-7.608,12.7-15.789,25.053-4.695,7.086-9.571,14.049a2.42,2.42,0,0,0,.861,3.283,2.448,2.448,0,0,0,3.283-.861Z"/><path class="d" d="M172.524,323.861c-.746-10.132-1.786-20.241-2.66-30.362-.584-6.77-1.224-13.427-.47-20.2,1.89-16.949,5.769-34.082,8.475-51.1.935-5.883,1.821-11.774,2.8-17.649a92.142,92.142,0,0,1,2.389-11.753c.9-2.961-3.728-4.227-4.629-1.276a82.322,82.322,0,0,0-2.119,10.158c-.874,5.109-1.654,10.234-2.457,15.354-1.425,9.087-3.085,18.118-4.726,27.167-1.576,8.688-3.056,17.405-4.18,26.165a70.081,70.081,0,0,0-.8,9.281c.021,3.48.349,6.967.632,10.432.918,11.266,2.117,22.508,2.947,33.781a2.459,2.459,0,0,0,2.4,2.4,2.419,2.419,0,0,0,2.4-2.4Z"/><path class="d" d="M39.447,323.862c.9-12.152,2.233-24.269,3.16-36.42a2.421,2.421,0,0,0-2.4-2.4,2.448,2.448,0,0,0-2.4,2.4c-.927,12.151-2.26,24.268-3.16,36.42a2.421,2.421,0,0,0,2.4,2.4,2.446,2.446,0,0,0,2.4-2.4Z"/><path class="d" d="M107.263,251.688c-4.61-12.841-9.477-25.588-14.108-38.421-4.432-12.286-8.664-24.643-12.853-37.013q-3.5-10.318-6.957-20.649c-.454-1.349-2.186-2.382-3.526-1.435-1.3.919-2.636,1.788-3.953,2.681a48.943,48.943,0,0,0-7.071,5.983c-2.186,2.188,1.207,5.583,3.394,3.394a44.785,44.785,0,0,1,6.257-5.339c1.265-.857,2.548-1.692,3.8-2.574l-3.526-1.434C77.089,181.79,85.545,206.656,94.68,231.3c2.674,7.213,5.355,14.425,7.954,21.666a2.463,2.463,0,0,0,2.952,1.676,2.421,2.421,0,0,0,1.677-2.952Z"/><path class="d" d="M89.486,242.672q-10.088-14.415-19.4-29.348c-1.631-2.616-5.786-.209-4.145,2.422q9.311,14.929,19.4,29.349a2.464,2.464,0,0,0,3.283.861,2.42,2.42,0,0,0,.861-3.284Z"/><path class="a" d="M27.182,197.509a.936.936,0,0,1,.049-.156c1.879-5.879,4.142-13.445,4.905-16.516a26.119,26.119,0,0,0,.963-6.775,28.939,28.939,0,0,0-1.946-8.492c-3.061-9.015-5.6-12.493-8.657-21.507-.644-1.886-1.285-3.947-.724-5.843a9.616,9.616,0,0,1,.156-1.231c.529-2.853,3.036-6.34,4.461-8.178,4.454-5.713,6.892-8.35,10.849-11.567a10.035,10.035,0,0,1,3.381-1.231,15.6,15.6,0,0,1,3.96.325c1.539.455,9.362,3.755,7.613,8.63l8.46,26.352a25.424,25.424,0,0,1-4.7,22.806,13.965,13.965,0,0,0-2.545,3.657,11.382,11.382,0,0,0-.338,4.651,131.539,131.539,0,0,1-.114,17.68,1.924,1.924,0,0,1-.026.238Z"/><path class="d" d="M55.33,200.352a102.488,102.488,0,0,0,.287-14.971c-.079-2.041-.665-4.586-.028-6.557.578-1.787,2.315-3.229,3.387-4.726a27.882,27.882,0,0,0,3.991-23.416c-.833-2.969-5.466-1.708-4.629,1.276a23.233,23.233,0,0,1-4.6,21.1c-1.515,1.816-2.747,3.546-3.04,5.958a44.547,44.547,0,0,0,.139,6.86,101.725,101.725,0,0,1-.3,14.48,2.415,2.415,0,0,0,2.4,2.4,2.455,2.455,0,0,0,2.4-2.4Z"/><path class="e" d="M38.69,113.9c-.636-4.621-1.489-13.345-2-18.857a3.576,3.576,0,0,1,4.411-3.8c3.561.871,8.233,2.177,10.932,3.021A3.563,3.563,0,0,1,54.5,97.168c1.349,9.646,6.883,48.023,8.946,62.812a3.574,3.574,0,0,1-4.671,3.884c-4.462-1.478-10.074-3.393-11.541-3.918Z"/><path class="d" d="M41.005,113.259c.045.33-.035-.264-.043-.33-.032-.25-.064-.5-.1-.749q-.079-.644-.156-1.288-.212-1.791-.4-3.586-.4-3.678-.751-7.36-.159-1.633-.312-3.266c-.073-.777-.437-1.95.032-2.632a1.207,1.207,0,0,1,1.188-.5,24.478,24.478,0,0,1,3.817.982c2.23.6,4.513,1.147,6.694,1.908,1.286.449,1.228,1.475,1.4,2.685q.535,3.8,1.079,7.595Q56.721,129.629,60,152.534q.366,2.587.731,5.174c.158,1.121.8,2.909,0,3.633s-2.005-.02-2.837-.3q-2.041-.683-4.082-1.374c-1.981-.67-3.965-1.336-5.936-2.038A2.4,2.4,0,1,0,46.6,162.26c1.908.68,3.829,1.325,5.747,1.975q1.941.657,3.882,1.307a10.187,10.187,0,0,0,4.233.866,6.026,6.026,0,0,0,5.419-5.726,31.251,31.251,0,0,0-.637-5.049q-1.731-12.282-3.5-24.558-1.8-12.567-3.595-25.134-.6-4.231-1.2-8.465a6.289,6.289,0,0,0-3.23-5.1c-2.223-1.131-4.977-1.607-7.371-2.258-2.914-.792-6.28-2.235-9.133-.553A6.062,6.062,0,0,0,34.5,93.072a11.6,11.6,0,0,0,.008,4.3c.543,5.727,1.089,11.459,1.866,17.16a2.414,2.414,0,0,0,2.952,1.676,2.465,2.465,0,0,0,1.677-2.952Z"/><path class="a" d="M28.355,126.329a54.687,54.687,0,0,1,8.883-9.085,10.035,10.035,0,0,1,3.381-1.231,15.6,15.6,0,0,1,3.96.325c1.539.455,9.362,3.755,7.613,8.63l-.069.193c2.879-.376,6.574-.429,7.536,3.182a4.8,4.8,0,0,1-2.953,5.49l-1.7.732a5.323,5.323,0,0,1,4.59,3.611c.419,1.38-.315,4.52-4.254,6.16-1.34.557-2.8,1.183-4.366,1.842l.769.361c2.255,1.059,2.569,3.676,2.458,5.234-.115,1.606-.841,2.579-2.41,3.812a21.829,21.829,0,0,1-4.443,2.6,8.4,8.4,0,0,0-1.886,1.47c-1.013,1.191-.551,3.152.086,4.64l-14.729.313c-2.915-8.313-5.384-11.858-8.325-20.545-.644-1.886-1.285-3.947-.724-5.843a9.616,9.616,0,0,1,.156-1.231c.529-2.853,3.036-6.34,4.461-8.178C27.09,127.912,27.741,127.09,28.355,126.329Z"/><path class="d" d="M38.138,131.552a37.994,37.994,0,0,1,8.792-3.128c1.5-.306,3.011-.523,4.522-.756l.733-.112a2.11,2.11,0,0,1,.38-.049,17.73,17.73,0,0,1,1.8-.114c.282,0,.564.008.845.029.39.027-.1-.069.415.065a6.717,6.717,0,0,1,.775.222c-.36-.14.3.176.427.273-.378-.282.274.326.154.175-.182-.229.325.577.191.283a2.064,2.064,0,0,1,.106,1.645,2.835,2.835,0,0,1-.738,1.107c-.037.035-.44.365-.23.214.177-.127-.127.067-.132.072-.249.254-.146.052.049,0-.187.05-.376.085-.565.126-1.979.422-3.952.867-5.905,1.4a59.548,59.548,0,0,0-12.212,4.766c-2.73,1.447-.308,5.592,2.423,4.144a55.394,55.394,0,0,1,12.217-4.587q1.564-.4,3.142-.75a12.37,12.37,0,0,0,3.092-.855,7.533,7.533,0,0,0,3.442-4.216,6.744,6.744,0,0,0-4.846-8.623c-2.951-.7-6.073.017-9.006.49a44.533,44.533,0,0,0-12.293,4.034,2.423,2.423,0,0,0-.861,3.284,2.453,2.453,0,0,0,3.284.861Z"/><path class="d" d="M54.462,136.929a3.415,3.415,0,0,1,2.057.77c.068.064.549.613.353.346a3.7,3.7,0,0,1,.376.64c-.139-.307.017.135.061.228.129.273.019-.658-.011-.065-.006.129-.014.268-.009.4.014.418.166-.478,0-.062-.066.166-.1.366-.151.538-.163.569.189-.259-.065.146-.1.159-.18.329-.282.488s-.373.454-.107.16c-.2.217-.4.418-.611.626-.317.322.166-.07-.264.218a38.468,38.468,0,0,1-6.368,2.883c-2.744,1.153-5.5,2.272-8.291,3.308a2.466,2.466,0,0,0-1.676,2.953,2.42,2.42,0,0,0,2.952,1.676c3.366-1.25,6.681-2.626,9.989-4.024,2.614-1.1,5.658-1.927,7.663-4.246,1.463-1.691,2.484-4.119,1.832-6.37a7.876,7.876,0,0,0-7.448-5.409,2.4,2.4,0,1,0,0,4.8Z"/><path class="d" d="M50.534,148.611a3.8,3.8,0,0,1,.62.362c-.344-.269.153.2.175.226-.3-.339.077.146.116.216.052.092.248.654.1.192.062.2.126.392.174.594.032.132.118.735.051.149a7.776,7.776,0,0,1,.048,1.012c0,.058-.025.544,0,.335.02-.188-.1.4-.118.483-.055.235.167-.212-.056.14-.038.061-.383.567-.145.266a9.173,9.173,0,0,1-2.373,1.953c-1.771,1.105-3.76,1.749-5.24,3.291-1.867,1.944-1.607,4.791-.65,7.1a2.48,2.48,0,0,0,2.953,1.677,2.415,2.415,0,0,0,1.676-2.953,9.992,9.992,0,0,1-.539-1.643,2.047,2.047,0,0,1,0-.878c-.234.35.361-.328-.044.088.154-.158.322-.3.489-.447.551-.472-.287.168.3-.217.164-.109.325-.209.5-.3,2.184-1.185,4.461-2.208,6.171-4.093,3-3.316,2.427-9.568-1.776-11.7a2.456,2.456,0,0,0-3.283.861,2.423,2.423,0,0,0,.861,3.283Z"/><path class="d" d="M29.5,198.147c1.129-3.643,2.28-7.279,3.355-10.939A67.881,67.881,0,0,0,35.3,177.114c.615-4.65-.692-8.975-2.224-13.317-1.282-3.635-2.824-7.161-4.4-10.677a87.965,87.965,0,0,1-4.3-11.025c-1.114-3.791.616-7.208,2.755-10.274a72.188,72.188,0,0,1,6.788-8.272q1.6-1.685,3.347-3.209a7.143,7.143,0,0,1,3.47-1.9c.166-.04.346-.091.517-.117-.4.06-.243.023.057.049.374.032.754.028,1.129.059a6.356,6.356,0,0,1,1.543.231c.149.042.3.1.441.151.082.03.678.271.394.151-.234-.1.5.23.632.3q.414.2.82.423a10.253,10.253,0,0,1,2.987,2.224,2.245,2.245,0,0,1,.384.5,1.428,1.428,0,0,1,.311.622,1.622,1.622,0,0,1-.077,1.292c-.96,2.944,3.674,4.2,4.628,1.276,1.842-5.653-4.579-10.446-9.446-11.621-3.249-.785-6.981-.484-9.653,1.671a54.178,54.178,0,0,0-7.449,7.4c-2.633,3.135-5.479,6.414-7.223,10.153a16.558,16.558,0,0,0-1.574,6.35c-.089,2.524.95,5.033,1.8,7.361,2.905,7.96,7.2,15.427,9.232,23.7,1.091,4.437-.068,8.666-1.284,12.941-1.269,4.461-2.668,8.881-4.041,13.31-.917,2.957,3.715,4.222,4.629,1.276Z"/><path class="a" d="M58.236,195.491c.137-3.037-.027-7.625-.027-8.866-4.232-.282-24.618-.976-31.039-1.039-.137,1.623-.694,5.792-.894,8.546l-.031.415c7.439.34,34.513,1.591,34.772,1.625"/><path class="d" d="M28.676,194.132c.217-2.857.64-5.693.894-8.546l-2.4,2.4c10.331.109,20.728.363,31.039,1.039l-2.4-2.4c.012,2.957.148,5.91.027,8.866-.126,3.089,4.674,3.083,4.8,0,.121-2.956-.015-5.909-.027-8.866a2.454,2.454,0,0,0-2.4-2.4c-10.311-.676-20.708-.93-31.039-1.039a2.455,2.455,0,0,0-2.4,2.4c-.254,2.853-.677,5.689-.894,8.546a2.42,2.42,0,0,0,2.4,2.4,2.448,2.448,0,0,0,2.4-2.4Z"/><path class="c" d="M29.183,194.682c-2.9-.134-4.789-.22-4.816-.22-3.64,21.88-5.78,35.67-9.41,57.54h43.1q.127-1.216.24-2.43c2.06-22.01,2.38-41.72,2.72-53.4C60.785,196.142,39.076,195.136,29.183,194.682Z"/><path class="d" d="M17.271,252.64c2.438-14.691,4.789-29.4,7.193-44.093q1.1-6.725,2.217-13.447l-2.314,1.762c6.057.245,12.112.553,18.167.833,6.154.285,12.34.411,18.483.877l-2.4-2.4c-.426,14.722-.832,29.435-1.938,44.125-1.137,15.1-1.766,33.961-15.671,43.388-5.846,3.964-12.995,5.5-19.764,3.1-6.175-2.188-11.04-7.341-13.762-13.195-3.49-7.509-3.045-16.411-1.906-24.4,1.28-8.98,3.126-17.907,5.137-26.748q3.077-13.515,7.042-26.807c1.242-4.162,2.462-8.36,3.956-12.44a21.526,21.526,0,0,1,2.639-5.217,10.762,10.762,0,0,1,3.763-3.084,49.188,49.188,0,0,1,5.282-2.424,2.476,2.476,0,0,0,1.676-2.953,2.416,2.416,0,0,0-2.952-1.676c-3.65,1.481-7.958,3-10.629,6.057-2.962,3.388-4.365,7.72-5.718,11.929Q11.3,199.717,7.806,213.9q-3.453,14.013-5.931,28.243C.26,251.428-1.1,261.1,1.305,270.377a31.214,31.214,0,0,0,12.8,18.134,25.346,25.346,0,0,0,22.327,2.818,32.655,32.655,0,0,0,17.6-15.132c4.277-7.774,5.677-16.622,6.541-25.338,1.662-16.763,2.278-33.605,2.727-50.436q.057-2.125.117-4.251a2.45,2.45,0,0,0-2.4-2.4c-6.143-.466-12.329-.592-18.483-.877-6.055-.28-12.11-.588-18.167-.833a2.411,2.411,0,0,0-2.314,1.762c-2.444,14.693-4.8,29.4-7.2,44.1q-1.1,6.721-2.213,13.441a2.473,2.473,0,0,0,1.676,2.953,2.42,2.42,0,0,0,2.952-1.677Z"/><path class="d" d="M120.409,46.462a74.765,74.765,0,0,0,9.434,16.926c4.024,5.706,8.512,11.4,13.967,15.819,2.279,1.845,4.846,3.7,7.768,4.325,3.013.648,4.3-3.978,1.277-4.629a10.417,10.417,0,0,1-1.387-.411c-.384-.14.29.16-.245-.107-.281-.141-.564-.277-.841-.428a23.648,23.648,0,0,1-2.91-1.927,54.073,54.073,0,0,1-6.482-6.238,99.539,99.539,0,0,1-11.889-16.4c-.87-1.491-1.7-3.007-2.466-4.554q-.485-.981-.93-1.98-.1-.222-.194-.445a1.413,1.413,0,0,1-.075-.187c-.137-.344-.271-.689-.4-1.037a2.465,2.465,0,0,0-2.952-1.677,2.42,2.42,0,0,0-1.676,2.953Z"/><path class="d" d="M120.65,44.612a33.577,33.577,0,0,1-3.666,3.871,51.664,51.664,0,0,1-4.769,3.849,85.257,85.257,0,0,1-13.126,7.661,83.547,83.547,0,0,1-15.081,5.489,94.81,94.81,0,0,0-14.241,4.949A103.653,103.653,0,0,0,53.69,79.145c-2.56,1.7-.159,5.862,2.423,4.145A94.787,94.787,0,0,1,84.862,70.217a89.909,89.909,0,0,0,29.154-13.3A47.281,47.281,0,0,0,124.8,47.035a2.414,2.414,0,0,0-.861-3.284,2.462,2.462,0,0,0-3.284.861Z"/><path class="d" d="M95.7,120.339a19.408,19.408,0,0,0,9.349,2.163,15.2,15.2,0,0,0,9.428-2.778,2.413,2.413,0,0,0,0-3.394,2.462,2.462,0,0,0-3.394,0c.726-.565.155-.128-.032-.008s-.381.232-.579.335c-.163.086-.874.368-.22.126-.266.1-.528.2-.8.291a14.018,14.018,0,0,1-2.235.51c.35-.052-.086.006-.222.02-.219.021-.439.04-.659.054-.529.034-1.059.047-1.589.044-.474,0-.949-.019-1.422-.051-.218-.015-.435-.032-.652-.054-.018,0-.8-.11-.323-.035a15.977,15.977,0,0,1-2.088-.464c-.293-.087-.578-.192-.867-.291-.616-.211.344.179-.212-.083q-.537-.253-1.061-.53a2.453,2.453,0,0,0-3.284.861,2.427,2.427,0,0,0,.861,3.284Z"/><path class="d" d="M103.843,98.3a43.76,43.76,0,0,1,1.035,4.732l-.086-.638a2.852,2.852,0,0,1,.018.653l.086-.638a1.639,1.639,0,0,1-.072.294l.242-.574a1.2,1.2,0,0,1-.1.189l.375-.486a.969.969,0,0,1-.154.153l.485-.375a3.175,3.175,0,0,1-.374.2l.573-.242a2.727,2.727,0,0,1-.632.184l.638-.085a2.557,2.557,0,0,1-.593,0l.638.085c-.223-.031-.443-.085-.666-.115a1.812,1.812,0,0,0-.957-.043,1.778,1.778,0,0,0-.893.285,2.4,2.4,0,0,0-.861,3.283,2.3,2.3,0,0,0,1.435,1.1c.506.068,1,.2,1.513.22a4.84,4.84,0,0,0,2.227-.529,3.212,3.212,0,0,0,1.781-2.116,5.328,5.328,0,0,0-.023-2.283c-.257-1.524-.61-3.035-1-4.53a2.4,2.4,0,1,0-4.629,1.276Z"/><path class="d" d="M78.8,84.9c-.79,2.568-.275,8.476,4.59,8.979,6.43-.039,6.772-7.181,4.608-10.539C86.222,80.591,81.011,79.448,78.8,84.9Z"/><path class="d" d="M130.29,84.9c.791,2.568.276,8.475-4.589,8.978-6.431-.039-6.773-7.181-4.609-10.539C122.864,80.591,128.076,79.448,130.29,84.9Z"/></svg>