<?xml version="1.0" encoding="utf-8"?>
<!-- Uploaded to: SVG Repo, www.svgrepo.com, Generator: SVG Repo Mixer Tools -->
<svg width="800px" height="800px" viewBox="-4.46 0 296.892 296.892" xmlns="http://www.w3.org/2000/svg"><defs><style>.a{fill:#ffffff;}.b{fill:#211715;}.c{fill:#89705d;}.d{fill:#bdbdbd;}.e{fill:#211916;}</style></defs><path class="a" d="M211.75,114.72a10.245,10.245,0,0,1,8.2-2.4,9.677,9.677,0,0,1,6.957,4.625,13.666,13.666,0,0,1,1.432,5.5,41,41,0,0,1-4.18,21.732,26.063,26.063,0,0,1-6.738,8.843,17.277,17.277,0,0,1-8.033,3.621s-.61.094-1.661.261c-.641,2.446-1.357,4.5-1.71,5.6-2.169,6.029-13.806,26.143-28.751,35.02a83.448,83.448,0,0,0,1.078,8.361c.8,4.59.55,8.67,6.89,10.96.31.1,10.03,4.72,15.46,7.29,0,0-4.077,23.317-58,23.317S88.2,222.828,88.2,222.828c5.96-2.72,12.76-5.9,13-5.98,6.35-2.29,6.09-6.37,6.91-10.96.539-3.075.928-5.879,1.165-8.963A62.782,62.782,0,0,1,93.6,182.983a70.188,70.188,0,0,1-13.181-26.178,16.713,16.713,0,0,1-9.87-3.781,26.063,26.063,0,0,1-6.738-8.843,41,41,0,0,1-4.18-21.732,13.666,13.666,0,0,1,1.432-5.5,9.677,9.677,0,0,1,6.957-4.625,10.249,10.249,0,0,1,8.2,2.4S62.838,43.6,141.061,43.6C221.061,43.6,211.75,114.72,211.75,114.72Z"/><path class="b" d="M89.616,225.246q5.136-2.345,10.254-4.724.8-.369,1.595-.736c.186-.086.925-.286,1.027-.468-.043.078-1.185.481-.164.087.579-.222,1.157-.464,1.716-.735a12.354,12.354,0,0,0,2.266-1.457,11.541,11.541,0,0,0,3.982-7.319c.665-3.742,1.26-7.515,1.641-11.3a2.819,2.819,0,0,0-2.8-2.8,2.863,2.863,0,0,0-2.8,2.8c-.331,3.283-.864,6.558-1.441,9.807a17.581,17.581,0,0,1-.394,1.773c-.069.244-.148.485-.232.724-.167.473.163-.2-.171.369-.149.259-.288.519-.456.767-.433.638.331-.314-.222.26a4.957,4.957,0,0,1-1.288,1.045,58.2,58.2,0,0,1-5.639,2.6q-4.846,2.243-9.7,4.468a2.821,2.821,0,0,0-1,3.831,2.866,2.866,0,0,0,3.83,1Z"/><path class="b" d="M174.623,199.358c.355,3.416.915,6.812,1.475,10.2a11.064,11.064,0,0,0,6.963,9.412,9.588,9.588,0,0,1,1.438.582c.078.052-.844-.385-.487-.2.223.113.457.209.684.314,1.99.923,3.972,1.867,5.955,2.806q4.315,2.042,8.629,4.088a2.879,2.879,0,0,0,3.831-1.005,2.824,2.824,0,0,0-1-3.831c-5.094-2.411-10.15-4.937-15.3-7.223-.532-.236-1.083-.426-1.609-.676a8.575,8.575,0,0,1-1.62-.986,4.813,4.813,0,0,1-1.671-2.81,37.065,37.065,0,0,1-.72-4.027c-.344-2.214-.728-4.41-.96-6.64a2.88,2.88,0,0,0-2.8-2.8,2.819,2.819,0,0,0-2.8,2.8Z"/><path class="c" d="M2.76,294.11c5.973-12.027,15.787-32.934,28.446-43.913a84.881,84.881,0,0,1,22.007-14.132c9.922-4.624,31.811-13.068,42.022-17.09l43.972,9.55h8.31l45.221-9.55c10.211,4.022,32.1,12.466,42.022,17.09A84.881,84.881,0,0,1,256.767,250.2c12.66,10.979,22.473,31.886,28.446,43.913Z"/><path class="a" d="M167.315,253.035c10.289-10.225,17.028-22.611,24.629-34.982a54.826,54.826,0,0,0-11.166-15.087A111.019,111.019,0,0,1,148.736,225.3c-.663.3-1.4.668-1.616,1.364a2.566,2.566,0,0,0,.37,1.81,103.315,103.315,0,0,0,6.627,8.557C158.626,242.546,164.287,249.306,167.315,253.035Z"/><path class="a" d="M139.351,228.279a102.383,102.383,0,0,1-6.58,8.49c-4.47,5.47-10.09,12.18-13.1,15.88-10.21-10.14-16.89-22.43-24.44-34.71a54.669,54.669,0,0,1,11.08-14.97,110.342,110.342,0,0,0,31.8,22.16c.66.3,1.39.66,1.61,1.35A2.6,2.6,0,0,1,139.351,228.279Z"/><path class="a" d="M159.837,243.97c-1.93-2.33-3.917-4.735-5.72-6.942-3.389-4.147-6.127-7.591-6.607-8.516-.031.013-8.146.013-8.3.013-.687,1.131-3.276,4.38-6.438,8.244-2.941,3.6-6.38,7.736-9.246,11.2.484.469.756.739.756.739,3.706,3.672,17.743,16.59,19.64,18.063,1.991-1.724,14.21-12.93,19.01-18.026,0,0,.162-.172.462-.479C162.273,246.91,161.067,245.455,159.837,243.97Z"/><path class="d" d="M175.219,8.115a73.363,73.363,0,0,0-17.426-4.481c-16.784-1.951-38.9-1.344-53.534,11.418a34.781,34.781,0,0,1-6.278,4.567,49.141,49.141,0,0,1-4.536,2.029C79.963,27.484,71.706,40.807,67.586,58.43c-4.252,18.181-3.544,40.931.537,53.882a10.221,10.221,0,0,1,8.1,2.408l1.868,1.686.043-.6c.527-7.451,1.2-15.322,5.529-21.408,2.751-3.865,5.467-6.5,7.512-10.785s2.405-10.633,3.547-15.231c1.86-7.491,7.079-12.663,16.886-14.75,13-2.335,24.647-4.018,37.057-2.4,10.093,1.314,23.843,6.008,33.313,9.736,8,2.889,14.5,6.536,17.111,10.666,3.255,5.144,4.359,13.438,4.889,19.334.309,3.435.889,8,1.334,13.111.123,1.414,1.539,11.972,2.581,11.972a6.824,6.824,0,0,0,3.856-1.327,10.245,10.245,0,0,1,8.015-2.425l.6-3.109c5.386-28.028,2.557-54.473-9.413-70.978-1.922-2.65-6.408-7.784-8.711-10.418a72.47,72.47,0,0,0-7.867-8.5A64.016,64.016,0,0,0,175.219,8.115Z"/><path class="b" d="M5.178,295.523c3.485-7.022,6.926-14.066,10.846-20.86,4.224-7.32,8.926-14.546,14.995-20.485,11.648-11.4,26.8-17.338,41.465-23.232,7.812-3.14,15.661-6.187,23.5-9.271a2.886,2.886,0,0,0,1.955-3.445,2.82,2.82,0,0,0-3.444-1.955c-14.132,5.564-28.466,10.806-42.262,17.173a95.847,95.847,0,0,0-22.846,14.633c-6.592,5.709-11.733,13.043-16.238,20.451-4.742,7.8-8.748,16-12.8,24.165a2.87,2.87,0,0,0,1,3.831,2.827,2.827,0,0,0,3.831-1Z"/><path class="b" d="M287.631,292.7c-3.542-7.136-7.039-14.3-11.038-21.191-4.433-7.645-9.441-15.222-15.805-21.411a85.532,85.532,0,0,0-22.025-15.21c-6.927-3.4-14.125-6.255-21.278-9.135-7.98-3.212-16-6.324-24-9.475a2.82,2.82,0,0,0-3.444,1.955,2.866,2.866,0,0,0,1.955,3.445c13.685,5.388,27.67,10.509,40.815,16.558a90.688,90.688,0,0,1,21.979,13.944c6.331,5.518,11.194,12.527,15.5,19.676,4.614,7.651,8.536,15.674,12.5,23.67a2.8,2.8,0,1,0,4.836-2.826Z"/><path class="b" d="M147.517,225.725h-8.31a2.8,2.8,0,0,0,0,5.6h8.31a2.8,2.8,0,0,0,0-5.6Z"/><path class="b" d="M169.3,255.014A116.911,116.911,0,0,0,184.852,235c2.3-3.608,4.506-7.279,6.72-10.943q.808-1.338,1.62-2.675c.61-1,1.552-2.1,1.552-3.326,0-1.127-.828-2.277-1.361-3.233q-.77-1.38-1.606-2.721a54.491,54.491,0,0,0-9.019-11.113,2.85,2.85,0,0,0-3.96,0,107.422,107.422,0,0,1-26.606,19.519q-1.671.872-3.375,1.681a11.112,11.112,0,0,0-3.27,1.867c-1.908,1.9-1.366,4.622.033,6.632,2.8,4.029,6.088,7.766,9.207,11.55,3.513,4.262,7.064,8.494,10.548,12.779a2.818,2.818,0,0,0,3.96,0,2.864,2.864,0,0,0,0-3.959c-5.853-7.2-12.17-14.442-17.716-21.63-.436-.566-.873-1.134-1.274-1.726-.059-.088-.247-.514-.353-.556-.028-.011-.037-.12-.064-.125l-.229.777q-.687.607-.083.2a23.03,23.03,0,0,0,2.816-1.333q1.8-.874,3.565-1.818a115.556,115.556,0,0,0,26.8-19.9H178.8a53.044,53.044,0,0,1,10.728,14.52V216.64c-7.342,11.964-14.179,24.408-24.191,34.415C162.783,253.606,166.742,257.566,169.3,255.014Z"/><path class="b" d="M136.934,226.866a24.748,24.748,0,0,1-3.008,4.053c-1.941,2.431-3.918,4.834-5.9,7.235-3.442,4.174-6.92,8.32-10.337,12.515h3.96c-9.936-9.925-16.714-22.275-24-34.143v2.827a52.928,52.928,0,0,1,10.642-14.4h-3.96a111.778,111.778,0,0,0,16.634,13.714q4.349,2.95,8.962,5.488,2.139,1.173,4.332,2.246c.746.365,1.5.717,2.252,1.065.2.091.7.461.893.444q.413.27-.224-.29-.074-1.185-.246-.75a2.883,2.883,0,0,0,1,3.831,2.823,2.823,0,0,0,3.831-1c1-2.182,1.174-4.5-.869-6.139a26.022,26.022,0,0,0-4.755-2.458,107.769,107.769,0,0,1-9.765-5.564,105.345,105.345,0,0,1-18.089-14.543,2.853,2.853,0,0,0-3.96,0,53.548,53.548,0,0,0-8.062,9.652c-1.142,1.723-2.194,3.506-3.164,5.331a3.475,3.475,0,0,0-.056,3.764c.551.976,1.172,1.919,1.753,2.877,4.317,7.125,8.544,14.33,13.517,21.027a98.077,98.077,0,0,0,9.372,10.989,2.818,2.818,0,0,0,3.96,0c3.506-4.3,7.076-8.558,10.607-12.843,1.974-2.4,3.945-4.792,5.878-7.22a32.04,32.04,0,0,0,3.633-4.873C143.423,226.5,138.592,223.661,136.934,226.866Z"/><path class="b" d="M122.3,250.686c3.412,3.373,6.968,6.608,10.5,9.856,3,2.757,5.935,5.69,9.142,8.207a2.9,2.9,0,0,0,3.96,0c2.884-2.5,5.664-5.139,8.452-7.749,3.582-3.353,7.186-6.71,10.558-10.278,2.475-2.618-1.478-6.585-3.96-3.959-3.371,3.568-6.975,6.924-10.558,10.278-2.788,2.61-5.568,5.243-8.452,7.748h3.96c-3.207-2.517-6.145-5.449-9.142-8.207-3.53-3.248-7.086-6.482-10.5-9.856-2.565-2.536-6.527,1.422-3.96,3.96Z"/><path class="b" d="M206.179,149.016a41.532,41.532,0,0,1-3.237,13.7c.356-.9.017-.053-.08.164-.14.31-.285.618-.432.924-.339.706-.695,1.405-1.062,2.1-.838,1.58-1.733,3.129-2.667,4.653a80.948,80.948,0,0,1-17.891,21.113,33.814,33.814,0,0,1-13.205,6.845c-3.508.82-2.023,6.22,1.489,5.4,9.99-2.335,18.3-9.687,24.8-17.283a88.651,88.651,0,0,0,13.864-21.068,45.023,45.023,0,0,0,4.017-16.547c.107-3.6-5.493-3.6-5.6,0Z"/><path class="b" d="M75.612,147.956a82.868,82.868,0,0,0,10.254,28.909c5.832,9.674,14.293,18.451,24.315,23.8a46.453,46.453,0,0,0,17.168,5.248,2.818,2.818,0,0,0,2.8-2.8,2.863,2.863,0,0,0-2.8-2.8c-9.629-1-18.432-5.953-25.439-12.531a65.952,65.952,0,0,1-17.253-26.756,92.638,92.638,0,0,1-3.645-14.556,2.822,2.822,0,0,0-3.444-1.955,2.865,2.865,0,0,0-1.956,3.444Z"/><path class="b" d="M213.729,116.7a7.389,7.389,0,0,1,8.4-.69c3.172,1.864,3.461,5.538,3.543,8.891.193,7.85-2.012,16.3-6.8,22.623a16.135,16.135,0,0,1-10.227,6.421,2.822,2.822,0,0,0-1.956,3.444,2.865,2.865,0,0,0,3.444,1.956c10.284-1.731,16.384-11.453,19.234-20.692a43.155,43.155,0,0,0,1.866-14.867c-.264-5.061-1.636-9.905-6.274-12.611a13.149,13.149,0,0,0-15.187,1.565,2.825,2.825,0,0,0,0,3.96,2.856,2.856,0,0,0,3.959,0Z"/><path class="b" d="M78.2,112.74A13.079,13.079,0,0,0,64.877,110.3a12.7,12.7,0,0,0-5.636,4.324,14.937,14.937,0,0,0-2.363,7.393c-1.017,9.576,1.566,20.347,7.267,28.169,3.34,4.583,7.991,8.2,13.7,9.161a2.883,2.883,0,0,0,3.444-1.956,2.822,2.822,0,0,0-1.955-3.444c-7.814-1.315-12.383-8.292-14.831-15.287a38.544,38.544,0,0,1-2.2-11.972c-.068-3.383-.182-7.822,2.735-10.138a7.407,7.407,0,0,1,9.214.152,2.871,2.871,0,0,0,3.959,0,2.825,2.825,0,0,0,0-3.96Z"/><path class="b" d="M223.062,109.93a134.77,134.77,0,0,0,2.326-36.511c-.9-10.562-3.27-21.141-8.26-30.562a64.927,64.927,0,0,0-8.051-11.418q-2.269-2.688-4.6-5.329c-.347-.393.41.521-.151-.165-.243-.3-.469-.61-.708-.911q-.45-.561-.916-1.109c-.858-1.01-1.749-1.992-2.658-2.956-7.308-7.752-16.583-12.982-26.589-16.475A88.76,88.76,0,0,0,144.406,0c-10.428-.04-20.993,1.434-30.573,5.7a45.814,45.814,0,0,0-6.51,3.538,82.222,82.222,0,0,0-6.613,5.151,27.285,27.285,0,0,1-5.541,3.482c-1.829.873-3.437,1.4-5.5,2.48-8.338,4.356-14.62,11.824-18.755,20.162-4.959,10-7.347,21.067-8.41,32.119a120.224,120.224,0,0,0,1.2,33.369A64.136,64.136,0,0,0,65.2,112.32c1.013,3.451,6.419,1.982,5.4-1.488-2.788-9.493-3.316-19.642-3.03-29.495A102.256,102.256,0,0,1,73.031,49.78c2.957-8.25,7.715-16.32,14.562-21.495a35.2,35.2,0,0,1,5.485-3.391c.438-.218.877-.445,1.33-.629.528-.216-.486.2.125-.03.148-.054.294-.115.441-.173,1.117-.442,2.2-.96,3.287-1.479,4.362-2.094,7.6-5.639,11.578-8.3,8.085-5.41,17.814-7.778,27.406-8.452a104.692,104.692,0,0,1,14.465.039,73.114,73.114,0,0,1,12.695,1.8c9.656,2.314,19.494,6.417,27.138,12.872a56.721,56.721,0,0,1,4.8,4.66c1.615,1.727,2.958,3.474,4.27,4.975,1.473,1.685,2.941,3.375,4.387,5.084,1.367,1.616,2.72,3.225,3.729,4.635,5.588,7.814,8.62,17.064,10.191,26.483a115,115,0,0,1,.145,33.463c-.372,2.882-.856,5.75-1.4,8.6a2.874,2.874,0,0,0,1.956,3.444,2.825,2.825,0,0,0,3.444-1.956Z"/><path class="b" d="M181.235,63.664c4.94,1.8,10.386,4.046,14.079,7.743A13.415,13.415,0,0,1,196.3,72.5c-.313-.391.219.316.223.323.113.168.22.34.325.513a18.363,18.363,0,0,1,1.538,3.228,45.121,45.121,0,0,1,2.017,8.084c1.517,9.1,1.586,18.4,3.3,27.477a15.274,15.274,0,0,0,1.473,5.077c1.8,2.938,5.7,1.308,7.988-.061,3.091-1.845.278-6.689-2.827-4.835a14.663,14.663,0,0,1-1.36.743l-.3.095q-.519.1-.152.076l-.31.023.994.36c.1.055.883.9.75.682-.2-.328.124.317.126.324-.095-.327-.224-.645-.316-.974a46.9,46.9,0,0,1-1.034-5.108q-.2-1.248-.381-2.5c-.021-.149-.041-.3-.062-.446-.106-.728.074.611-.009-.064-.036-.294-.076-.588-.11-.883-.288-2.5-.483-5.02-.754-7.526-.578-5.359-.93-10.774-2-16.066-.98-4.849-2.561-10.007-6.143-13.592-4.464-4.468-10.719-7.06-16.55-9.183a2.826,2.826,0,0,0-3.445,1.955,2.86,2.86,0,0,0,1.956,3.445Z"/><path class="b" d="M164.11,39.4c-9.777,1.361-20.663,5.083-25.027,14.8a2.842,2.842,0,0,0,.722,3.612,2.783,2.783,0,0,0,3.676-.218l.354-.41a2.871,2.871,0,0,0,0-3.96,2.825,2.825,0,0,0-3.96,0l-.354.41,4.4,3.393c3.792-8.444,13.26-11.054,21.68-12.226,1.5-.208,2.319-2.122,1.955-3.444A2.875,2.875,0,0,0,164.11,39.4Z"/><path class="b" d="M136.622,36.179a20.877,20.877,0,0,0-13.1,17.861,2.815,2.815,0,0,0,2.8,2.8,2.868,2.868,0,0,0,2.8-2.8c.016-.22.036-.438.056-.657.047-.551-.065.334,0-.018.071-.4.135-.792.225-1.185a16.913,16.913,0,0,1,.622-2.1c.075-.206.157-.41.237-.614-.136.347-.1.245.024-.035q.254-.549.541-1.08a18.259,18.259,0,0,1,1.226-1.952c.078-.108.408-.533.024-.049.114-.143.229-.286.346-.426q.387-.465.8-.9c.533-.56,1.114-1.053,1.692-1.563.253-.223-.389.277.039-.033.178-.129.355-.257.536-.381q.453-.311.924-.59c.314-.186.635-.363.96-.528.2-.1.4-.191.593-.286.536-.258-.462.18.14-.062a2.873,2.873,0,0,0,1.956-3.445c-.424-1.309-1.989-2.54-3.445-1.955Z"/><path class="b" d="M110.865,50.93A27.25,27.25,0,0,0,98.1,57.1a21.453,21.453,0,0,0-6.2,11.05c-1.112,4.816-1.187,10.237-3.445,14.659-2.592,5.076-7.092,8.878-9.43,14.1-2.665,5.95-3.234,12.469-3.691,18.9a2.825,2.825,0,0,0,2.8,2.8,2.854,2.854,0,0,0,2.8-2.8c.37-5.21.791-10.491,2.665-15.417,1.865-4.9,5.911-8.469,8.624-12.861,2.812-4.552,3.565-9.6,4.467-14.779a32.384,32.384,0,0,1,1.549-6.218,17.975,17.975,0,0,1,.981-1.97c.218-.376.45-.742.7-1.1a6.272,6.272,0,0,1,.709-.925,15.154,15.154,0,0,1,4.633-3.717,26.024,26.024,0,0,1,7.094-2.486,2.8,2.8,0,1,0-1.488-5.4Z"/><path class="b" d="M131.391,169.5a26.812,26.812,0,0,0,12.914,2.976c4.562-.029,9.242-.9,12.9-3.752,1.194-.93.977-2.983,0-3.96a2.872,2.872,0,0,0-3.959,0c.809-.63.042-.051-.165.081-.265.17-.539.328-.818.474-.165.087-1.079.491-.453.238-.371.15-.747.288-1.129.41a20.653,20.653,0,0,1-6.806.91,21.58,21.58,0,0,1-6.5-.875c-.414-.124-.817-.271-1.225-.412-.133-.046-.262-.105-.395-.154.686.254.085.038-.045-.023-.507-.237-1-.487-1.5-.748a2.861,2.861,0,0,0-3.831,1,2.83,2.83,0,0,0,1,3.831Z"/><path class="b" d="M143.172,138.7a62.163,62.163,0,0,1,1.462,6.687l-.1-.744a4.073,4.073,0,0,1,.025.923l.1-.744a2.284,2.284,0,0,1-.1.415l.282-.669a1.69,1.69,0,0,1-.147.267l.438-.567a1.436,1.436,0,0,1-.218.216l.566-.438a4.38,4.38,0,0,1-.529.28l.669-.282a3.824,3.824,0,0,1-.893.26l.744-.1a3.559,3.559,0,0,1-.838,0l.745.1c-.316-.044-.626-.121-.942-.164a3.1,3.1,0,0,0-2.158.283,2.8,2.8,0,0,0-1,3.831,2.683,2.683,0,0,0,1.674,1.286c.663.09,1.307.26,1.981.29a6.224,6.224,0,0,0,2.849-.667,3.98,3.98,0,0,0,2.245-2.637,6.869,6.869,0,0,0-.033-2.911c-.363-2.154-.861-4.29-1.416-6.4a2.8,2.8,0,0,0-5.4,1.489Z"/><path class="e" d="M167.291,161.229l.057.073-.438-.567a26.213,26.213,0,0,1,3.337,5.737,2.787,2.787,0,0,0,1.673,1.287,2.86,2.86,0,0,0,2.157-.282,2.826,2.826,0,0,0,1.287-1.674l.1-.744a2.785,2.785,0,0,0-.382-1.413,28.563,28.563,0,0,0-3.831-6.377,2.8,2.8,0,0,0-1.98-.82,2.85,2.85,0,0,0-1.98.82,2.813,2.813,0,0,0-.82,1.98l.1.744a2.8,2.8,0,0,0,.72,1.236Z"/><path class="b" d="M112.082,127.632a19.221,19.221,0,0,1,1.75-.852l-.765.323a19.724,19.724,0,0,1,4.946-1.261l-.85.114c.881-.115,1.765-.2,2.649-.287a3.444,3.444,0,0,0,2.263-.937,3.2,3.2,0,0,0,0-4.525,3.125,3.125,0,0,0-2.263-.938,45.44,45.44,0,0,0-5.647.775,20.469,20.469,0,0,0-5.313,2.062,3.23,3.23,0,0,0-1.148,4.378,3.266,3.266,0,0,0,4.378,1.148Z"/><path class="b" d="M169.055,124.847l.088-.014-.85.114a9.856,9.856,0,0,1,2.509.083l-.85-.114a18.054,18.054,0,0,1,4.6,1.345l-.764-.322c.724.31,1.406.687,2.1,1.049a3.2,3.2,0,0,0,3.23-5.527c-3.62-1.877-7.612-3.448-11.767-2.785a3.2,3.2,0,0,0-1.913,1.47,3.269,3.269,0,0,0-.322,2.466,3.234,3.234,0,0,0,1.47,1.912,3.684,3.684,0,0,0,2.466.323Z"/></svg>